<?xml version="1.0" encoding="utf-8"?>
<!-- Generator: Adobe Illustrator 21.1.0, SVG Export Plug-In . SVG Version: 6.00 Build 0)  -->
<svg version="1.1" id="图层_1" xmlns="http://www.w3.org/2000/svg" xmlns:xlink="http://www.w3.org/1999/xlink" x="0px" y="0px"
	 viewBox="0 0 58.3 72" style="enable-background:new 0 0 58.3 72;" xml:space="preserve">
<style type="text/css">
	.st0{fill:#435068;}
</style>
<title>alarmRealtime_menu</title>
<g id="Symbols">
	<g id="title-menu-实时报警">
		<path id="Combined-Shape" class="st0" d="M57.9,66.5l0.4,2.6c0,1.6-11,2.9-27.7,2.9h-2.9C11,72,0,70.7,0,69.1l0.3-2.6l2.9-17.3H55
			L57.9,66.5z M29.1,45.8H6.5c0,0,3.8-37.5,3.8-38.2c0-4.1,9.2-7.6,18.9-7.6S47.9,3.5,48,7.6c0,0.8,3.8,38.2,3.8,38.2L29.1,45.8z
			 M18.6,24.5c-0.1,6.1,4.5,11.3,10.6,11.9c6.1-0.6,10.7-5.8,10.5-11.9c0.1-6-4.5-11.1-10.5-11.5C23.1,13.3,18.4,18.4,18.6,24.5z
			 M32.4,23.7c0,1.8-1.4,3.4-3.2,3.5c-1.8,0-3.2-1.5-3.2-3.2c0-1.8,1.5-3.2,3.2-3.2C30.9,20.7,32.3,22,32.4,23.7L32.4,23.7z"/>
	</g>
</g>
</svg>
