<svg id="图层_1" data-name="图层 1" xmlns="http://www.w3.org/2000/svg" viewBox="0 0 72 72"><defs><style>.cls-1{fill:#8a97a0;}</style></defs><title>未标题-1</title><g id="Page-1"><g id="文件资源-查看图片-copy"><path id="Combined-Shape-Copy" class="cls-1" d="M40.13,47.92a20.18,20.18,0,0,0,4.12,22.49c-4,.27-8.75.43-14.17.43H27.28C11.42,70.84,1,69.5,1,67.89l.32-2.6L4.07,47.92Zm8.65-9.16a19.86,19.86,0,0,0-7.39,6.29H7.25S10.78,8.19,10.78,7.43c0-4,8.51-7.43,17.53-7.43S45.77,3.44,45.85,7.43C45.85,8,47.73,28.2,48.78,38.76ZM18.47,24.32C18.58,30.25,22.54,35,28.35,35s9.74-4.64,9.71-10.64c-.11-4-1.17-7.65-4.44-9.75a9.9,9.9,0,0,0-10.71,0C19.64,16.66,18.63,20.32,18.47,24.32ZM28,19.8a3.28,3.28,0,0,1,3.42,3.05,3.41,3.41,0,0,1-3.28,3.5A3.28,3.28,0,0,1,28,19.8ZM71,68.74l0,0a1.23,1.23,0,0,1,0,1.74l-1,1.13a1.23,1.23,0,0,1-1.74,0l-6.46-6.25a11.37,11.37,0,1,1,2.8-2.9ZM60.51,50.62h0a7.77,7.77,0,1,0,1.14,9.82A7.77,7.77,0,0,0,60.5,50.62Z"/></g></g></svg>