<svg id="图层_1" data-name="图层 1" xmlns="http://www.w3.org/2000/svg" xmlns:xlink="http://www.w3.org/1999/xlink" viewBox="0 0 72 72"><defs><style>.cls-1,.cls-2{fill:none;}.cls-2{clip-rule:evenodd;}.cls-3{fill:#435068;}.cls-4{clip-path:url(#clip-path);}.cls-5{clip-path:url(#clip-path-2);}</style><clipPath id="clip-path"><rect class="cls-1" x="-455.99" y="307" width="72" height="72"/></clipPath><clipPath id="clip-path-2"><path class="cls-2" d="M-426.93,329.71V325l-12.61,0,0,37.13h39.07V329.71Zm-1.66,29V353q.17,0,10.57,0a4.63,4.63,0,0,0,4.63-4.63,4.63,4.63,0,0,0-4.63-4.63l-4.93.13,2.14,2.14-2.84,2.84-5.27-5.41-2.84-2.84,2.84-2.84,5.27-5.27,2.84,2.84-2.42,2.42H-418a10.61,10.61,0,0,1,10.61,10.6A10.42,10.42,0,0,1-418,358.77Z"/></clipPath></defs><title>洞鉴5.1图标</title><path class="cls-3" d="M12.13,37l-5-8.59-6.87,4L8.24,46.12l8.25-4.76A11.85,11.85,0,0,1,12.13,37Z"/><path class="cls-3" d="M48.14.18,8.63,23l6,10.31a11.9,11.9,0,0,0,16.26,4.36L60,20.8Zm-1.65,17,5.15-3,3,5.15-5.15,3Z"/><rect class="cls-3" x="35" y="63" width="33" height="6"/><polygon class="cls-3" points="35 57.97 68 58 68 51 35 51 35 57.97"/><rect class="cls-3" x="35" y="40" width="33" height="6"/></svg>