<svg id="图层_1" data-name="图层 1" xmlns="http://www.w3.org/2000/svg" viewBox="0 0 20 20"><defs><style>.cls-1{fill:#e77e2d;}</style></defs><title>org_ alarm</title><g id="Page-1"><path id="Fill-1" class="cls-1" d="M16,18v-.87a.13.13,0,0,0-.12-.13H4.12a.13.13,0,0,0-.12.13v1H2.12a.13.13,0,0,0-.12.13v1.64a.13.13,0,0,0,.12.13H17.88a.13.13,0,0,0,.12-.13V18.23a.13.13,0,0,0-.12-.13Z"/><path id="Fill-3" class="cls-1" d="M11,2.59a.39.39,0,0,1-.35.41H9.35A.39.39,0,0,1,9,2.59V.41A.39.39,0,0,1,9.35,0h1.3A.39.39,0,0,1,11,.41Z"/><path id="Fill-3-Copy" class="cls-1" d="M4.24,3.83a.39.39,0,0,1,0,.54l-.92.92a.39.39,0,0,1-.54,0L1.29,3.71a.39.39,0,0,1,0-.54l.92-.92a.39.39,0,0,1,.54,0Z"/><path id="Fill-3-Copy-2" class="cls-1" d="M18.24,3.71a.39.39,0,0,0,0-.54l-.92-.92a.39.39,0,0,0-.54,0L15.29,3.83a.39.39,0,0,0,0,.54l.92.92a.39.39,0,0,0,.54,0Z"/><path id="Fill-6" class="cls-1" d="M.41,11A.39.39,0,0,1,0,10.65V9.35A.39.39,0,0,1,.41,9H2.59A.39.39,0,0,1,3,9.35v1.3a.39.39,0,0,1-.41.35Z"/><path id="Fill-8" class="cls-1" d="M17.41,11a.39.39,0,0,1-.41-.35V9.35A.39.39,0,0,1,17.41,9h2.17a.39.39,0,0,1,.41.35v1.3a.39.39,0,0,1-.41.35Z"/><path id="Fill-16" class="cls-1" d="M11.5,4h-3A4.46,4.46,0,0,0,4,8.4v7.47a.13.13,0,0,0,.13.13H15.87a.13.13,0,0,0,.13-.13V8.4A4.46,4.46,0,0,0,11.5,4"/></g></svg>