<svg id="图层_1" data-name="图层 1" xmlns="http://www.w3.org/2000/svg" xmlns:xlink="http://www.w3.org/1999/xlink" viewBox="0 0 72 72"><defs><style>.cls-1,.cls-2{fill:none;}.cls-2{clip-rule:evenodd;}.cls-3{clip-path:url(#clip-path);}.cls-4{clip-path:url(#clip-path-2);}.cls-5{fill:#435068;}</style><clipPath id="clip-path"><rect class="cls-1" x="-356.91" y="-253.33" width="72" height="72"/></clipPath><clipPath id="clip-path-2"><path class="cls-2" d="M-327.85-230.63v-4.75l-12.61,0,0,37.13h39.07v-32.43Zm-1.66,29v-5.7q.17,0,10.57,0a4.63,4.63,0,0,0,4.63-4.63,4.63,4.63,0,0,0-4.63-4.63l-4.93.13,2.14,2.14-2.84,2.84-5.27-5.41-2.84-2.84,2.84-2.84,5.27-5.27,2.84,2.84-2.42,2.42h5.21a10.61,10.61,0,0,1,10.61,10.6,10.42,10.42,0,0,1-10.61,10.38Z"/></clipPath></defs><title>1</title><path class="cls-5" d="M27,21.77a3.16,3.16,0,0,0,.12,6.29A3.18,3.18,0,0,0,30,24.71,3,3,0,0,0,27,21.77Z"/><path class="cls-5" d="M33.46,55.23a18.3,18.3,0,0,1,.36-5.48H3.65L1.11,66.35.8,68.88c0,1.56,9.94,2.87,25,2.87h2.65c5,0,9.37-.15,13-.39A20.23,20.23,0,0,1,33.46,55.23Z"/><path class="cls-5" d="M46.5,35.92C45.49,25.07,44,9.07,44,8.57c-.08-3.94-8.22-7.34-16.93-7.34S10.14,4.62,10.14,8.57c0,.76-3.41,37.18-3.41,37.18H35.55A20.2,20.2,0,0,1,46.5,35.92Zm-19.39.64C21.64,36,17.49,31,17.58,25c-.14-5.88,4-10.82,9.46-11.2,5.42.38,9.59,5.33,9.46,11.2C36.64,30.93,32.55,36,27.11,36.56Z"/><path class="cls-5" d="M53.76,40.61h0A14.42,14.42,0,0,0,39.9,50.54,14.66,14.66,0,0,0,59,68.84a13.81,13.81,0,0,0,8.4-8.39A14.64,14.64,0,0,0,53.76,40.61Zm2,22H47.79a1.55,1.55,0,1,1,0-3.1h7.93a1.55,1.55,0,0,1,0,3.1Zm4-5.85H47.79a1.55,1.55,0,0,1,0-3.1H59.72a1.55,1.55,0,1,1,0,3.1Zm0-6H47.79a1.55,1.55,0,1,1,0-3.1H59.72a1.55,1.55,0,1,1,0,3.1Z"/></svg>