<svg xmlns="http://www.w3.org/2000/svg" viewBox="0 0 34 31.28"><defs><style>.cls-1{fill:#435068;}</style></defs><title>历史报警</title><g id="Layer_2" data-name="Layer 2"><g id="图层_1" data-name="图层 1"><path class="cls-1" d="M12.75,8.67a1.52,1.52,0,1,0,1.42,1.52A1.47,1.47,0,0,0,12.75,8.67Z"/><path class="cls-1" d="M15.58,21.37H1.42L.16,28.88h0L0,30c0,.71,4.81,1.28,12.11,1.28a72,72,0,0,0,10.14-.55A9.92,9.92,0,0,1,15.58,21.37Z"/><path class="cls-1" d="M20.58,12.77c-.42-4.46-.88-9.38-.88-9.56C19.7,1.44,16.3,0,12.1,0S4.5,1.44,4.5,3.21C4.5,3.55,2.83,20,2.83,20H15.7A9.88,9.88,0,0,1,20.58,12.77ZM8.12,10.61c0-2.77,2-5,4.39-5s4.39,2.25,4.39,5-2,5-4.39,5S8.12,13.39,8.12,10.61Z"/><path class="cls-1" d="M25.5,14.28a7.09,7.09,0,1,1-7.08,7.09,7.09,7.09,0,0,1,7.08-7.09m0-1.41a8.5,8.5,0,1,0,8.5,8.5,8.5,8.5,0,0,0-8.5-8.5Z"/><rect class="cls-1" x="22.67" y="22.78" width="7.08" height="1.42" rx="0.28" ry="0.28"/><rect class="cls-1" x="22.67" y="17.12" width="1.42" height="7.08" rx="0.28" ry="0.28"/></g></g></svg>