<svg id="图层_1" data-name="图层 1" xmlns="http://www.w3.org/2000/svg" viewBox="0 0 72 72"><defs><style>.cls-1{fill:#8a97a0;}</style></defs><title>未标题-1</title><g id="Page-1"><g id="文件资源-查看图片-copy"><g id="Group"><path id="Combined-Shape" class="cls-1" d="M11.08,5H60.92A11.08,11.08,0,0,1,72,16.08V56.59A11.08,11.08,0,0,1,60.92,67.68H11.08A11.08,11.08,0,0,1,0,56.59V16.08A11.08,11.08,0,0,1,11.08,5Zm.48,5.67a5.8,5.8,0,0,0-5.8,5.8V56.2a5.8,5.8,0,0,0,5.8,5.8H60.44a5.8,5.8,0,0,0,5.8-5.8V16.47a5.8,5.8,0,0,0-5.8-5.8ZM56.65,20.82l.14.12a5.43,5.43,0,0,1,0,10.86,4,4,0,0,1-1.07-.17l-6.59,7.92a4.59,4.59,0,0,1,.2,1.27,5.43,5.43,0,1,1-10.86,0,4.25,4.25,0,0,1,.17-1.16l-6.79-5.78a4.88,4.88,0,0,1-2.89.17L20.3,44.4a5.29,5.29,0,0,1,.32,1.79,5.43,5.43,0,1,1-5.43-5.43,4.74,4.74,0,0,1,1.3.2l8.44-10.17a5.06,5.06,0,0,1-.43-2,5.43,5.43,0,0,1,10.86,0,4.74,4.74,0,0,1-.2,1.3l6.67,5.55a5,5,0,0,1,3.7,0l6.13-7.37a5.06,5.06,0,0,1-.43-2A5.43,5.43,0,0,1,56.65,20.82Z"/></g></g></g></svg>