<svg id="图层_1" data-name="图层 1" xmlns="http://www.w3.org/2000/svg" viewBox="0 0 20 20"><defs><style>.cls-1{fill:#fff;}</style></defs><title>App_setting</title><path class="cls-1" d="M4.38,2.12a2,2,0,0,1,2-2h7.85a2,2,0,0,1,2,2V17.88a2,2,0,0,1-2,2H6.35a2,2,0,0,1-2-2ZM15.21,15.9V3.12H5.36V15.9Zm-4.92,3.2a1.23,1.23,0,1,0-1.23-1.23,1.23,1.23,0,0,0,1.23,1.23Zm0,0"/><path class="cls-1" d="M14.52,8.74a.78.78,0,1,1-.59-1.46,4.34,4.34,0,0,0-1.35-1.35.78.78,0,1,1-1.46-.59,4.31,4.31,0,0,0-1.7,0A.78.78,0,1,1,8,5.94,4.34,4.34,0,0,0,6.63,7.29.78.78,0,1,1,6,8.74a4.31,4.31,0,0,0,0,1.7.78.78,0,1,1,.59,1.46A4.34,4.34,0,0,0,8,13.24a.78.78,0,1,1,1.46.59,4.31,4.31,0,0,0,1.7,0,.78.78,0,1,1,1.46-.59,4.34,4.34,0,0,0,1.35-1.35.78.78,0,1,1,.59-1.46,4.31,4.31,0,0,0,0-1.7Zm-4.24,3.21a2.36,2.36,0,1,1,2.36-2.36A2.36,2.36,0,0,1,10.28,11.95Z"/><circle class="cls-1" cx="10.28" cy="9.59" r="1.18"/></svg>