<svg id="图层_1" data-name="图层 1" xmlns="http://www.w3.org/2000/svg" viewBox="0 0 72 72"><defs><style>.cls-1{fill:#435068;}</style></defs><title>画板 5</title><rect class="cls-1" x="26" y="9" width="21" height="7"/><path class="cls-1" d="M60.9,12H50v7H22V12H11.1A6.3,6.3,0,0,0,5,18.5v36A6.4,6.4,0,0,0,11.2,61H60.9A6.3,6.3,0,0,0,67,54.5v-36A6.3,6.3,0,0,0,60.9,12ZM39,30H59v3H39Zm0,6H59v3H39ZM11,51h-.4c0-1.7.7-2.4,2-2.7s3.4-1.1,5.2-1.6,2.4-3.2,2.4-3.2V41.3l-.5-1L18.9,38h-.3l-.5-.4-.6-2.2.3-.7.5-.2L18,33.3V32.1h-.2l.2-1h-.3c0-.9.2-1.1.2-1.1l.4-.7h-.4l1.3-2,1.3-.9.5-.8.9-.5.8.2-.2-.4,1.1.3-.6-.7a6.2,6.2,0,0,1,5.3,2.8c2.3.9,2.7,4.2,2.7,4.2l-.7,2.5.5.3v.9l-.5,1.9-.4.3h-.3l-.8,2.7-.3.8v2.3s1.1,2.9,2.4,3.4,4,1,6,1.8S38.7,51,38.7,51Zm28-6V42H59v3H39Z"/></svg>