<?xml version="1.0" encoding="UTF-8"?>
<svg width="48px" height="48px" viewBox="0 0 48 48" version="1.1" xmlns="http://www.w3.org/2000/svg" xmlns:xlink="http://www.w3.org/1999/xlink">
    <!-- Generator: Sketch 50.2 (55047) - http://www.bohemiancoding.com/sketch -->
    <title>photo_library - material</title>
    <desc>Created with Sketch.</desc>
    <defs></defs>
    <g id="-" stroke="none" stroke-width="1" fill="none" fill-rule="evenodd">
        <g id="photo_library---material" fill="#0074FF">
            <path d="M0,9.57692308 L4.73076923,9.57692308 L4.73076923,43.2692308 L38.4230769,43.2692308 L38.4230769,48 L4.73076923,48 C3.42307038,48 2.30769692,47.5384662 1.38461538,46.6153846 C0.461533846,45.6923031 0,44.5769296 0,43.2692308 L0,9.57692308 Z M21.6346154,24 L14.4230769,33.5769231 L43.2692308,33.5769231 L33.5769231,21.6346154 L26.4807692,30.5192308 L21.6346154,24 Z M48,33.5769231 C48,34.8846219 47.5384662,36.019226 46.6153846,36.9807692 C45.6923031,37.9423125 44.5769296,38.4230769 43.2692308,38.4230769 L14.4230769,38.4230769 C13.1153781,38.4230769 11.980774,37.9423125 11.0192308,36.9807692 C10.0576875,36.019226 9.57692308,34.8846219 9.57692308,33.5769231 L9.57692308,4.73076923 C9.57692308,3.42307038 10.0576875,2.30769692 11.0192308,1.38461538 C11.980774,0.461533846 13.1153781,0 14.4230769,0 L43.2692308,0 C44.5769296,0 45.6923031,0.461533846 46.6153846,1.38461538 C47.5384662,2.30769692 48,3.42307038 48,4.73076923 L48,33.5769231 Z"></path>
        </g>
    </g>
</svg>