<svg id="图层_1" data-name="图层 1" xmlns="http://www.w3.org/2000/svg" viewBox="0 0 48 48"><defs><style>.cls-1{fill:#435068;}</style></defs><title>区域管理</title><path class="cls-1" d="M31.07,32.32A10,10,0,0,1,42.9,22.49L39.41,8.77,28.49,12.49l-5.55-2.11L20,12.8l3.7,4.28-2.73,2.36-3.76-4.36-5.07,4.15,6.07,7.27-2.77,2.31L7,18.74,19,8.9,15.36,7.5,4.38,10,0,38l14.42-1.9L28.18,40.5l5.3-1.68A10,10,0,0,1,31.07,32.32Z"/><path class="cls-1" d="M47.86,31a1.26,1.26,0,1,1-.94-2.33,7,7,0,0,0-2.16-2.16,1.26,1.26,0,1,1-2.33-.94,6.91,6.91,0,0,0-2.72,0,1.26,1.26,0,1,1-2.33.94,7,7,0,0,0-2.16,2.16A1.26,1.26,0,1,1,34.28,31a6.91,6.91,0,0,0,0,2.72A1.26,1.26,0,1,1,35.22,36a7,7,0,0,0,2.16,2.16,1.26,1.26,0,1,1,2.33.94,6.91,6.91,0,0,0,2.72,0,1.26,1.26,0,1,1,2.33-.94A7,7,0,0,0,46.93,36a1.26,1.26,0,1,1,.94-2.33,6.91,6.91,0,0,0,0-2.72ZM41.07,36.1a3.78,3.78,0,1,1,3.78-3.78A3.78,3.78,0,0,1,41.07,36.1Z"/><circle class="cls-1" cx="41.07" cy="32.32" r="1.89"/></svg>