<svg id="图层_1" data-name="图层 1" xmlns="http://www.w3.org/2000/svg" viewBox="0 0 72 72"><defs><style>.cls-1{fill:#435068;}</style></defs><title>视屏结构化图标分类</title><path class="cls-1" d="M51.48,45.25c-3.9-.72-7.82-1.36-11.7-2.19-2.83-.61-4.18.41-4.67,3.22-1,6-2.19,12-3.3,17.94-.19,1-.35,2.09-.59,3.12-.36,1.5-.35,3.54-2.36,3.66s-2.23-2-2.6-3.43c-1.6-6.13-3.09-12.29-4.61-18.45Q16.51,28.35,11.37,7.57c-.13-.51-.26-1-.37-1.54-.35-1.68-1-3.59.82-4.69s3,.54,4.15,1.5q17.87,14.45,35.68,29c4.41,3.57,8.88,7.08,13.28,10.66,1.22,1,2.76,2.09,2,3.9-.8,2-2.69,1.2-4.17,1C59,46.69,55.25,45.94,51.48,45.25Zm5.57-2.47.42-1L17.1,9.2l-.84.66,12.06,48.6,1.07-.09c.94-5,2-10.06,2.75-15.13.54-3.79,2.26-4.84,5.94-4C44.36,40.58,50.72,41.61,57.05,42.78Z"/></svg>