<svg xmlns="http://www.w3.org/2000/svg" viewBox="0 0 20.11 22.99"><defs><style>.cls-1{fill:#fff;}</style></defs><title>资源 1</title><g id="图层_2" data-name="图层 2"><g id="图层_1-2" data-name="图层 1"><path class="cls-1" d="M19.88,2.88a.73.73,0,0,0-.56-.18c-.05,0-5.6.54-8.77-2.5a.71.71,0,0,0-1,0C6.43,3.23.85,2.7.79,2.7a.7.7,0,0,0-.55.18A.71.71,0,0,0,0,3.41V8.8C0,20.45,9.79,22.94,9.89,23a.91.91,0,0,0,.33,0c.1,0,9.89-2.52,9.89-14.17V3.41a.7.7,0,0,0-.23-.53ZM18.68,8.8c0,9.81-7.37,12.36-8.62,12.72C8.8,21.16,1.44,18.61,1.44,8.8V4.17c1.7,0,5.75-.12,8.62-2.49C13,4.05,17,4.22,18.68,4.17Z"/><path class="cls-1" d="M13.56,8.48a3.73,3.73,0,1,0-4.22,3.68v4.36a.72.72,0,1,0,1.43,0V15.08h1.44a.72.72,0,1,0,0-1.43H10.77V12.08a3.74,3.74,0,0,0,2.79-3.6Zm-6,0a2.29,2.29,0,1,1,2.29,2.29A2.3,2.3,0,0,1,7.54,8.48Z"/></g></g></svg>