<svg xmlns="http://www.w3.org/2000/svg" viewBox="0 0 36 31.08"><defs><style>.cls-1{fill:#435068;}</style></defs><title>摄像机管理</title><g id="Layer_2" data-name="Layer 2"><g id="图层_1" data-name="图层 1"><path class="cls-1" d="M1.74,18.54s2.9,4.36,5.8,4.95L4.06,25.8,0,19.7Z"/><path class="cls-1" d="M2.33,15.64,5.22,20c5.22,4.07,8.71,1.75,8.71,1.75L32.23,9.59,25.86,0ZM25,8.13l2.61-1.74L29.33,9l-2.61,1.74Z"/><path class="cls-1" d="M26.3,19.66H24.22l-.91-2.75-3.42,1.83,2.62,3.55h2.37A6.6,6.6,0,0,1,26.3,19.66Z"/><path class="cls-1" d="M35.9,24.71a1,1,0,0,1-.38.08,1,1,0,0,1-.35-1.88,5.37,5.37,0,0,0-1.66-1.66,1,1,0,0,1-.9.63,1,1,0,0,1-1-1,1,1,0,0,1,.08-.38,5.19,5.19,0,0,0-1-.1,5.1,5.1,0,0,0-1,.1,1,1,0,0,1,.07.38,1,1,0,0,1-1.87.34,5.48,5.48,0,0,0-1.66,1.66,1,1,0,0,1-.34,1.88,1,1,0,0,1-.38-.08,5.51,5.51,0,0,0,0,2.09,1,1,0,0,1,.38-.08,1,1,0,0,1,1,1,1,1,0,0,1-.63.9,5.37,5.37,0,0,0,1.66,1.66,1,1,0,0,1,.91-.62,1,1,0,0,1,1,1,1,1,0,0,1-.07.38,5.91,5.91,0,0,0,1,.1,6,6,0,0,0,1-.1,1,1,0,0,1-.08-.38,1,1,0,0,1,1-1,1,1,0,0,1,.9.62,5.26,5.26,0,0,0,1.66-1.66,1,1,0,0,1-.62-.9,1,1,0,0,1,1-1,1,1,0,0,1,.38.08,5.51,5.51,0,0,0,0-2.09Zm-5.23,3.95a2.91,2.91,0,1,1,2.91-2.91A2.9,2.9,0,0,1,30.67,28.66Z"/><circle class="cls-1" cx="30.67" cy="25.75" r="1.45"/></g></g></svg>