<svg xmlns="http://www.w3.org/2000/svg" viewBox="0 0 28 42"><defs><style>.cls-1{fill:#1b1a1a;opacity:0.2;}.cls-2{fill:#c64f4f;}.cls-3{fill:#fff;}</style></defs><title>Asset 3</title><g id="Layer_2" data-name="Layer 2"><g id="Layer_1-2" data-name="Layer 1"><path class="cls-1" d="M14,40a.51.51,0,0,1-.47-.47c0-.5-.1-1-.17-1.5C10.89,38.16,9,39,9,40s2.24,2,5,2,5-.9,5-2-1.89-1.84-4.33-2c-.07.5-.14,1-.17,1.5A.5.5,0,0,1,14,40Z"/><path class="cls-2" d="M14,0A14,14,0,0,0,4.2,24H4.1l3.31,3a18.56,18.56,0,0,1,5.92,11c.22,0,.44,0,.67,0s.45,0,.67,0A18.68,18.68,0,0,1,20.56,27L23,24.75A14,14,0,0,0,14,0Zm6,16-3-1v1a1,1,0,0,1-1,1H9a1,1,0,0,1-1-1V10A1,1,0,0,1,9,9h7a1,1,0,0,1,1,1v1l3-1Z"/><polygon class="cls-2" points="11 15 14 13 11 11 11 15"/><path class="cls-2" d="M13.33,38c.07.5.14,1,.17,1.5A.51.51,0,0,0,14,40a.5.5,0,0,0,.53-.47c0-.5.1-1,.17-1.5-.22,0-.44,0-.67,0S13.55,38,13.33,38Z"/><path class="cls-3" d="M17,10a1,1,0,0,0-1-1H9a1,1,0,0,0-1,1v6a1,1,0,0,0,1,1h7a1,1,0,0,0,1-1V15l3,1V10l-3,1Zm-6,5V11l3,2Z"/></g></g></svg>