<svg xmlns="http://www.w3.org/2000/svg" viewBox="0 0 15.28 15.03"><defs><style>.cls-1{fill:#f05353;}</style></defs><title>资源 1</title><g id="图层_2" data-name="图层 2"><g id="图层_5" data-name="图层 5"><path class="cls-1" d="M.54,5.77s.9,1.35,1.81,1.53L1.26,8,0,6.13Z"/><path class="cls-1" d="M.72,4.86,2,6.63c1.62,1.27,2.71.55,2.71.55L10.44,3.4,8,0ZM7.77,2.94l.81-.54.54.81-.81.54Z"/><path class="cls-1" d="M6.73,15h8.1a.45.45,0,0,0,.45-.45V7.38a.45.45,0,0,0-.45-.45H6.73a.45.45,0,0,0-.45.44v7.22A.46.46,0,0,0,6.73,15Zm6.66-7.11a1,1,0,1,1-1,.95A1,1,0,0,1,13.39,7.92ZM7.7,11.24,9.12,9.82l2.37,2.37,1.42-1.43,1.43,1.43v1.42H7.7Z"/></g></g></svg>