<svg id="图层_1" data-name="图层 1" xmlns="http://www.w3.org/2000/svg" viewBox="0 0 72 72"><defs><style>.cls-1{fill:#435068;}</style></defs><title>视频结构化图标20180830</title><polygon class="cls-1" points="6 6 18 6 18 0 8.88 0 0 0 0 9 0 18 6 18 6 6"/><polygon class="cls-1" points="63.12 0 54 0 54 6 66 6 66 18 72 18 72 9 72 0 63.12 0"/><polygon class="cls-1" points="6 54 0 54 0 63 0 72 8.88 72 18 72 18 66 6 66 6 54"/><polygon class="cls-1" points="66 66 54 66 54 72 63.12 72 72 72 72 63 72 54 66 54 66 66"/><path class="cls-1" d="M13.8,42.87l-2.43,1.62L17,53l4.86-3.23C17.84,49,13.8,42.87,13.8,42.87Z"/><path class="cls-1" d="M47.45,17,14.61,38.82l5.9,7.94c7.28,5.68,12.14,2.45,12.14,2.45l25.54-17ZM46.22,30.2l3.65-2.42,2.43,3.65-3.65,2.42Z"/><polygon class="cls-1" points="60.64 46.11 49.49 46.11 47.3 42.57 41.94 46.13 46.49 51.82 60.64 51.82 60.64 46.11"/></svg>