<svg id="图层_1" data-name="图层 1" xmlns="http://www.w3.org/2000/svg" viewBox="0 0 72 72"><defs><style>.cls-1{fill:#435068;}</style></defs><title>视屏结构化图标分类</title><path class="cls-1" d="M27.9,20.22c10.67-2.32,10.54-2.7,10.71-9.89,0-1.72-.91-4,1.11-5,2.31-1.16,4,.46,5.81,1.92,7.68,6.32,15.4,12.6,23.23,18.73,3.61,2.83,2.4,5-.41,7.28C61.91,38.51,55.6,44,49,49,46.26,51,44,55.73,40,53.79c-3.38-1.63-.88-6-1.41-9.08-.32-1.86.57-4.09-2.76-4.22-9.23-.35-24.62,4.35-29.52,15.81C5.5,58.25,7,62.81,3.15,62S2,57,1.09,54.84C2,37.54,10.19,24.08,27.9,20.22Zm-19,26.35c7.62-8.07,17.83-9,27.92-10.31,4.43-.6,6.62.67,6.14,5.53-.16,1.64-1,4.11.93,5s3.18-1.46,4.5-2.5c5-3.92,9.63-8.2,14.55-12.18,2.22-1.8,2.69-3.13.19-5.08-5.71-4.45-11.38-8.95-16.88-13.65-2.6-2.22-3.13-1.56-3.37,1.45-.61,7.76-.73,7.34-8.26,8.21C22.71,24.38,10.13,29.72,5.79,47.88,7.33,47.25,8.34,47.14,8.88,46.57Z"/></svg>