<svg id="图层_1" data-name="图层 1" xmlns="http://www.w3.org/2000/svg" viewBox="0 0 72 72"><defs><style>.cls-1{fill:#435068;}</style></defs><title>视屏结构化图标分类</title><rect class="cls-1" x="5.78" y="24.07" width="60.44" height="4.78"/><rect class="cls-1" x="30.51" y="5.27" width="11.11" height="4.78"/><rect class="cls-1" x="18.47" y="0.66" width="6.64" height="15.18" rx="3.32" ry="3.32"/><rect class="cls-1" x="47.03" y="0.66" width="6.64" height="15.18" rx="3.32" ry="3.32"/><rect class="cls-1" x="13.81" y="33.9" width="9.56" height="9.56" rx="3.19" ry="3.19"/><rect class="cls-1" x="31.21" y="33.9" width="9.56" height="9.56" rx="3.19" ry="3.19"/><rect class="cls-1" x="13.81" y="51.36" width="9.56" height="9.56" rx="3.19" ry="3.19"/><rect class="cls-1" x="31.21" y="51.36" width="9.56" height="9.56" rx="3.19" ry="3.19"/><rect class="cls-1" x="48.55" y="33.9" width="9.56" height="9.56" rx="3.19" ry="3.19"/><path class="cls-1" d="M63,5.27H59.05v4.78H63a3.24,3.24,0,0,1,3.23,3.24V62.34A3.24,3.24,0,0,1,63,65.58H9a3.24,3.24,0,0,1-3.23-3.24V13.29A3.24,3.24,0,0,1,9,10.05H13V5.27H9a8,8,0,0,0-8,8V62.34a8,8,0,0,0,8,8H63a8,8,0,0,0,8-8V13.29A8,8,0,0,0,63,5.27Z"/></svg>