<svg xmlns="http://www.w3.org/2000/svg" viewBox="0 0 13.31 12"><defs><style>.cls-1{fill:#99bc6f;}</style></defs><title>Page-1</title><g id="图层_2" data-name="图层 2"><g id="主页"><g id="Page-1"><g id="实时报警-视频"><g id="UI_指挥模式-Component" data-name="UI/指挥模式-Component"><g id="报警订阅-icon"><path id="camera_alt---material" data-name="camera alt---material" class="cls-1" d="M6.66,10a3.31,3.31,0,0,0,1.68-.45A3.34,3.34,0,0,0,9.55,8.34,3.31,3.31,0,0,0,10,6.66,3.25,3.25,0,0,0,9.55,5,3.31,3.31,0,0,0,6.66,3.31,3.35,3.35,0,0,0,3.76,5a3.25,3.25,0,0,0-.45,1.68A3.31,3.31,0,0,0,5,9.55,3.25,3.25,0,0,0,6.66,10Zm-2-10h4L9.87,1.31H12a1.28,1.28,0,0,1,.93.4,1.35,1.35,0,0,1,.38,1v8a1.34,1.34,0,0,1-.38.94A1.24,1.24,0,0,1,12,12H1.31a1.24,1.24,0,0,1-.93-.4A1.34,1.34,0,0,1,0,10.66v-8a1.35,1.35,0,0,1,.38-1,1.28,1.28,0,0,1,.93-.4H3.44ZM4.53,6.66a2,2,0,0,1,.29-1.07,2.18,2.18,0,0,1,.77-.77,2.1,2.1,0,0,1,2.13,0,2.21,2.21,0,0,1,.78.77,2.17,2.17,0,0,1,0,2.13,2.24,2.24,0,0,1-.78.78,2.17,2.17,0,0,1-2.13,0,2.21,2.21,0,0,1-.77-.78A2,2,0,0,1,4.53,6.66Z"/></g></g></g></g></g></g></svg>