<svg id="图层_1" data-name="图层 1" xmlns="http://www.w3.org/2000/svg" viewBox="0 0 72 72"><defs><style>.cls-1{fill:#435068;}.cls-2{fill:#edf3f9;}</style></defs><title>icon</title><g id="Group-2"><rect id="Rectangle" class="cls-1" y="5.14" width="72" height="61.71" rx="5.14" ry="5.14"/><path id="Fill-2" class="cls-2" d="M33.12,14.6l.33.64-1.31-.32-1.47.8L29.85,17l-2.13,1.44-2.29,3.2.65-.16-.67,1.08s-.22.26-.32,1.8l.49-.16-.33,1.49.33-.21.16,1.92.49,1.92-.82.32-.49,1.12,1,3.52.82.64h.65l1.14,3.68.82,1.6.16,3.52s-1.06,4.13-4.09,5-5.05,1.84-8.5,2.56c-2.29.48-3.43,1.6-3.43,4.32H60.11s-.54-3-2.78-3.84c-3.27-1.28-7.2-1.92-10-2.88-2.18-.75-3.92-5.28-3.92-5.28l-.16-3.68.49-1.28,1.31-4.32.49.16.65-.48.82-3-.16-1.44L46,29l1.14-4s-.65-5.12-4.42-6.56A10.32,10.32,0,0,0,33.94,14l1,1.12Z"/></g></svg>