<svg xmlns="http://www.w3.org/2000/svg" viewBox="0 0 48 48"><defs><style>.cls-1{fill:#435068;}</style></defs><title>检索</title><g id="Layer_2" data-name="Layer 2"><g id="图层_1" data-name="图层 1"><polygon class="cls-1" points="2 11.16 0 11.16 0 0 11.16 0 11.16 2 2 2 2 11.16"/><polygon class="cls-1" points="48 11.16 46 11.16 46 2 36.84 2 36.84 0 48 0 48 11.16"/><polygon class="cls-1" points="11.16 48 0 48 0 36.84 2 36.84 2 46 11.16 46 11.16 48"/><polygon class="cls-1" points="48 48 36.84 48 36.84 46 46 46 46 36.84 48 36.84 48 48"/><path class="cls-1" d="M21.17,5.84l.25.51-1-.25-1.13.63-.63,1L17,8.86l-1.76,2.52.5-.12-.51.84s-.17.21-.25,1.42l.38-.13-.25,1.17.25-.16.13,1.51.37,1.51-.62.25-.38.88.75,2.77.63.51h.51l.88,2.89L18.28,26l.12,2.77s-.81,3.25-3.14,3.9-3.89,1.44-6.55,2C7,35,6.07,35.92,6.07,38.06H41.93s-.41-2.33-2.14-3c-2.51-1-5.53-1.51-7.67-2.27-1.68-.59-3-4.15-3-4.15L29,25.73l.38-1,1-3.4.38.13.51-.38.62-2.39-.12-1.13-.63-.38L32,14s-.5-4-3.4-5.16A7.9,7.9,0,0,0,21.8,5.34l.75.88Z"/></g></g></svg>