<svg id="图层_1" data-name="图层 1" xmlns="http://www.w3.org/2000/svg" xmlns:xlink="http://www.w3.org/1999/xlink" viewBox="0 0 72 72"><defs><style>.cls-1,.cls-2{fill:none;}.cls-2{clip-rule:evenodd;}.cls-3{clip-path:url(#clip-path);}.cls-4{clip-path:url(#clip-path-2);}.cls-5{fill:#435068;}</style><clipPath id="clip-path"><rect class="cls-1" x="-272.66" y="-253.33" width="72" height="72"/></clipPath><clipPath id="clip-path-2"><path class="cls-2" d="M-243.6-230.63v-4.75l-12.61,0,0,37.13h39.07v-32.43Zm-1.66,29v-5.7q.17,0,10.57,0a4.63,4.63,0,0,0,4.63-4.63,4.63,4.63,0,0,0-4.63-4.63l-4.93.13,2.14,2.14-2.84,2.84-5.27-5.41-2.84-2.84,2.84-2.84,5.27-5.27,2.84,2.84-2.42,2.42h5.21a10.61,10.61,0,0,1,10.61,10.6,10.42,10.42,0,0,1-10.61,10.38Z"/></clipPath></defs><title>1</title><polygon class="cls-5" points="3.99 16.37 -0.06 16.34 -0.06 -0.08 16.37 -0.08 16.37 4.03 3.99 4.03 3.99 16.37"/><polygon class="cls-5" points="71.92 16.37 67.8 16.37 67.8 4.03 55.46 4.03 55.46 -0.08 71.92 -0.08 71.92 16.37"/><polygon class="cls-5" points="16.37 71.92 -0.08 71.92 -0.08 55.46 4.03 55.46 4.03 67.8 16.37 67.8 16.37 71.92"/><polygon class="cls-5" points="71.92 71.92 55.46 71.92 55.46 67.8 67.8 67.8 67.8 55.46 71.92 55.46 71.92 71.92"/><path class="cls-5" d="M40.88,41.55l-.11-2.66.53-1.44,1.41-4.86.53.18.71-.54.88-3.42-.18-1.62-.88-.54L45,22.14s-.71-5.76-4.76-7.38a11.06,11.06,0,0,0-9.52-5L31.77,11l-1.94-.54.35.72-1.41-.36-1.59.9-.88,1.44L24,14.76l-2.47,3.6.71-.18-.72,1.21s-.24.3-.34,2l.53-.18-.35,1.67.35-.23.18,2.16L22.43,27l-.88.36L21,28.62l1.06,4,.88.72h.71l1.23,4.14.88,1.8.18,4s-1.14,4.66-4.41,5.58-5.45,2.07-9.17,2.88c-2.47.54-3.7,1.8-3.7,4.86H42.39a12.8,12.8,0,0,1-1.51-15Z"/><path class="cls-5" d="M52.77,36.61h-.26a10.13,10.13,0,0,0-9.39,6.06A10.67,10.67,0,0,0,56,57.3a10.22,10.22,0,0,0,6.8-6.68A10.62,10.62,0,0,0,52.77,36.61Zm.33,16H48.44a1.13,1.13,0,0,1,0-2.25H53.1a1.13,1.13,0,0,1,0,2.25Zm4-4.25H48.44a1.13,1.13,0,0,1,0-2.25H57.1a1.13,1.13,0,0,1,0,2.25Zm0-4.33H48.44a1.12,1.12,0,0,1,0-2.25H57.1a1.13,1.13,0,0,1,0,2.25Z"/></svg>