<svg xmlns="http://www.w3.org/2000/svg" viewBox="0 0 48 36.76"><defs><style>.cls-1{fill:#d1d5dd;}</style></defs><title>Fill-8</title><g id="图层_2" data-name="图层 2"><g id="图层_24" data-name="图层 24"><path id="Fill-8" class="cls-1" d="M33.24,18.53a2.86,2.86,0,0,1-3-2.7,3,3,0,0,1,6,0,2.86,2.86,0,0,1-3,2.7m-9,0a2.86,2.86,0,0,1-3-2.7,2.86,2.86,0,0,1,3-2.7,2.86,2.86,0,0,1,3,2.7,2.86,2.86,0,0,1-3,2.7m-9,0a2.86,2.86,0,0,1-3-2.7,2.86,2.86,0,0,1,3-2.7,2.86,2.86,0,0,1,3,2.7,2.86,2.86,0,0,1-3,2.7M44.39,0H3.61A3.42,3.42,0,0,0,0,3.18v25.5a3.42,3.42,0,0,0,3.61,3.19H18.77l5.42,4.89,5.43-4.89H44.39A3.42,3.42,0,0,0,48,28.68V3.18A3.42,3.42,0,0,0,44.39,0"/></g></g></svg>