<svg xmlns="http://www.w3.org/2000/svg" viewBox="0 0 48 43.68"><defs><style>.cls-1{fill:#d1d5dd;}</style></defs><title>资源 12</title><g id="图层_2" data-name="图层 2"><g id="图层_14" data-name="图层 14"><path class="cls-1" d="M20.21.67l.34.67L19.2,1l-1.52.84-.84,1.34L14.65,4.7,12.29,8.06,13,7.9,12.28,9s-.22.27-.32,1.89l.5-.17-.33,1.56.33-.21.17,2,.51,2-.85.33-.5,1.18,1,3.7.84.67h.68l1.17,3.86.85,1.68.17,3.7s-1.09,4.34-4.22,5.21-5.2,1.93-8.75,2.69C1.18,39.65,0,40.83,0,43.68H48s-.55-3.11-2.86-4c-3.37-1.34-7.41-2-10.28-3-2.24-.8-4-5.55-4-5.55l-.17-3.86.51-1.35,1.35-4.53.5.16.67-.5.85-3.19-.17-1.51-.84-.51,1.17-4.2S34,6.22,30.15,4.7A10.61,10.61,0,0,0,21.05,0l1,1.18Z"/></g></g></svg>