<?xml version="1.0" encoding="utf-8"?>
<!-- Generator: Adobe Illustrator 21.1.0, SVG Export Plug-In . SVG Version: 6.00 Build 0)  -->
<svg version="1.1" id="图层_1" xmlns="http://www.w3.org/2000/svg" xmlns:xlink="http://www.w3.org/1999/xlink" x="0px" y="0px"
	 viewBox="0 0 72 72" style="enable-background:new 0 0 72 72;" xml:space="preserve">
<style type="text/css">
	.st0{opacity:0.5;fill:#21539A;enable-background:new    ;}
	.st1{fill:#21539A;}
	.st2{fill:#FFFFFF;}
</style>
<title>洞鉴5.1图标</title>
<circle class="st0" cx="36" cy="36.3" r="25.1"/>
<path class="st1" d="M38.8,59.8c-0.9,0.1-1.9,0.2-2.9,0.2c-0.8,0-1.5,0.7-1.5,1.5c0,0,0,0,0,0c0,0.9,0.7,1.6,1.6,1.6c0,0,0,0,0,0
	c1,0,2.1-0.1,3.1-0.2c0.8,0,1.5-0.7,1.5-1.5s-0.7-1.5-1.5-1.5C39,59.8,38.9,59.8,38.8,59.8L38.8,59.8z"/>
<path class="st1" d="M61.1,34.8c-0.8,0-1.5,0.7-1.5,1.5l0,0c0,1-0.1,1.9-0.2,2.9c-0.1,0.8,0.5,1.6,1.3,1.7c0,0,0,0,0,0h0.2
	c0.8,0,1.4-0.6,1.5-1.3c0.1-1.1,0.2-2.1,0.2-3.2C62.6,35.5,61.9,34.8,61.1,34.8z"/>
<g>
	<path class="st1" d="M16.5,49.6c-0.4-0.7-1.3-1-2.1-0.6c-0.7,0.4-1,1.3-0.6,2.1c0,0.1,0.1,0.2,0.2,0.2c0.6,0.9,1.3,1.7,2,2.5
		c0.3,0.3,0.7,0.5,1.2,0.5c0.8,0,1.5-0.7,1.5-1.5c0-0.4-0.1-0.7-0.4-1C17.7,51.1,17,50.4,16.5,49.6z"/>
	<path class="st1" d="M18.5,16.2L18.5,16.2c-0.8,0.7-1.5,1.5-2.3,2.3c-0.5,0.7-0.3,1.6,0.4,2.1c0.6,0.4,1.3,0.3,1.9-0.1
		c0.6-0.7,1.3-1.4,2-2c0.6-0.6,0.7-1.5,0.1-2.1C20.1,15.7,19.1,15.6,18.5,16.2z"/>
	<path class="st1" d="M54,16.7c-0.8-0.7-1.6-1.4-2.5-2c-0.7-0.5-1.6-0.3-2.1,0.4c-0.5,0.7-0.3,1.6,0.4,2.1c0.8,0.6,1.5,1.2,2.2,1.8
		c0.6,0.6,1.6,0.5,2.2-0.1C54.7,18.2,54.6,17.2,54,16.7z"/>
	<path class="st1" d="M58.9,46.7C58.9,46.7,58.9,46.7,58.9,46.7c-0.8-0.4-1.7-0.1-2.1,0.6c-0.4,0.8-0.9,1.7-1.5,2.4
		c-0.5,0.7-0.3,1.6,0.4,2.1c0.7,0.5,1.6,0.3,2.1-0.4c0.6-0.9,1.2-1.8,1.7-2.8C60,48,59.7,47.1,58.9,46.7z"/>
	<path class="st1" d="M49.3,55.8L49.3,55.8c-0.8,0.5-1.6,1-2.5,1.4c-0.8,0.4-1.1,1.3-0.7,2.1c0.4,0.8,1.3,1.1,2.1,0.7
		c1-0.5,1.9-1.1,2.8-1.7c0.7-0.5,0.9-1.4,0.4-2.1S50,55.4,49.3,55.8z"/>
	<path class="st1" d="M37.4,54.1C37,54,36.5,54,36,54c-3.3,0-6.4,1.9-7.8,4.9c-0.2-0.2-0.4-0.4-0.7-0.5c-0.9-0.3-1.8-0.7-2.6-1.2
		c-0.7-0.4-1.7-0.1-2.1,0.6c-0.4,0.7-0.1,1.7,0.6,2.1c1,0.5,1.9,1,2.9,1.3c0.3,0.1,0.7,0.1,1,0c-0.8,4.7,2.4,9.2,7.1,10
		c4.7,0.8,9.2-2.4,10-7.1C45.4,59.4,42.2,54.9,37.4,54.1z M36,68.3L36,68.3c-3.1,0-5.7-2.5-5.7-5.6c0-3.1,2.5-5.7,5.7-5.7
		s5.7,2.5,5.7,5.7C41.6,65.8,39.1,68.3,36,68.3z"/>
	<path class="st1" d="M27.8,14.2l0.4-0.1c2.2,4.3,7.5,5.9,11.7,3.7c4.3-2.2,5.9-7.5,3.7-11.7c-1.5-2.8-4.4-4.6-7.6-4.7
		c-4.8,0-8.7,3.8-8.7,8.6c0,0.4,0,0.8,0.1,1.2l-0.5,0.2c-0.8,0.3-1.1,1.2-0.8,2C26.4,14,27.1,14.4,27.8,14.2z M30.4,10
		c0-3.1,2.5-5.7,5.7-5.7s5.7,2.5,5.7,5.7c0,0.1,0,0.2,0,0.3C41,10.2,40.3,10,39.6,10c-0.8-0.1-1.6,0.5-1.7,1.3
		c-0.1,0.8,0.4,1.6,1.3,1.7c0,0,0,0,0,0c0.5,0.1,1,0.2,1.5,0.2c-1.1,1.5-2.8,2.4-4.7,2.4v0c-1.9,0-3.7-1-4.8-2.6
		c0.5-0.4,0.7-1,0.5-1.5c-0.1-0.7-0.7-1.1-1.4-1.2C30.4,10.3,30.4,10.2,30.4,10z"/>
	<path class="st1" d="M70.1,32.2c-1.5-2.9-4.5-4.6-7.8-4.6c-0.4,0-0.8,0-1.2,0.1c0-0.1,0-0.3-0.1-0.4c-0.4-1-0.8-2-1.3-3
		c-0.4-0.8-1.3-1.1-2-0.7s-1.1,1.3-0.7,2c0.4,0.9,0.8,1.7,1.1,2.6c0,0.1,0.1,0.2,0.1,0.3c-4.2,2.2-5.9,7.5-3.6,11.7
		s7.5,5.9,11.7,3.6C70.7,41.7,72.3,36.4,70.1,32.2z M62.3,42C62.3,42,62.3,42,62.3,42c-3.2,0-5.7-2.6-5.6-5.7c0-3.1,2.6-5.6,5.7-5.6
		c3.1,0,5.6,2.5,5.6,5.6C68,39.5,65.5,42,62.3,42z"/>
	<path class="st1" d="M18.3,37.5c0-0.4,0.1-0.7,0.1-1.1l0,0c0-3.2-1.8-6.2-4.7-7.7c0.1-0.3,0.2-0.6,0.3-0.9c0.3-0.8-0.1-1.7-0.9-2
		c-0.8-0.3-1.7,0.1-2,0.9c-0.1,0.4-0.3,0.7-0.4,1.1c-4.8-0.6-9.1,2.7-9.7,7.5C0.5,40,3.8,44.4,8.6,45C13.3,45.6,17.7,42.2,18.3,37.5
		z M14.6,39.1c-0.4,0.8-1,1.4-1.7,1.9c-0.1-0.7-0.2-1.3-0.3-2c-0.2-0.8-1-1.3-1.8-1.1C10,38,9.6,38.6,9.6,39.3
		c0.1,0.9,0.2,1.8,0.4,2.7H9.7c-3.1,0-5.6-2.5-5.6-5.7c0-3.1,2.5-5.6,5.7-5.6c0.2,0,0.4,0,0.6,0c0.3,0.7,1.2,1.1,1.9,0.8
		c0.1,0,0.1-0.1,0.2-0.1C15.2,32.9,16.1,36.4,14.6,39.1z"/>
</g>
<g>
	<circle class="st2" cx="36" cy="62.6" r="5.7"/>
	<circle class="st2" cx="9.7" cy="36.3" r="5.6"/>
	<circle class="st2" cx="36" cy="10" r="5.7"/>
	<circle class="st2" cx="62.3" cy="36.4" r="5.6"/>
</g>
</svg>
