<svg id="图层_1" data-name="图层 1" xmlns="http://www.w3.org/2000/svg" viewBox="0 0 70 48.1"><defs><style>.cls-1{fill:#444;}</style></defs><title>最近上传</title><path class="cls-1" d="M69.2,37.3a15.9,15.9,0,0,0-4.9-5.4,14.9,14.9,0,0,0-6.8-2.3,23,23,0,0,0-4.1-9.3,22.5,22.5,0,0,0-7.6-6.5A20.6,20.6,0,0,0,36,11.4a21.2,21.2,0,0,0-11.5,3.4,22.7,22.7,0,0,0-7.9,8.9,16.3,16.3,0,0,0-7.9,3,16.5,16.5,0,0,0-5.6,6.4A17.6,17.6,0,0,0,1,41.6a18.8,18.8,0,0,0,2.3,9,17.4,17.4,0,0,0,6.4,6.5,16.1,16.1,0,0,0,8.8,2.5H56.4a13.5,13.5,0,0,0,7.3-2.1A13.8,13.8,0,0,0,69,52.1a15.4,15.4,0,0,0,2-7.6A14.8,14.8,0,0,0,69.2,37.3ZM41.9,38.5V50.6H30.1V38.5H21.4L36,23.5l14.6,15Z" transform="translate(-1 -11.4)"/></svg>