<?xml version="1.0" encoding="UTF-8"?>
<svg width="48px" height="43px" viewBox="0 0 48 43" version="1.1" xmlns="http://www.w3.org/2000/svg" xmlns:xlink="http://www.w3.org/1999/xlink">
    <!-- Generator: Sketch 50.2 (55047) - http://www.bohemiancoding.com/sketch -->
    <title>Combined Shape</title>
    <desc>Created with Sketch.</desc>
    <defs></defs>
    <g id="-" stroke="none" stroke-width="1" fill="none" fill-rule="evenodd">
        <g id="导航" transform="translate(-42.000000, -229.000000)" fill="#DAEBFD">
            <path d="M63.3333333,247.666667 L63.3333333,239.666667 L60.8666667,239.666667 C60.7562097,239.666667 60.6666667,239.577124 60.6666667,239.466667 L60.6666667,229.2 C60.6666667,229.089543 60.7562097,229 60.8666667,229 L71.1333333,229 C71.2437903,229 71.3333333,229.089543 71.3333333,229.2 L71.3333333,239.466667 C71.3333333,239.577124 71.2437903,239.666667 71.1333333,239.666667 L68.6666667,239.666667 L68.6666667,247.666667 L87.3333333,247.666667 L87.3333333,261 L89.8,261 C89.9104569,261 90,261.089543 90,261.2 L90,271.466667 C90,271.577124 89.9104569,271.666667 89.8,271.666667 L79.5333333,271.666667 C79.4228764,271.666667 79.3333333,271.577124 79.3333333,271.466667 L79.3333333,261.2 C79.3333333,261.089543 79.4228764,261 79.5333333,261 L82,261 L82,253 L68.6666667,253 L68.6666667,261 L71.1333333,261 C71.2437903,261 71.3333333,261.089543 71.3333333,261.2 L71.3333333,271.466667 C71.3333333,271.577124 71.2437903,271.666667 71.1333333,271.666667 L60.8666667,271.666667 C60.7562097,271.666667 60.6666667,271.577124 60.6666667,271.466667 L60.6666667,261.2 C60.6666667,261.089543 60.7562097,261 60.8666667,261 L63.3333333,261 L63.3333333,253 L50,253 L50,261 L52.4666667,261 C52.5771236,261 52.6666667,261.089543 52.6666667,261.2 L52.6666667,271.466667 C52.6666667,271.577124 52.5771236,271.666667 52.4666667,271.666667 L42.2,271.666667 C42.0895431,271.666667 42,271.577124 42,271.466667 L42,261.2 C42,261.089543 42.0895431,261 42.2,261 L44.6666667,261 L44.6666667,247.666667 L63.3333333,247.666667 Z" id="Combined-Shape"></path>
        </g>
    </g>
</svg>