<?xml version="1.0" encoding="UTF-8"?>
<svg width="16px" height="16px" viewBox="0 0 16 16" version="1.1" xmlns="http://www.w3.org/2000/svg" xmlns:xlink="http://www.w3.org/1999/xlink">
    <!-- Generator: Sketch 50.2 (55047) - http://www.bohemiancoding.com/sketch -->
    <title>Combined Shape</title>
    <desc>Created with Sketch.</desc>
    <defs></defs>
    <g id="Page-1" stroke="none" stroke-width="1" fill="none" fill-rule="evenodd">
        <g id="个人账户" transform="translate(-1311.000000, -20.000000)" fill="#DAEBFD">
            <path d="M1312,20 L1326,20 C1326.55228,20 1327,20.4477153 1327,21 L1327,35 C1327,35.5522847 1326.55228,36 1326,36 L1312,36 C1311.44772,36 1311,35.5522847 1311,35 L1311,21 C1311,20.4477153 1311.44772,20 1312,20 Z M1318.90693,30.5489289 C1318.9652,30.5182972 1319.0348,30.5182972 1319.09307,30.5489289 L1321.58023,31.8565081 C1321.61916,31.876976 1321.66376,31.8840389 1321.70711,31.8766035 C1321.81598,31.8579313 1321.88909,31.7545401 1321.87042,31.6456729 L1321.39542,28.8761755 C1321.38429,28.8112967 1321.4058,28.7450966 1321.45294,28.6991492 L1323.46509,26.7377803 C1323.49659,26.7070785 1323.51709,26.6668501 1323.52341,26.6233227 C1323.5393,26.5140137 1323.46356,26.4125251 1323.35425,26.3966416 L1320.57352,25.9925774 C1320.50837,25.9831117 1320.45206,25.9421978 1320.42293,25.8831691 L1319.17935,23.3633972 C1319.15988,23.3239546 1319.12796,23.2920291 1319.08851,23.2725631 C1318.98946,23.2236786 1318.86954,23.2643464 1318.82065,23.3633972 L1317.57707,25.8831691 C1317.54794,25.9421978 1317.49163,25.9831117 1317.42648,25.9925774 L1314.64575,26.3966416 C1314.60222,26.4029665 1314.56199,26.4234639 1314.53129,26.4549607 C1314.45419,26.5340574 1314.45581,26.66068 1314.53491,26.7377803 L1316.54706,28.6991492 C1316.5942,28.7450966 1316.61571,28.8112967 1316.60458,28.8761755 L1316.12958,31.6456729 C1316.12214,31.6890244 1316.12921,31.733618 1316.14967,31.7725501 C1316.20107,31.870319 1316.322,31.9079083 1316.41977,31.8565081 L1318.90693,30.5489289 Z" id="Combined-Shape"></path>
        </g>
    </g>
</svg>