<svg xmlns="http://www.w3.org/2000/svg" viewBox="0 0 36 36"><defs><style>.cls-1{fill:#435068;}</style></defs><title>库库碰撞</title><g id="Layer_2" data-name="Layer 2"><g id="图层_1" data-name="图层 1"><path class="cls-1" d="M13.5,12H24V1.5A1.51,1.51,0,0,0,22.5,0H1.5A1.51,1.51,0,0,0,0,1.5v21A1.51,1.51,0,0,0,1.5,24H12V13.5A1.51,1.51,0,0,1,13.5,12Z"/><path class="cls-1" d="M34.5,12H24V22.5A1.51,1.51,0,0,1,22.5,24H12V34.5A1.51,1.51,0,0,0,13.5,36h21A1.51,1.51,0,0,0,36,34.5v-21A1.51,1.51,0,0,0,34.5,12Z"/></g></g></svg>