<svg id="图层_1" data-name="图层 1" xmlns="http://www.w3.org/2000/svg" viewBox="0 0 48 48"><defs><style>.cls-1{fill:#21539a;}.cls-2{fill:#fff;}</style></defs><title>收藏</title><rect class="cls-1" width="48" height="48" rx="3.2" ry="3.2"/><path class="cls-2" d="M23.73,32.57a.57.57,0,0,1,.53,0l7.14,3.76a.57.57,0,0,0,.83-.61l-1.36-8a.57.57,0,0,1,.17-.51l5.78-5.63a.57.57,0,0,0-.32-1l-8-1.16a.57.57,0,0,1-.43-.31l-3.57-7.24a.57.57,0,0,0-1,0l-3.57,7.24a.57.57,0,0,1-.43.31l-8,1.16a.57.57,0,0,0-.32,1L17,27.26a.57.57,0,0,1,.17.51l-1.36,8a.57.57,0,0,0,.83.61Z"/></svg>