<svg xmlns="http://www.w3.org/2000/svg" viewBox="0 0 36 36"><defs><style>.cls-1{fill:#435068;}</style></defs><title>裁切</title><g id="Layer_2" data-name="Layer 2"><g id="图层_1" data-name="图层 1"><path class="cls-1" d="M9,27V9H4V31a1,1,0,0,0,1,1H27V27Z"/><path class="cls-1" d="M8,0H5A1,1,0,0,0,4,1V4H9V1A1,1,0,0,0,8,0Z"/><path class="cls-1" d="M32,27v5h3a1,1,0,0,0,1-1V28a1,1,0,0,0-1-1Z"/><path class="cls-1" d="M0,5V8A1,1,0,0,0,1,9H4V4H1A1,1,0,0,0,0,5Z"/><path class="cls-1" d="M28,36h3a1,1,0,0,0,1-1V32H27v3A1,1,0,0,0,28,36Z"/><path class="cls-1" d="M27,9V24a1,1,0,0,0,1,1h3a1,1,0,0,0,1-1V5a1,1,0,0,0-1-1H12a1,1,0,0,0-1,1V8a1,1,0,0,0,1,1Z"/><rect class="cls-1" x="4" y="4" width="5" height="5"/><rect class="cls-1" x="27" y="27" width="5" height="5"/></g></g></svg>