<svg id="图层_1" data-name="图层 1" xmlns="http://www.w3.org/2000/svg" xmlns:xlink="http://www.w3.org/1999/xlink" viewBox="0 0 72 72"><defs><style>.cls-1,.cls-2{fill:none;}.cls-2{clip-rule:evenodd;}.cls-3{fill:#435068;}.cls-4{clip-path:url(#clip-path);}.cls-5{clip-path:url(#clip-path-2);}</style><clipPath id="clip-path"><rect class="cls-1" x="-303.99" y="307" width="72" height="72"/></clipPath><clipPath id="clip-path-2"><path class="cls-2" d="M-274.93,329.71V325l-12.61,0,0,37.13h39.07V329.71Zm-1.66,29V353q.17,0,10.57,0a4.63,4.63,0,0,0,4.63-4.63,4.63,4.63,0,0,0-4.63-4.63l-4.93.13,2.14,2.14-2.84,2.84-5.27-5.41-2.84-2.84,2.84-2.84,5.27-5.27,2.84,2.84-2.42,2.42H-266a10.61,10.61,0,0,1,10.61,10.6A10.42,10.42,0,0,1-266,358.77Z"/></clipPath></defs><title>洞鉴5.1图标</title><path class="cls-3" d="M72,49.7H60.69V11.17H21.6V0H11.31V11.17H0V22.32H11.31V60.86H49.37V72H60.69V60.86H72Zm-50.4,0V22.32H49.37V49.7Z"/></svg>