<svg xmlns="http://www.w3.org/2000/svg" viewBox="0 0 36 28.35"><defs><style>.cls-1{fill:#435068;}</style></defs><title>底库管理</title><g id="Layer_2" data-name="Layer 2"><g id="图层_1" data-name="图层 1"><path class="cls-1" d="M21.53,22.22a8.62,8.62,0,0,1,8.62-8.62,8.52,8.52,0,0,1,3.08.58v-11H11.08V0H0V25.32H22.11A8.58,8.58,0,0,1,21.53,22.22Z"/><path class="cls-1" d="M35.89,21.73a1,1,0,1,1-.75-1.87,5.5,5.5,0,0,0-1.73-1.73,1,1,0,0,1-.93.66,1,1,0,0,1-1-1,1.06,1.06,0,0,1,.08-.4,5.6,5.6,0,0,0-1.09-.11,5.68,5.68,0,0,0-1.09.11.9.9,0,0,1,.08.4,1,1,0,0,1-1.94.35,5.5,5.5,0,0,0-1.73,1.73,1,1,0,0,1-.35,1.95,1.06,1.06,0,0,1-.4-.08,5.41,5.41,0,0,0,0,2.17,1.06,1.06,0,0,1,.4-.08,1,1,0,0,1,.35,1.95,5.57,5.57,0,0,0,1.73,1.72,1,1,0,0,1,1.94.36.85.85,0,0,1-.08.39,5.68,5.68,0,0,0,1.09.11,5.6,5.6,0,0,0,1.09-.11,1,1,0,0,1,.93-1.4,1,1,0,0,1,.93.65,5.57,5.57,0,0,0,1.73-1.72,1,1,0,1,1,.75-1.87,5.41,5.41,0,0,0,0-2.17Zm-5.43,4.1a3,3,0,1,1,3-3A3,3,0,0,1,30.46,25.83Z"/><circle class="cls-1" cx="30.46" cy="22.81" r="1.51"/></g></g></svg>