<svg id="图层_1" data-name="图层 1" xmlns="http://www.w3.org/2000/svg" viewBox="0 0 48 48"><defs><style>.cls-1{fill:#435068;}</style></defs><title>library_count</title><path class="cls-1" d="M40.61,29.72a6.15,6.15,0,1,1-6.15,6.15,6.16,6.16,0,0,1,6.15-6.15m0-1.23A7.38,7.38,0,1,0,48,35.87a7.38,7.38,0,0,0-7.38-7.38Z"/><circle class="cls-1" cx="36.8" cy="37.67" r="0.86"/><rect class="cls-1" x="36.59" y="35.65" width="3.31" height="0.67" rx="0.13" ry="0.13" transform="translate(-13.87 42.4) rotate(-50.27)"/><circle class="cls-1" cx="42.02" cy="36.66" r="0.86"/><rect class="cls-1" x="41.64" y="34.97" width="3.31" height="0.67" rx="0.13" ry="0.13" transform="translate(-11.53 46.04) rotate(-50.27)"/><circle class="cls-1" cx="39.49" cy="34.49" r="0.86"/><circle class="cls-1" cx="44.37" cy="34.02" r="0.86"/><rect class="cls-1" x="39.19" y="35.33" width="3.31" height="0.67" rx="0.13" ry="0.13" transform="translate(49.46 89.2) rotate(-140.27)"/><path class="cls-1" d="M29.19,36.91A11.67,11.67,0,0,1,45.07,26V11.06H15V6.77H0V41.1H30A11.64,11.64,0,0,1,29.19,36.91Z"/></svg>