<svg xmlns="http://www.w3.org/2000/svg" viewBox="0 0 34 34"><defs><style>.cls-1{fill:#435068;}</style></defs><title>日期</title><g id="Layer_2" data-name="Layer 2"><g id="图层_1" data-name="图层 1"><path class="cls-1" d="M33,4H30a1,1,0,0,0-1,1V9H20V5a1,1,0,0,0-1-1H15a1,1,0,0,0-1,1V9H5V5A1,1,0,0,0,4,4H1A1,1,0,0,0,0,5V33a1,1,0,0,0,1,1H33a1,1,0,0,0,1-1V5A1,1,0,0,0,33,4ZM29,29H5V15H29Z"/><rect class="cls-1" x="7" width="5" height="8" rx="1" ry="1"/><rect class="cls-1" x="22" width="5" height="8" rx="1" ry="1"/><rect class="cls-1" x="21" y="21" width="6" height="6"/></g></g></svg>