<svg xmlns="http://www.w3.org/2000/svg" viewBox="0 0 34 34"><defs><style>.cls-1{fill:#435068;}</style></defs><title>Asset 4</title><g id="Layer_2" data-name="Layer 2"><g id="图层_1" data-name="图层 1"><path class="cls-1" d="M33.92,15.38c0-.13,0-.26-.05-.38,0-.37-.09-.73-.16-1.09s-.15-.73-.24-1.09l-.09-.36A17,17,0,0,0,18.29,0V.07A17,17,0,0,0,.05,18.28H0a2.6,2.6,0,0,0,0,.26c0,.23.06.46.09.7s.07.58.12.86.12.56.19.84.11.47.17.7c0,.08,0,.17.07.25h0A16.95,16.95,0,0,0,24.25,32.35l0,.07A17.05,17.05,0,0,0,33.92,15.38ZM24.31,22l-2.46,2.46-5-4.95L12,24.41,9.49,22,14.44,17,9.49,12.05,12,9.59l4.95,4.95,5-4.95,2.46,2.46L19.36,17Z"/></g></g></svg>