<svg xmlns="http://www.w3.org/2000/svg" viewBox="0 0 16 13"><defs><style>.cls-1{fill:#fff;}</style></defs><title>资源 2</title><g id="图层_2" data-name="图层 2"><g id="图层_1-2" data-name="图层 1"><polygon class="cls-1" points="12 2 8 2 8 0 4 0 4 2 0 2 0 4 12 4 12 2"/><polygon class="cls-1" points="9 11 3 11 3 5 1 5 1 13 2 13 3 13 9 13 10 13 11 13 11 5 9 5 9 11"/><rect class="cls-1" x="5" y="5" width="2" height="4"/><rect class="cls-1" x="12" y="10" width="4" height="1"/><rect class="cls-1" x="12" y="8" width="4" height="1"/><rect class="cls-1" x="12" y="12" width="4" height="1"/></g></g></svg>