<svg xmlns="http://www.w3.org/2000/svg" viewBox="0 0 14.81 12.77"><defs><style>.cls-1{fill:#f05353;}</style></defs><title>部门人员</title><g id="图层_2" data-name="图层 2"><g id="图层_69" data-name="图层 69"><path class="cls-1" d="M14.5,11.22h-.31v-.94H12.63V9.66h.31a.31.31,0,0,0,.32-.31V8.42a.32.32,0,0,0-.32-.32H12a.31.31,0,0,0-.31.32v.93a.31.31,0,0,0,.31.31h.31v.62H10.77v.94h-.31a.31.31,0,0,0-.32.31v.93a.31.31,0,0,0,.32.31h.93a.31.31,0,0,0,.31-.31v-.93a.31.31,0,0,0-.31-.31h-.31v-.63h2.8v.63h-.31a.31.31,0,0,0-.31.31v.93a.31.31,0,0,0,.31.31h.93a.31.31,0,0,0,.31-.31v-.93A.31.31,0,0,0,14.5,11.22Z"/><path class="cls-1" d="M9.18,11a3.07,3.07,0,0,1,.2-1.06A6.16,6.16,0,0,1,9,9.09L8.94,8l.15-.4.39-1.32.15,0,.19-.15.25-.93L10,4.76l-.24-.14.34-1.23s-.2-1.57-1.33-2A3.07,3.07,0,0,0,6.14,0l.3.34L5.89.2,6,.39,5.6.29,5.16.54,4.91.93l-.64.45-.68,1,.19,0-.2.33a1.37,1.37,0,0,0-.09.55l.15,0-.1.46.1-.06,0,.59.15.59-.24.09-.15.35.29,1.08.25.2h.2l.34,1.12.24.5,0,1.08s-.31,1.27-1.22,1.52-1.52.56-2.56.79a1.14,1.14,0,0,0-1,1.32H9.77A3.09,3.09,0,0,1,9.18,11Z"/></g></g></svg>