<svg xmlns="http://www.w3.org/2000/svg" viewBox="0 0 14 14"><defs><style>.cls-1{fill:#f05353;}</style></defs><title>资源 38</title><g id="图层_2" data-name="图层 2"><g id="图层_67" data-name="图层 67"><path class="cls-1" d="M13.07,9.33h-.94V6.53H7.47V4.67H8.4a.94.94,0,0,0,.93-.94V.93A.93.93,0,0,0,8.4,0H5.6a.93.93,0,0,0-.93.93v2.8a.94.94,0,0,0,.93.94h.93V6.53H1.87v2.8H.93a.94.94,0,0,0-.93.94v2.8A.93.93,0,0,0,.93,14h2.8a.94.94,0,0,0,.94-.93v-2.8a.94.94,0,0,0-.94-.94H2.8V7.47h8.4V9.33h-.93a.94.94,0,0,0-.94.94v2.8a.94.94,0,0,0,.94.93h2.8a.93.93,0,0,0,.93-.93v-2.8A.94.94,0,0,0,13.07,9.33Zm-9.34.94v2.8H.93v-2.8Zm9.34,2.8h-2.8v-2.8h2.8Z"/></g></g></svg>