<svg id="图层_1" data-name="图层 1" xmlns="http://www.w3.org/2000/svg" viewBox="0 0 21 21.02"><defs><style>.cls-1{fill:#fff;}</style></defs><title>statistics</title><path class="cls-1" d="M7.29,5A3.57,3.57,0,0,0,.16,5a3.54,3.54,0,0,0,1,2.47A9.44,9.44,0,0,0,5.37,17.73l.72-2.93A6.65,6.65,0,0,1,3.79,8.6,3.56,3.56,0,0,0,7.29,5Zm3.06-2A6.69,6.69,0,0,1,13.73,4a3.56,3.56,0,1,0,2-2,9.48,9.48,0,0,0-9.22-.89L8.16,3.42A6.5,6.5,0,0,1,10.35,3ZM17,10a6.63,6.63,0,0,1-3.54,5.58,3.56,3.56,0,1,0,.11,3A9.47,9.47,0,0,0,19.81,9.7c0-.21,0-.42,0-.63Zm0,0"/></svg>