<?xml version="1.0" encoding="UTF-8"?>
<svg width="20px" height="20px" viewBox="0 0 20 20" version="1.1" xmlns="http://www.w3.org/2000/svg" xmlns:xlink="http://www.w3.org/1999/xlink">
    <!-- Generator: Sketch 50.2 (55047) - http://www.bohemiancoding.com/sketch -->
    <title>Combined Shape</title>
    <desc>Created with Sketch.</desc>
    <defs></defs>
    <g id="Page-1" stroke="none" stroke-width="1" fill="none" fill-rule="evenodd">
        <g id="4-报警详情" transform="translate(-456.000000, -627.000000)" fill="#FFFFFF">
            <path d="M463.582302,632.635551 C462.972606,632.194644 462.615015,631.658305 462.615015,631.08 C462.615015,629.57856 465.025406,627 468.00016,627 C470.973837,627 473.385305,629.57856 473.385305,631.08 C473.385305,631.744326 472.91321,632.353273 472.129206,632.825792 C471.921476,633.117406 471.26055,633.368553 470.338854,633.53062 C469.631529,633.703226 468.838169,633.8 468.00016,633.8 C467.331141,633.8 466.690667,633.738366 466.099737,633.625741 C464.621759,633.453931 463.592587,633.07586 463.582302,632.635551 Z M470.4004,639.89968 L470.4004,638.29944 L475.1996,639.89944 L476.00016,639.89968 L476.00016,646.4 L463.00016,646.4 L463.00016,639.89944 L464.000516,639.899564 L465.60016,638.3 L466.40016,637.5 L468,640.90008 L469.60016,637.5 L470.40016,638.3 L470.40016,639.89968 Z M468.000352,644.3 L467.999985,644.3 L468.00016,644.30048 L468.000352,644.3 Z M466.923131,629.191111 C466.923131,629.796953 467.40564,630.286667 468.00016,630.286667 C468.59468,630.286667 469.077189,629.796953 469.077189,629.191111 C469.077189,628.586364 468.59468,628.095556 468.00016,628.095556 C467.40564,628.095556 466.923131,628.586364 466.923131,629.191111 Z M456,633 L462.00016,633 L462.00016,635 L456,635 L456,633 Z M457,637 L462,637 L462,638.9996 L457,639 L457,637 Z M458,641 L462,641 L462,642.9996 L458,643 L458,641 Z" id="Combined-Shape"></path>
        </g>
    </g>
</svg>