<svg id="图层_1" data-name="图层 1" xmlns="http://www.w3.org/2000/svg" viewBox="0 0 48 48"><defs><style>.cls-1{fill:#435068;}</style></defs><title>档案检索</title><rect class="cls-1" x="14.22" y="5.76" width="14.22" height="4.74"/><path class="cls-1" d="M29.63,32.43c0-.2,0-.4,0-.59H24.89a1.19,1.19,0,0,1,0-2.37h5.22a9.45,9.45,0,0,1,1.16-2.37H24.89a1.19,1.19,0,0,1,0-2.37H33.6a9.44,9.44,0,0,1,9.07-1.08V12.55A4.36,4.36,0,0,0,38.4,8.13H30.82v4.74h-19V8.13H4.27A4.36,4.36,0,0,0,0,12.55V36.89a4.36,4.36,0,0,0,4.27,4.43H35.84A9.48,9.48,0,0,1,29.63,32.43ZM24.89,20H36.74a1.19,1.19,0,0,1,0,2.37H24.89a1.19,1.19,0,0,1,0-2.37ZM4.23,34.34H3.91a1.59,1.59,0,0,1,1.4-1.83c1.4-.31,2.26-.75,3.46-1.09s1.66-2.11,1.66-2.11l-.07-1.49L10,27.13l-.47-1.56H9.3L9,25.3l-.4-1.49.2-.48.33-.14-.2-.82-.07-.82-.13.09L8.84,21l-.2.07c0-.65.13-.77.13-.77L9,19.86l-.27.07.93-1.36.86-.61.33-.54.6-.34.53.14-.13-.27.73.2-.4-.48a4.17,4.17,0,0,1,3.59,1.9c1.53.61,1.8,2.79,1.8,2.79l-.47,1.7.33.2.07.61-.33,1.29-.27.2-.2-.07-.53,1.83-.2.54.07,1.56s.71,1.92,1.6,2.24c1.13.41,2.73.68,4.06,1.22a2.33,2.33,0,0,1,1.13,1.63Z"/><path class="cls-1" d="M47.73,39.3l-3.47-3.36A5.83,5.83,0,1,0,43,37.26l3.47,3.36a.51.51,0,0,0,.72,0l.57-.59A.51.51,0,0,0,47.73,39.3ZM36.56,35.65a4.21,4.21,0,1,1,6-.1A4.21,4.21,0,0,1,36.56,35.65Z"/></svg>