<svg id="图层_1" data-name="图层 1" xmlns="http://www.w3.org/2000/svg" xmlns:xlink="http://www.w3.org/1999/xlink" viewBox="0 0 72 72"><defs><style>.cls-1,.cls-2{fill:none;}.cls-2{clip-rule:evenodd;}.cls-3{fill:#435068;}.cls-4{clip-path:url(#clip-path);}.cls-5{clip-path:url(#clip-path-2);}</style><clipPath id="clip-path"><rect class="cls-1" x="0.01" y="307" width="72" height="72"/></clipPath><clipPath id="clip-path-2"><path class="cls-2" d="M29.07,329.71V325l-12.61,0,0,37.13H55.55V329.71Zm-1.66,29V353q.17,0,10.57,0a4.63,4.63,0,0,0,0-9.25l-4.93.13L35.2,346l-2.84,2.84-5.27-5.41-2.84-2.84,2.84-2.84,5.27-5.27,2.84,2.84-2.42,2.42H38a10.61,10.61,0,0,1,10.61,10.6A10.42,10.42,0,0,1,38,358.77Z"/></clipPath></defs><title>洞鉴5.1图标</title><path class="cls-3" d="M24,16l0-7H1V63H71V16ZM21.15,53a2.71,2.71,0,0,1,2.33-3c2.22-.49,3.58-1.18,5.48-1.72s2.63-3.34,2.63-3.34l-.11-2.37L31,41.48,30.22,39H29.8l-.53-.43-.63-2.37.32-.75.53-.22-.32-1.29-.11-1.29-.21.14.21-1-.32.11c.06-1,.2-1.21.2-1.21l.43-.72-.42.11,1.48-2.15,1.37-1,.53-.86.95-.54.84.22-.21-.43,1.16.32-.63-.75a6.61,6.61,0,0,1,5.69,3c2.42,1,2.84,4.41,2.84,4.41L42.24,35l.53.32.11,1-.53,2-.42.32-.32-.11-.84,2.91-.32.86.11,2.48s1.12,3,2.53,3.55c1.79.65,4.32,1.08,6.43,1.94,1.44.59,1.68,2.7,1.68,2.7Z"/></svg>