<?xml version="1.0" encoding="utf-8"?>
<!-- Generator: Adobe Illustrator 21.1.0, SVG Export Plug-In . SVG Version: 6.00 Build 0)  -->
<svg version="1.1" id="图层_1" xmlns="http://www.w3.org/2000/svg" xmlns:xlink="http://www.w3.org/1999/xlink" x="0px" y="0px"
	 viewBox="0 0 72 72" style="enable-background:new 0 0 72 72;" xml:space="preserve">
<style type="text/css">
	.st0{fill:#FFFFFF;}
	.st1{fill:#435068;}
</style>
<title>洞鉴5.1图标</title>
<path class="st0" d="M36.1,67.7C18.6,67.7,4.4,53.5,4.4,36S18.6,4.3,36.1,4.3S67.8,18.5,67.8,36v0C67.7,53.5,53.6,67.7,36.1,67.7z"
	/>
<path class="st1" d="M36.1,8.1c15.4,0,27.9,12.5,27.9,27.9S51.5,63.9,36.1,63.9S8.2,51.4,8.2,36C8.2,20.6,20.7,8.1,36.1,8.1
	 M36.1,0.5C16.5,0.5,0.6,16.4,0.6,36s15.9,35.5,35.5,35.5S71.6,55.6,71.6,36l0,0C71.6,16.4,55.7,0.5,36.1,0.5z"/>
</svg>
