<svg id="图层_1" data-name="图层 1" xmlns="http://www.w3.org/2000/svg" viewBox="0 0 20 20"><defs><style>.cls-1{fill:#fff;}</style></defs><title>dual_network</title><path class="cls-1" d="M8.19,3.74a8.13,8.13,0,1,0,8.13,8.13A8.16,8.16,0,0,0,8.19,3.74ZM5.71,5.09A8,8,0,0,0,4.62,6.94a4.83,4.83,0,0,1-1-.68A7.26,7.26,0,0,1,5.71,5.09ZM3,6.9a5.6,5.6,0,0,0,1.31.9,12.88,12.88,0,0,0-.59,3.61H1A7.29,7.29,0,0,1,3,6.9ZM1,12.32H3.72a14.74,14.74,0,0,0,.59,3.61,5.61,5.61,0,0,0-1.31.9,6.84,6.84,0,0,1-2-4.52Zm2.62,5.15a9.46,9.46,0,0,1,1-.68,8,8,0,0,0,1.08,1.85,7.26,7.26,0,0,1-2.08-1.17ZM7.74,19c-.95-.23-1.76-1.22-2.35-2.62a7.75,7.75,0,0,1,2.35-.45Zm0-4a8,8,0,0,0-2.62.54,14,14,0,0,1-.5-3.25H7.78V15h0Zm0-3.61H4.58a14,14,0,0,1,.5-3.25,8.19,8.19,0,0,0,2.62.54v2.71h0Zm0-3.61a9.42,9.42,0,0,1-2.35-.45A4.17,4.17,0,0,1,7.74,4.73Zm5-1.54a9.47,9.47,0,0,1-1,.68,8,8,0,0,0-1.08-1.85,7.26,7.26,0,0,1,2.08,1.17ZM8.64,4.73C9.59,5,10.4,6,11,7.35a7.75,7.75,0,0,1-2.35.45Zm0,4a7.94,7.94,0,0,0,2.62-.54,14,14,0,0,1,.5,3.25H8.6V8.71Zm0,3.61h3.16a14,14,0,0,1-.5,3.25A8.2,8.2,0,0,0,8.69,15V12.32h0Zm0,6.69V15.93a9.42,9.42,0,0,1,2.35.45c-.59,1.45-1.4,2.39-2.35,2.62Zm2-.36a8,8,0,0,0,1.08-1.85,4.84,4.84,0,0,1,1,.68,7.27,7.27,0,0,1-2.08,1.17Zm2.76-1.81a5.6,5.6,0,0,0-1.31-.9,12.88,12.88,0,0,0,.59-3.61h2.71a7.3,7.3,0,0,1-2,4.52Zm-.72-5.42a14.74,14.74,0,0,0-.59-3.61,5.6,5.6,0,0,0,1.31-.9,7.06,7.06,0,0,1,2,4.52ZM11.81.12A8,8,0,0,0,5.39,3.29a8.42,8.42,0,0,1,2.12-.41c-.09,0-.18-.14-.27-.18A7.26,7.26,0,0,1,9.32,1.52a7.75,7.75,0,0,0-.86,1.36A6.74,6.74,0,0,1,9.41,3a3.3,3.3,0,0,1,2-1.81v2.3a5.49,5.49,0,0,1,.9.41V1.16c.95.23,1.76,1.22,2.35,2.62a5.58,5.58,0,0,1-1.76.41,8.49,8.49,0,0,1,1,.72,7,7,0,0,0,1-.32,10.5,10.5,0,0,1,.36,1.72,8.15,8.15,0,0,1,1.31,2.39H19a7,7,0,0,1-1.9,4.38,9,9,0,0,1-.36,1.58A8.12,8.12,0,0,0,11.81.12Zm2.48,1.36a7.26,7.26,0,0,1,2.08,1.17,9.46,9.46,0,0,1-1,.68,5.73,5.73,0,0,0-1.08-1.85Zm2,6.32a14.75,14.75,0,0,0-.59-3.61A5.6,5.6,0,0,0,17,3.29,7.06,7.06,0,0,1,19,7.8Zm0,0"/></svg>