<svg xmlns="http://www.w3.org/2000/svg" viewBox="0 0 34 34.08"><defs><style>.cls-1{fill:#435068;}</style></defs><title>编辑</title><g id="Layer_2" data-name="Layer 2"><g id="图层_1" data-name="图层 1"><path class="cls-1" d="M29,19.08v10H5v-24H16a1,1,0,0,0,1-1v-3a1,1,0,0,0-1-1H2a2,2,0,0,0-2,2v30a2,2,0,0,0,2,2H32a2,2,0,0,0,2-2v-13a1,1,0,0,0-1-1H30A1,1,0,0,0,29,19.08Z"/><path class="cls-1" d="M29.88,7.36,15.71,21.53l-5.55,2.33a.3.3,0,0,1-.35-.36L12.18,18,26.34,3.83a1,1,0,0,1,1.42,0L29.88,6A1,1,0,0,1,29.88,7.36Z"/><rect class="cls-1" x="28.94" y="0.27" width="4" height="5" rx="1" ry="1" transform="translate(7.1 22.69) rotate(-45)"/></g></g></svg>