<svg xmlns="http://www.w3.org/2000/svg" viewBox="0 0 36 32.94"><defs><style>.cls-1{fill:#435068;}</style></defs><title>单人检索</title><g id="Layer_2" data-name="Layer 2"><g id="图层_1" data-name="图层 1"><path class="cls-1" d="M20.72,26a8.68,8.68,0,0,1,1.19-4.38l-.08-1.82.36-1,1-3.3.36.12.48-.37.6-2.33-.12-1.1-.6-.37.84-3.06s-.48-3.92-3.24-5A7.52,7.52,0,0,0,15,0l.72.86L14.4.49l.24.49-1-.25-1.08.62-.6,1-1.56,1.1L8.76,5.88l.48-.12-.49.82s-.16.2-.23,1.38l.36-.12L8.64,9l.24-.16L9,10.29l.36,1.47-.6.24-.36.86.72,2.7.6.49h.48L11,18.86l.6,1.23.12,2.69s-.78,3.17-3,3.8-3.71,1.41-6.24,2C.84,28.91,0,29.77,0,31.85H22.94A8.75,8.75,0,0,1,20.72,26Z"/><path class="cls-1" d="M25.16,22.42a5,5,0,1,0,7.07-.11A5,5,0,0,0,25.16,22.42Zm6.19,6a3.62,3.62,0,1,1-.08-5.12A3.63,3.63,0,0,1,31.35,28.42Z"/><rect class="cls-1" x="32.72" y="27.61" width="1.58" height="5.78" rx="0.33" ry="0.33" transform="translate(-11.71 33.36) rotate(-45.93)"/></g></g></svg>