<svg id="图层_1" data-name="图层 1" xmlns="http://www.w3.org/2000/svg" viewBox="0 0 72 72"><defs><style>.cls-1{fill:#94a9c9;isolation:isolate;}.cls-2{fill:#21539a;}.cls-3{fill:#fff;}</style></defs><title>未标题-1</title><rect class="cls-1" x="10.21" y="10.16" width="51.6" height="51.6"/><path class="cls-2" d="M23.11,60.16h-3.2a1.27,1.27,0,0,0-.6.1,9.22,9.22,0,1,0,0,3,1.27,1.27,0,0,0,.6.1h3.2a1.6,1.6,0,0,0,0-3.2Z"/><path class="cls-2" d="M26.31,8.56h-3.2a1.6,1.6,0,0,0,0,3.2h3.2a1.58,1.58,0,0,0,1.6-1.6A1.64,1.64,0,0,0,26.31,8.56Z"/><path class="cls-2" d="M11.81,32.76a1.6,1.6,0,1,0-3.2,0V36a1.6,1.6,0,0,0,3.2,0Z"/><path class="cls-2" d="M10.21,44.06a1.58,1.58,0,0,0-1.6,1.6v3.2a1.6,1.6,0,1,0,3.2,0v-3.2A1.58,1.58,0,0,0,10.21,44.06Z"/><path class="cls-2" d="M61.81,34.36a1.58,1.58,0,0,0-1.6,1.6v3.2a1.6,1.6,0,1,0,3.2,0V36A1.64,1.64,0,0,0,61.81,34.36Z"/><path class="cls-2" d="M63.41,23.06a1.6,1.6,0,0,0-3.2,0v3.2a1.6,1.6,0,0,0,3.2,0Z"/><path class="cls-2" d="M48.91,60.16h-3.2a1.6,1.6,0,0,0,0,3.2h3.2a1.58,1.58,0,0,0,1.6-1.6A1.64,1.64,0,0,0,48.91,60.16Z"/><path class="cls-2" d="M36,60.16h-3.2a1.6,1.6,0,1,0,0,3.2H36a1.58,1.58,0,0,0,1.6-1.6A1.64,1.64,0,0,0,36,60.16Z"/><path class="cls-2" d="M39.21,8.56H36a1.6,1.6,0,1,0,0,3.2h3.2a1.58,1.58,0,0,0,1.6-1.6A1.64,1.64,0,0,0,39.21,8.56Z"/><path class="cls-2" d="M8.71,19.26a1.27,1.27,0,0,0-.1.6v3.2a1.6,1.6,0,0,0,3.2,0v-3.2a1.27,1.27,0,0,0-.1-.6,9.22,9.22,0,1,0-3-18.2A9.39,9.39,0,0,0,1,11.66,9.24,9.24,0,0,0,8.71,19.26ZM5.91,6a6.1,6.1,0,0,1,8.5,0,6,6,0,0,1,0,8.5,5.92,5.92,0,0,1-8.5,0A6.1,6.1,0,0,1,5.91,6Z"/><path class="cls-2" d="M55.31,16.76a9.3,9.3,0,0,0,13.1.1,9.42,9.42,0,0,0,0-13.2,9.26,9.26,0,0,0-15.7,5.1,1.42,1.42,0,0,0-.6-.2h-3.2a1.6,1.6,0,0,0,0,3.2h3.2a1.27,1.27,0,0,0,.6-.1A9.28,9.28,0,0,0,55.31,16.76ZM57.51,6a6,6,0,1,1,0,8.5A6.1,6.1,0,0,1,57.51,6Z"/><path class="cls-2" d="M63.31,52.66a1.27,1.27,0,0,0,.1-.6v-3.2a1.6,1.6,0,0,0-3.2,0v3.2a1.27,1.27,0,0,0,.1.6,9.19,9.19,0,0,0-7.6,10.6A9.39,9.39,0,0,0,63.31,71a9.19,9.19,0,0,0,7.6-10.6A9.35,9.35,0,0,0,63.31,52.66ZM66,66.06a6,6,0,0,1-8.5,0,6,6,0,0,1,8.5-8.5A6.1,6.1,0,0,1,66,66.06Z"/><circle class="cls-3" cx="10.21" cy="10.24" r="6.01" transform="translate(-4.25 10.22) rotate(-45)"/><circle class="cls-3" cx="61.79" cy="10.19" r="6.04" transform="translate(10.89 46.68) rotate(-45)"/><circle class="cls-3" cx="10.22" cy="61.75" r="6" transform="translate(-40.67 25.32) rotate(-45)"/><circle class="cls-3" cx="61.71" cy="61.8" r="6.04" transform="translate(-25.62 61.74) rotate(-45)"/></svg>