<svg xmlns="http://www.w3.org/2000/svg" viewBox="0 0 38 27"><defs><style>.cls-1{fill:#435068;}</style></defs><title>频次分析_1</title><g id="Layer_2" data-name="Layer 2"><g id="图层_1" data-name="图层 1"><path class="cls-1" d="M14.25,4.6a1,1,0,0,1,1.38.12l5.74,6.56a1,1,0,0,0,1.38.12L27,8h5V1a1,1,0,0,0-1-1H7A1,1,0,0,0,6,1V8h4Z"/><path class="cls-1" d="M22.75,23.38a1,1,0,0,1-1.39-.11L15.61,16.7a1,1,0,0,0-1.35-.14L11,19H6v7a1,1,0,0,0,1,1H31a1,1,0,0,0,1-1V19H28Z"/><path class="cls-1" d="M37,11H27l-4.25,3.4a1,1,0,0,1-1.38-.12L15.63,7.72a1,1,0,0,0-1.38-.12L10,11H1a1,1,0,0,0-1,1v3a1,1,0,0,0,1,1H11l3.26-2.44a1,1,0,0,1,1.35.14l5.75,6.57a1,1,0,0,0,1.39.11L28,16h9a1,1,0,0,0,1-1V12A1,1,0,0,0,37,11Z"/></g></g></svg>