<svg id="图层_1" data-name="图层 1" xmlns="http://www.w3.org/2000/svg" viewBox="0 0 72 72"><defs><style>.cls-1{fill:#435068;}.cls-2{fill:#fff;}</style></defs><title>未标题-4</title><polygon class="cls-1" points="23.66 15.6 72 15.6 72 63.94 0 63.94 0 8.4 23.66 8.4 23.66 15.6"/><polygon class="cls-2" points="7.2 53.87 12.5 53.87 12.5 44 20.68 44 20.68 39.71 12.5 39.71 12.5 33.31 21.39 33.31 21.39 29 7.2 29 7.2 53.87"/><polygon class="cls-2" points="23.66 33.34 30.75 33.34 30.75 53.87 36.07 53.87 36.07 33.31 43.17 33.31 43.17 29 23.66 29 23.66 33.34"/><path class="cls-2" d="M55.12,29H46.57v24.9h5.3V45.19h2.73a10.29,10.29,0,0,0,7-2.21,7.54,7.54,0,0,0,2.8-6.13Q64.41,29,55.12,29Zm-.94,12.19h-2.3V33.09h2.35q4.63,0,4.63,4T54.18,41.16Z"/></svg>