<?xml version="1.0" encoding="UTF-8"?>
<svg width="14px" height="13px" viewBox="0 0 14 13" version="1.1" xmlns="http://www.w3.org/2000/svg" xmlns:xlink="http://www.w3.org/1999/xlink">
    <!-- Generator: Sketch 50.2 (55047) - http://www.bohemiancoding.com/sketch -->
    <title>分屏</title>
    <desc>Created with Sketch.</desc>
    <defs></defs>
    <g id="Page-1" stroke="none" stroke-width="1" fill="none" fill-rule="evenodd">
        <g id="2.3-报警预定" transform="translate(-1020.000000, -130.000000)" fill="#D2D6DE">
            <g id="视频悬着" transform="translate(111.000000, 116.000000)">
                <g id="分屏" transform="translate(909.000000, 14.000000)">
                    <path d="M1.86875233,9.83194348 L5.20406298,6.49663282 L6.52399564,7.81656548 L3.21534165,11.1252195 L5.63545624,11.1252195 L5.63545624,12.9678534 L0.642383613,12.9678534 C0.467187206,12.9678534 0.316325896,12.904982 0.189795158,12.7792373 C0.0632644201,12.6534927 -4.54747351e-13,12.5035686 -4.54747351e-13,12.3294605 L-4.53859172e-13,7.42544269 L1.86875233,7.42544269 L1.86875233,9.83194348 Z M11.2010591,3.13590992 L7.86574847,6.47122058 L6.54581581,5.15128792 L9.8544698,1.84263393 L7.43435521,1.84263393 L7.43435521,-8.8817842e-16 L12.4274278,3.34771662e-16 C12.6026242,3.77682406e-16 12.7534856,0.0628713951 12.8800163,0.188616071 C13.006547,0.314360748 13.0698115,0.464284844 13.0698115,0.638392857 L13.0698115,5.54241071 L11.2010591,5.54241071 L11.2010591,3.13590992 Z" id="Combined-Shape"></path>
                </g>
            </g>
        </g>
    </g>
</svg>