<svg xmlns="http://www.w3.org/2000/svg" viewBox="0 0 33.85 33.85"><defs><style>.cls-1{fill:#435068;}</style></defs><title>全屏</title><g id="Layer_2" data-name="Layer 2"><g id="图层_1" data-name="图层 1"><path class="cls-1" d="M11.4,1.71A1,1,0,0,0,10.69,0H1A1,1,0,0,0,0,1v9.69a1,1,0,0,0,1.71.71L4.94,8.17l5.68,5.68,3.23-3.23L8.17,4.94Z"/><path class="cls-1" d="M32.85,0H23.16a1,1,0,0,0-.71,1.71l3.23,3.23L20,10.62l3.23,3.23,5.68-5.68,3.23,3.23a1,1,0,0,0,1.71-.71V1A1,1,0,0,0,32.85,0Z"/><path class="cls-1" d="M10.62,20,4.94,25.68,1.71,22.45A1,1,0,0,0,0,23.16v9.69a1,1,0,0,0,1,1h9.69a1,1,0,0,0,.71-1.71L8.17,28.91l5.68-5.68Z"/><path class="cls-1" d="M32.14,22.45l-3.23,3.23L23.23,20,20,23.23l5.68,5.68-3.23,3.23a1,1,0,0,0,.71,1.71h9.69a1,1,0,0,0,1-1V23.16A1,1,0,0,0,32.14,22.45Z"/></g></g></svg>