<svg xmlns="http://www.w3.org/2000/svg" viewBox="0 0 31.72 50"><defs><style>.cls-1{fill:#435068;}</style></defs><title>资源 1</title><g id="图层_2" data-name="图层 2"><g id="图层_6" data-name="图层 6"><path class="cls-1" d="M12.44,43.13V50h6.88V43.13ZM30.21,19.35a12,12,0,0,0,1.51-5.94,12.41,12.41,0,0,0-4.29-9.49Q23.14,0,15.93,0,9.12,0,5,3.66T0,14.18l6.2.74Q7,9.79,9.59,7.38A9.07,9.07,0,0,1,16,5a9.3,9.3,0,0,1,6.74,2.67,8.39,8.39,0,0,1,2.75,6.19,7,7,0,0,1-.94,3.58,20.36,20.36,0,0,1-4.07,4.41A47,47,0,0,0,16.16,26,14,14,0,0,0,13.78,30a16.86,16.86,0,0,0-1,6.13c0,.41,0,1,0,1.81h5.8a24.38,24.38,0,0,1,.5-5.23,8.53,8.53,0,0,1,1.35-2.85A29.58,29.58,0,0,1,24.31,26a28.1,28.1,0,0,0,5.9-6.61Z"/></g></g></svg>