<?xml version="1.0" encoding="utf-8"?>
<!-- Generator: Adobe Illustrator 21.1.0, SVG Export Plug-In . SVG Version: 6.00 Build 0)  -->
<svg version="1.1" id="图层_1" xmlns="http://www.w3.org/2000/svg" xmlns:xlink="http://www.w3.org/1999/xlink" x="0px" y="0px"
	 viewBox="0 0 72 72" style="enable-background:new 0 0 72 72;" xml:space="preserve">
<style type="text/css">
	.st0{fill:#1B1A1A;fill-opacity:0.2;}
	.st1{fill:#46A653;}
	.st2{fill:#FFFFFF;}
</style>
<title>洞鉴5.1图标(2)</title>
<ellipse id="Oval-2" class="st0" cx="36" cy="67.8" rx="9.4" ry="3.4"/>
<path id="Shape" class="st1" d="M35.8,1.2c-11.6-0.1-21.1,9.3-21.2,21c0,0.1,0,0.1,0,0.2c0,2.3,0.5,4.6,1.4,6.8
	c1.1,2.9,19,37.7,19,37.7l0.2,0.2c0.2,0.3,0.4,0.6,0.8,0.8c0.3,0,0.5-0.2,0.8-0.8l0.2-0.2c0,0,17.9-34.7,19-37.7
	c0.9-2.2,1.3-4.5,1.4-6.8C57.2,10.6,47.6,1.1,35.8,1.2"/>
<g>
	<path class="st2" d="M35.8,0.7c-12,0-21.7,9.7-21.7,21.7c0,2.4,0.5,4.8,1.4,7c1.1,2.9,18.3,36.3,19,37.7l0.2,0.2
		c0.2,0.4,0.6,0.7,1,0.9l0.1,0H36c0.6,0,0.9-0.4,1.2-1l0.2-0.2c0.7-1.4,18-34.7,19-37.7c0.9-2.2,1.4-4.6,1.4-7
		C57.7,10.3,47.9,0.6,35.8,0.7z M55.5,29c-1,2.9-18,35.8-19,37.5l-0.2,0.2c-0.1,0.2-0.2,0.3-0.3,0.4c-0.2-0.2-0.4-0.4-0.5-0.6
		l-0.1-0.1c-0.9-1.8-17.9-34.8-19-37.6c-0.9-2.1-1.3-4.4-1.4-6.6C15,11,24.1,1.8,35.4,1.7c0.2,0,0.3,0,0.5,0
		c11.5-0.1,20.9,9.1,21,20.6c0,0,0,0,0,0.1C56.8,24.7,56.3,26.9,55.5,29z"/>
	<path class="st2" d="M54.4,21.3c0-0.5-0.3-0.6-0.3-0.6c-0.4-0.1-1.6-0.2-1.6-0.2c1.2,0.5,1.2,1,1.3,1.6c0.1,0.4,0,0.9-0.1,1.3h0.5
		c0.3,0,0.3-0.1,0.3-0.1L54.4,21.3z"/>
	<path class="st2" d="M50.8,20l3.5,0.2c0,0,0-0.2,0-0.3v-0.6c0,0,0.1-0.1-0.4-0.3c0,0-1.2-0.7-17-0.6c0,0-15.1,0-17.6,0.7
		c-0.3,0.1-0.4,0.3-0.4,0.6c0,0,0,0.6,0.4,0.6h0.2h2.8c0.4,0,0.7,0.2,0.9,0.5l1.5-0.1L23.3,21c0,0.1,0,0.1,0,0.2v4.6
		c0,0.6-0.4,1-1,1h-2c0,0.1,0.1,0.2,0.1,0.3c0.3,0.7,0.9,1.2,1.7,1.4c1.7,0.6,3.6,0.9,5.4,1c0,0,4.7,0.5,5.6-1.5l2-4.1
		c0.2-0.5,0.7-0.8,1.3-0.8C37,23,37.7,23.4,38,24l2.1,4.3c0,0,0.1,0.7,1.6,1c2.8,0.3,5.6,0.2,8.4-0.5c0,0,2.2-0.4,2.7-2
		c0.5-1.2,0.7-2.5,0.7-3.8C53.5,23.1,53.9,20.4,50.8,20z M32.6,27.9l-2.6,0.5l2.2-1l0.4-2.6l0.2,3.1L32.6,27.9z M41.8,22.1l-0.5,2.7
		l-0.1-3.2h0.2l2.9-0.2L41.8,22.1z M51.6,27.6L49,28.1l2.2-1l0.4-2.6l0.2,3.1H51.6z"/>
	<path class="st2" d="M22.4,25v-2.7c0-0.6-0.4-1-1-1h-2.7c-0.6,0-1,0.4-1,1V25c0,0.6,0.4,1,1,1h2.7C22,26,22.4,25.5,22.4,25z
		 M20.3,25h-0.4c-0.7,0-1.2-0.6-1.2-1.2v-0.4c0-0.7,0.6-1.2,1.2-1.2h0.4c0.7,0,1.2,0.6,1.2,1.2v0.4C21.5,24.4,20.9,25,20.3,25z"/>
</g>
</svg>
