<svg id="图层_1" data-name="图层 1" xmlns="http://www.w3.org/2000/svg" xmlns:xlink="http://www.w3.org/1999/xlink" viewBox="0 0 72 72"><defs><style>.cls-1,.cls-2{fill:none;}.cls-2{clip-rule:evenodd;}.cls-3{clip-path:url(#clip-path);}.cls-4{clip-path:url(#clip-path-2);}.cls-5{fill:#435068;}</style><clipPath id="clip-path"><rect class="cls-1" x="-189.91" y="-253.33" width="72" height="72"/></clipPath><clipPath id="clip-path-2"><path class="cls-2" d="M-160.85-230.63v-4.75l-12.61,0,0,37.13h39.07v-32.43Zm-1.66,29v-5.7q.17,0,10.57,0a4.63,4.63,0,0,0,4.63-4.63,4.63,4.63,0,0,0-4.63-4.63l-4.93.13,2.14,2.14-2.84,2.84-5.27-5.41-2.84-2.84,2.84-2.84,5.27-5.27,2.84,2.84-2.42,2.42h5.21a10.61,10.61,0,0,1,10.61,10.6,10.42,10.42,0,0,1-10.61,10.38Z"/></clipPath></defs><title>1</title><path class="cls-5" d="M66.18,58H38.58v4.44h9.6a3,3,0,0,1,0,6h-24a3,3,0,0,1,0-6h9.6V58H6.18a6,6,0,0,1-6-6V10a6,6,0,0,1,6-6h60a6,6,0,0,1,6,6V52a6,6,0,0,1-6,6ZM68.46,8.83H3.9V53.61H68.46ZM66.18,43"/><path class="cls-5" d="M61.08,28.29a2.37,2.37,0,0,0-1.89-1.67c-1-.07-4.35,2.48-6.53,3.15s-9.07,3-12,3c-3-1.72-16.4-5.86-17.23-6.11L11.39,23.36a.27.27,0,0,0-.06.09A16.53,16.53,0,0,0,11,25.8a30.74,30.74,0,0,0,1.12,8.37A7,7,0,0,0,14.6,37.4a5.83,5.83,0,0,0,2.9.9,2,2,0,0,0,1.77-.76l2.24-4.45.07-.13a1.22,1.22,0,0,1,1.67-.43h0a2,2,0,0,1,1.19,1.4l1.45,5.58c.59,2.57,5.42,3.49,5.42,3.49a16,16,0,0,0,5.58.5,2.87,2.87,0,0,0,2.4-1.77c.21-.35.81-3.36,1.07-3.93a3.16,3.16,0,0,1,1.28-1.32c.76-.4,12-4.37,12.7-4.61a3.73,3.73,0,0,0,2.18-1.58,3.49,3.49,0,0,1,1.5-1.82,1.57,1.57,0,0,1,1.75.15c.4.41-.1,2.33.22,2.83s.7.75,1,0A5.48,5.48,0,0,0,61.08,28.29Z"/><path class="cls-5" d="M21.07,24.86c1.55-.29,8.16-.32,9.22-.75a21.06,21.06,0,0,1,2.51-1.23,9,9,0,0,1,4.88-.33,13.58,13.58,0,0,1,4,2.55c.4.36,1,1.4,1.91,1.11s2-1.12,2-1.56,0-.7-.65-1a14.87,14.87,0,0,0-7.06-2.36c-4.61-.37-10.89.18-14.46.37A89.52,89.52,0,0,0,13,22.78l7.81,2.15Z"/></svg>