<?xml version="1.0" encoding="utf-8"?>
<!-- Generator: Adobe Illustrator 21.1.0, SVG Export Plug-In . SVG Version: 6.00 Build 0)  -->
<svg version="1.1" id="图层_1" xmlns="http://www.w3.org/2000/svg" xmlns:xlink="http://www.w3.org/1999/xlink" x="0px" y="0px"
	 viewBox="0 0 72 72" style="enable-background:new 0 0 72 72;" xml:space="preserve">
<style type="text/css">
	.st0{fill:#435068;}
</style>
<title>未标题-1</title>
<path class="st0" d="M71.1,25.9c0,0-2.5-1.5-34.5-1.3h-1.2c-32-0.2-34.5,1.3-34.5,1.3c-1,0.2-0.9,0.7-0.9,0.7v2.9
	c0,0,1.2,10.1,2.1,12.5C2.9,45.2,8.5,46,8.5,46c5.6,1.4,11.3,1.8,17,1.1c3.1-0.7,3.3-2.1,3.3-2.1l4.4-8.8c0.4-0.9,1.2-1.6,2.2-1.8
	c0.2,0,0.4,0,0.5,0c0.2,0,0.4,0,0.5,0c1,0.2,1.8,0.9,2.2,1.8l4.4,8.9c0,0,0.2,1.4,3.3,2.1c5.7,0.7,11.4,0.3,17-1.1
	c0,0,5.6-0.9,6.4-4.1c1-2.5,2.2-12.5,2.2-12.5v-2.9C72,26.5,72.1,26.1,71.1,25.9z"/>
</svg>
