<svg id="图层_1" data-name="图层 1" xmlns="http://www.w3.org/2000/svg" viewBox="0 0 72 72"><defs><style>.cls-1{fill:#21539b;}</style></defs><title>help_prompt</title><path class="cls-1" d="M36,0A36,36,0,1,0,72,36,36,36,0,0,0,36,0Zm-.23,57.14a4.3,4.3,0,0,1-4.44-4.47A4.36,4.36,0,0,1,36,48.4a4.38,4.38,0,1,1-.26,8.74ZM47.54,32.91a23,23,0,0,1-4.11,3.54l-2.12,1.41A6.09,6.09,0,0,0,39,40.55a6.56,6.56,0,0,0-.33,2,.65.65,0,0,1-.72.61H32c-.67,0-.74-.38-.73-.56.09-2.59.19-4.39,1.25-5.59a34.66,34.66,0,0,1,6-4.66,6.48,6.48,0,0,0,1.54-1.51,5.34,5.34,0,0,0,1.3-3.11,5.84,5.84,0,0,0-1.18-3.55Q39,22.54,35.86,22.55t-4.37,2a7.8,7.8,0,0,0-1.16,2.78c-.06,1.21-.44,1.33-1.21,1.33H23.34c-.51,0-.64-.31-.76-1.19q.65-6.37,5.21-9.17a14.42,14.42,0,0,1,7.72-1.95,17.08,17.08,0,0,1,10,2.77,9.34,9.34,0,0,1,4,8.21,9.21,9.21,0,0,1-2,5.62Zm0,0"/></svg>