<svg xmlns="http://www.w3.org/2000/svg" viewBox="0 0 33.81 37"><defs><style>.cls-1{fill:#435068;}</style></defs><title>落脚点分析_1</title><g id="Layer_2" data-name="Layer 2"><g id="图层_1" data-name="图层 1"><path class="cls-1" d="M17.91,0a9.13,9.13,0,0,0-9,9.26c0,4.21,6.09,10.48,8.25,12.92a1,1,0,0,0,1.49,0c2.16-2.44,8.26-8.71,8.26-12.92A9.14,9.14,0,0,0,17.91,0Zm0,15a6,6,0,1,1,6-6A6,6,0,0,1,17.91,15Z"/><path class="cls-1" d="M33.3,30.31,33,27.19,32,15.91A1,1,0,0,0,31,15H27.91c-.45,1.15-1,2-2,4l3,3v6l-6-6c-2.46,3.39-3.79,3.64-4.56,3.9a1.19,1.19,0,0,1-.79,0c-.77-.23-2.7-1.08-4.65-3.91l-4,4,6.91,9H10.91l-7-9h0l6-7a26.64,26.64,0,0,1-2-4H2.82a1,1,0,0,0-1,.91L0,35.91A1,1,0,0,0,1,37H32.81a1,1,0,0,0,1-1.09Z"/></g></g></svg>