<svg xmlns="http://www.w3.org/2000/svg" viewBox="0 0 34 26.26"><defs><style>.cls-1{fill:#435068;}</style></defs><title>ID</title><g id="Layer_2" data-name="Layer 2"><g id="图层_1" data-name="图层 1"><path class="cls-1" d="M31.73,0H2.27A2.3,2.3,0,0,0,0,2.27V24a2.3,2.3,0,0,0,2.27,2.27H31.73A2.3,2.3,0,0,0,34,24V2.27A2.3,2.3,0,0,0,31.73,0ZM2.42,21.36h-.3a1.49,1.49,0,0,1,1.3-1.71c1.31-.28,2.11-.69,3.23-1s1.55-2,1.55-2l-.06-1.39-.31-.63-.44-1.46H7.15l-.31-.25-.38-1.4.19-.44L7,11l-.19-.76-.06-.76-.12.09L6.71,9,6.53,9c0-.61.12-.71.12-.71l.25-.43-.25.06.87-1.26.81-.57.31-.51.55-.32.5.13-.12-.25.68.19-.37-.45a3.9,3.9,0,0,1,3.35,1.78c1.42.57,1.67,2.59,1.67,2.59l-.43,1.59.31.19.06.57-.31,1.2-.25.19-.19-.06-.49,1.71-.19.5.06,1.46S14.14,18.4,15,18.7c1.06.38,2.55.64,3.79,1.14a2.16,2.16,0,0,1,1.05,1.52Zm28-2.85a.85.85,0,0,1-.85.85h-6.7a.84.84,0,0,1-.85-.85h-.1v-.38a.85.85,0,0,1,.85-.85h6.8a.85.85,0,0,1,.85.85Zm0-5.19a.94.94,0,0,1-.94.94H20.78a1,1,0,0,1-1-.94v-.19a1,1,0,0,1,1-1h8.69a1,1,0,0,1,.94,1Zm-1-4.06H18.79a1,1,0,0,1,0-2.08H29.37a1,1,0,0,1,0,2.08Z"/></g></g></svg>