<?xml version="1.0" encoding="utf-8"?>
<!-- Generator: Adobe Illustrator 21.1.0, SVG Export Plug-In . SVG Version: 6.00 Build 0)  -->
<svg version="1.1" id="图层_1" xmlns="http://www.w3.org/2000/svg" xmlns:xlink="http://www.w3.org/1999/xlink" x="0px" y="0px"
	 viewBox="0 0 72 72" style="enable-background:new 0 0 72 72;" xml:space="preserve">
<style type="text/css">
	.st0{fill:#1B1A1A;fill-opacity:0.2;}
	.st1{fill:#46A653;}
	.st2{fill:#FFFFFF;}
</style>
<title>洞鉴5.1图标(2)</title>
<ellipse id="Oval-2" class="st0" cx="36" cy="67.6" rx="9.4" ry="3.4"/>
<path id="Shape" class="st1" d="M35.8,1c-11.6-0.1-21.1,9.3-21.2,21c0,0.1,0,0.1,0,0.2c0,2.3,0.5,4.6,1.4,6.8
	c1.1,2.9,19,37.7,19,37.7l0.2,0.2c0.2,0.3,0.4,0.6,0.8,0.8c0.3,0,0.5-0.2,0.8-0.8l0.2-0.2c0,0,18-34.7,19.1-37.7
	c0.9-2.2,1.3-4.5,1.4-6.8C57.3,10.4,47.6,0.9,35.8,1"/>
<g>
	<path class="st2" d="M35.8,0.5c-12,0-21.7,9.7-21.7,21.7c0,2.4,0.5,4.8,1.4,7c1.1,2.9,18.3,36.3,19,37.7l0.2,0.2
		c0.2,0.4,0.6,0.7,1,0.9l0.1,0H36c0.6,0,0.9-0.4,1.2-1l0.2-0.2c0.7-1.4,18-34.7,19-37.7c0.9-2.2,1.4-4.6,1.4-7
		C57.7,10.1,47.9,0.4,35.8,0.5z M55.5,28.8c-1,2.9-18,35.8-19,37.5l-0.2,0.2c-0.1,0.2-0.2,0.3-0.3,0.4c-0.2-0.2-0.4-0.4-0.5-0.6
		l-0.1-0.1c-0.9-1.8-17.9-34.8-19-37.6c-0.9-2.1-1.3-4.4-1.4-6.6C15,10.9,24,1.6,35.3,1.5c0.2,0,0.3,0,0.5,0
		c11.5-0.1,20.9,9.1,21,20.6c0,0,0,0,0,0.1C56.8,24.5,56.3,26.7,55.5,28.8z"/>
	<path class="st2" d="M48.2,11.4C48.2,11.4,48.2,11.4,48.2,11.4l-23.3,0c-1.3,0-2.4,1.1-2.4,2.4v10.7l-0.3,10.2c0,0.7,0.4,1.4,1,1.8
		l0.6,0.4c0.3,0.2,0.7,0.3,1.1,0.3h23.2c0.3,0,0.6,0,0.9-0.2c0.8-0.3,0.7-2.4,0.7-2.5c-0.1-0.7,0.1-1.9-1.8-1.9H41h-3.3v-2
		c0-0.5,0.4-0.8,0.8-0.8h9.7c1.3,0,2.4-1.1,2.4-2.4V13.8C50.6,12.4,49.5,11.4,48.2,11.4z M39.8,12.5c0-0.1,0.1-0.1,0.2-0.1h0.3
		c0.1,0,0.1,0.1,0.1,0.1v1.5c0,0.1-0.1,0.1-0.1,0.1h-0.3c-0.1,0-0.2-0.1-0.2-0.1V12.5z M38.9,12.5c0-0.1,0.1-0.1,0.2-0.1h0.3
		c0.1,0,0.1,0.1,0.1,0.1v1.5c0,0.1-0.1,0.1-0.1,0.1h-0.3c-0.1,0-0.2-0.1-0.2-0.1V12.5z M37.9,12.5c0-0.1,0.1-0.1,0.2-0.1h0.3
		c0.1,0,0.1,0.1,0.1,0.1v1.5c0,0.1-0.1,0.1-0.1,0.1h-0.3c-0.1,0-0.2-0.1-0.2-0.1V12.5z M35.5,12.4C35.5,12.4,35.5,12.4,35.5,12.4
		L35.5,12.4c0.5,0,0.9,0.4,0.9,0.9s-0.4,0.9-0.9,0.9c-0.5,0-0.9-0.4-0.9-0.9C34.6,12.8,35,12.4,35.5,12.4z M31.2,12.4
		C31.3,12.4,31.3,12.4,31.2,12.4L31.2,12.4c0.5,0,0.9,0.4,0.9,0.9s-0.4,0.9-0.9,0.9c-0.5,0-0.9-0.4-0.9-0.9
		C30.4,12.8,30.8,12.4,31.2,12.4z M48.1,27.9l-23.5,0.1l0.4-12.4h23.1V27.9z"/>
	<path class="st2" d="M35.8,24.8c-0.6-0.2-1.3-0.4-1.8-0.5c-0.5-0.2-0.7-1-0.7-1v-0.7l0.1-0.2l0.2-0.8h0.1l0.1-0.1l0.2-0.6v-0.3
		l-0.2-0.1l0.1-0.7c0,0-0.1-1-0.8-1.2c-0.3-0.5-1-0.9-1.6-0.9l0.2,0.2l-0.3-0.1l0.1,0.1l-0.2-0.1L31,17.9l-0.2,0.2l-0.4,0.3L30,19.1
		h0.1L30,19.3c0,0,0,0-0.1,0.3h0.1L30,19.9h0.1v0.4l0.1,0.4L30,20.7l-0.1,0.2l0.2,0.7l0.2,0.1h0.1l0.2,0.7l0.1,0.3v0.7
		c0,0-0.2,0.8-0.7,0.9c-0.5,0.2-0.9,0.3-1.5,0.5c-0.4,0.1-0.7,0.4-0.7,0.8h8.4C36.2,25.6,36.2,24.9,35.8,24.8z"/>
	<path class="st2" d="M44.6,20.9h-6.8c-0.3,0-0.5,0.2-0.5,0.5v0.5c0,0.3,0.2,0.5,0.5,0.5h6.8c0.3,0,0.5-0.2,0.5-0.5v-0.5
		C45.1,21.1,44.9,20.9,44.6,20.9z"/>
	<path class="st2" d="M44.6,23.1h-5.3c-0.3,0-0.5,0.2-0.5,0.5v0.5c0,0.3,0.2,0.5,0.5,0.5h5.3c0.3,0,0.5-0.2,0.5-0.5v-0.5
		C45.1,23.3,44.9,23.1,44.6,23.1z"/>
	<path class="st2" d="M36.4,20h8.2c0.3,0,0.5-0.2,0.5-0.5V19c0-0.3-0.2-0.5-0.5-0.5h-8.2c-0.3,0-0.5,0.2-0.5,0.5v0.5
		C35.9,19.8,36.1,20,36.4,20z"/>
</g>
</svg>
