<svg id="图层_1" data-name="图层 1" xmlns="http://www.w3.org/2000/svg" viewBox="0 0 72 72"><defs><style>.cls-1{fill:#435068;}</style></defs><title>1</title><path class="cls-1" d="M71.82,53a1.81,1.81,0,1,1-1.35-3.36,10,10,0,0,0-3.11-3.11A1.81,1.81,0,1,1,64,45.15a10,10,0,0,0-3.92,0,1.81,1.81,0,1,1-3.36,1.35,10,10,0,0,0-3.11,3.11A1.81,1.81,0,1,1,52.24,53a10,10,0,0,0,0,3.92,1.81,1.81,0,1,1,1.35,3.36,10,10,0,0,0,3.11,3.11,1.81,1.81,0,1,1,3.36,1.35,10,10,0,0,0,3.92,0,1.81,1.81,0,1,1,3.36-1.35,10,10,0,0,0,3.11-3.11,1.81,1.81,0,1,1,1.35-3.36,10,10,0,0,0,0-3.92ZM62,60.39a5.45,5.45,0,1,1,5.45-5.45A5.45,5.45,0,0,1,62,60.39Z"/><circle class="cls-1" cx="61.88" cy="54.8" r="2.71"/><rect class="cls-1" x="42.57" y="35.42" width="16.2" height="3.82" rx="0.5" ry="0.5"/><rect class="cls-1" x="38.78" y="29.85" width="19.99" height="3.82" rx="0.5" ry="0.5"/><rect class="cls-1" x="35.24" y="23.72" width="23.52" height="3.82" rx="0.5" ry="0.5"/><path class="cls-1" d="M20.22,38.22c-1.37.39-2.35.89-4,1.24a2,2,0,0,0-1.68,2.18H36.25s-.17-1.52-1.21-1.95c-1.52-.62-3.34-.93-4.64-1.4-1-.37-1.82-2.56-1.82-2.56l-.08-1.79.23-.62.61-2.1.23.08.3-.23.38-1.47-.08-.7-.38-.23.53-1.94s-.3-2.48-2.05-3.18a4.76,4.76,0,0,0-4.1-2.17l.46.54-.84-.23.15.31-.61-.16-.68.39-.38.62-1,.7L20.22,25.1l.3-.08-.31.52s-.1.13-.15.87l.23-.08-.15.72.15-.1.08.93.23.93-.38.16-.23.54.46,1.71.38.31h.3l.53,1.79.38.78.08,1.71S21.63,37.82,20.22,38.22Z"/><path class="cls-1" d="M21,60.65a3.55,3.55,0,0,1-3.54-3.54V55.63A3.55,3.55,0,0,1,21,52.09H48.76a13.61,13.61,0,0,1,1.87-4.52H5.94V16.12h59.4V41.78a13.61,13.61,0,0,1,6.55,3.79V10.94a6,6,0,0,0-6-6H6a6,6,0,0,0-6,6V58.86a6,6,0,0,0,6,6H52.61a13.72,13.72,0,0,1-3-4.2ZM44.12,8H45.5v4.66H44.12Zm-2.2,0h1.37v4.66H41.92ZM39.38,8h1.37v4.66H39.38ZM33.06,8a2.25,2.25,0,1,1-2.25,2.25A2.25,2.25,0,0,1,33.06,8ZM22.41,8a2.25,2.25,0,1,1-2.25,2.25A2.25,2.25,0,0,1,22.41,8Z"/></svg>