<?xml version="1.0" encoding="utf-8"?>
<!-- Generator: Adobe Illustrator 21.1.0, SVG Export Plug-In . SVG Version: 6.00 Build 0)  -->
<svg version="1.1" id="图层_1" xmlns="http://www.w3.org/2000/svg" xmlns:xlink="http://www.w3.org/1999/xlink" x="0px" y="0px"
	 viewBox="0 0 72 72" style="enable-background:new 0 0 72 72;" xml:space="preserve">
<style type="text/css">
	.st0{fill:#435068;}
</style>
<title>未标题-1</title>
<g>
	<path class="st0" d="M65.9,3.3L65.9,3.3H6.1C2.7,3.3,0,6,0,9.3v53.1c-0.1,1.9,0.9,3.6,2.5,4.6l1.7,1c0.8,0.5,1.7,0.7,2.7,0.7h58.9
		c0.8,0,1.5-0.1,2.2-0.4c1.9-0.8,1.7-6.1,1.7-6.4c-0.2-1.8,0.2-4.8-4.5-4.8h-26v-5.1c0-1.2,0.9-2.1,2.1-2.1h24.6
		c3.3,0,6.1-2.7,6.1-6.1V9.3C72,6,69.3,3.3,65.9,3.3z M44.7,6.3c0-0.2,0.2-0.3,0.3-0.4h0.7c0.2,0,0.4,0.2,0.4,0.4v3.9
		c0,0.2-0.2,0.4-0.4,0.4H45c-0.2,0-0.4-0.2-0.4-0.4L44.7,6.3z M42.4,6.3c0-0.2,0.2-0.4,0.4-0.4h0.7c0.2,0,0.4,0.2,0.4,0.4v3.9
		c0,0.2-0.2,0.4-0.4,0.4h-0.7c-0.2,0-0.4-0.2-0.4-0.4V6.3z M39.9,6.3c0-0.2,0.2-0.4,0.4-0.4h0.7c0.2,0,0.4,0.2,0.4,0.4v3.9
		c0,0.2-0.2,0.4-0.4,0.4h-0.7c-0.2,0-0.4-0.2-0.4-0.4V6.3z M33.7,5.9L33.7,5.9c1.3,0,2.3,1,2.3,2.3c0,1.3-1,2.3-2.3,2.3
		s-2.3-1-2.3-2.3C31.4,6.9,32.4,5.9,33.7,5.9z M23,5.8h0.2l0,0.1c1.3,0,2.3,1,2.3,2.3c0,1.3-1,2.3-2.3,2.3c-1.3,0-2.3-1-2.3-2.3
		C20.8,6.9,21.7,5.9,23,5.8z M65.7,45.2L6.9,45.4V13.9h58.8V45.2z"/>
	<path class="st0" d="M35.7,39.4c0,0,0-1.7-1-2.1c-1.5-0.6-3.3-0.9-4.6-1.4c-1.3-0.5-1.8-2.5-1.8-2.5v-1.8l0.2-0.6l0.6-2.1h0.2
		l0.3-0.2l0.4-1.5v-0.7l-0.4-0.2l0.4-1.9c0,0-0.3-2.5-2-3.1c-0.9-1.4-2.4-2.2-4.1-2.2l0.5,0.5l-0.8-0.2l0.2,0.3L23,19.6L22.3,20
		l-0.4,0.6l-1,0.7l-1,1.5h0.3l-0.3,0.5l-0.1,0.9H20l-0.2,0.7H20v0.9l0.2,0.9l-0.4,0.2l-0.2,0.5l0.5,1.7l0.4,0.3h0.3l0.5,1.8l0.4,0.8
		v1.7c0,0-0.5,2-1.9,2.4c-1.4,0.4-2.3,0.9-3.9,1.2c-1,0.1-1.8,1.1-1.7,2.2H35.7z"/>
	<path class="st0" d="M56.8,27.5H39.6c-0.7,0-1.3,0.6-1.3,1.3V30c0,0.7,0.6,1.3,1.3,1.3h17.2c0.7,0,1.3-0.6,1.3-1.3v-1.2
		C58.1,28.1,57.5,27.5,56.8,27.5z"/>
	<path class="st0" d="M56.8,33H43.4c-0.7,0-1.3,0.6-1.3,1.3v1.2c0,0.7,0.6,1.3,1.3,1.3h13.5c0.7,0,1.3-0.6,1.3-1.3v-1.2
		C58.1,33.6,57.5,33,56.8,33z"/>
	<path class="st0" d="M36.1,25.2h20.8c0.7,0,1.3-0.6,1.3-1.3v-1.2c0-0.7-0.6-1.3-1.3-1.3H36.1c-0.7,0-1.3,0.6-1.3,1.3V24
		C34.8,24.7,35.4,25.2,36.1,25.2z"/>
</g>
</svg>
