<?xml version="1.0" encoding="utf-8"?>
<!-- Generator: Adobe Illustrator 22.0.1, SVG Export Plug-In . SVG Version: 6.00 Build 0)  -->
<svg version="1.1" xmlns="http://www.w3.org/2000/svg" xmlns:xlink="http://www.w3.org/1999/xlink" x="0px" y="0px"
	 viewBox="0 0 72 72" style="enable-background:new 0 0 72 72;" xml:space="preserve">
<style type="text/css">
	.st0{fill:#435068;}
	.st1{fill:#FFFFFF;}
	.st2{fill:#F05353;}
	.st3{fill:#46A653;}
	.st4{fill:#19805F;}
	.st5{fill:#999999;}
	.st6{fill:#6C6C6C;}
	.st7{fill:#BF2B2B;}
	.st8{fill:#84001C;}
	.st9{fill:#AE9A84;}
	.st10{fill:#B89E80;}
	.st11{enable-background:new    ;}
	.st12{fill:#FBC647;}
	.st13{fill:#F3BC39;}
	.st14{fill:#E0DDD6;}
	.st15{fill:#DCD9D3;}
	.st16{fill:#F67E49;}
	.st17{fill:#F9CAB5;}
	.st18{fill:#B68356;}
	.st19{fill:#EBBF92;}
	.st20{fill:#DCE1E5;}
	.st21{fill:#89969F;}
	.st22{fill:#D83C3C;}
	.st23{fill:#FBC0C0;}
	.st24{fill:#DD3400;}
	.st25{fill:#ED673E;}
	.st26{fill:#C07D06;}
	.st27{fill:#DBAC58;}
	.st28{fill:#21539B;}
	.st29{fill:#5B98E7;}
	.st30{fill:none;}
</style>
<g id="图层_1">
	<rect x="27" y="16" class="st30" width="18" height="18"/>
	<g>
		<path class="st0" d="M53,33.2V30h17v-9H53V7H18v14H2v9h16v13h20.4C41.2,37.6,46.6,33.8,53,33.2z M27,16h18v18H27V16z"/>
		<g>
			<path class="st0" d="M68.8,49.1c-0.5,0.2-1.1,0.3-1.7,0.1c-0.8-0.2-1.5-0.9-1.7-1.7c-0.4-1.4,0.4-2.7,1.5-3.1
				c-1.1-1.8-2.6-3.3-4.4-4.4c-0.4,1.2-1.7,1.9-3.1,1.6c-0.8-0.2-1.5-0.9-1.7-1.7c-0.2-0.6-0.1-1.2,0.1-1.7
				c-0.9-0.2-1.8-0.3-2.8-0.3c-0.7,0-1.4,0.1-2,0.2c-0.2,0-0.5,0.1-0.7,0.1c0.2,0.5,0.3,1.1,0.1,1.7c-0.2,0.8-0.9,1.5-1.7,1.7
				c-1.4,0.4-2.6-0.4-3.1-1.6l-3.4,3c-0.3,0.4-0.7,0.9-1,1.3c1.2,0.4,1.9,1.7,1.5,3.1c-0.2,0.8-0.9,1.5-1.7,1.7
				c-0.6,0.2-1.2,0.1-1.7-0.1c-0.2,0.9-0.3,1.8-0.3,2.8s0.1,1.9,0.3,2.7c0.5-0.2,1.1-0.3,1.7-0.1c0.8,0.2,1.5,0.9,1.7,1.7
				c0.4,1.4-0.4,2.7-1.5,3.1c1.1,1.8,2.6,3.3,4.4,4.4c0.4-1.2,1.7-1.9,3.1-1.6c0.8,0.2,1.5,0.9,1.7,1.7c0.2,0.6,0.1,1.2-0.1,1.7
				c0.9,0.2,1.8,0.3,2.8,0.3c0.9,0,1.9-0.1,2.8-0.3c-0.2-0.5-0.3-1.1-0.1-1.7c0.2-0.8,0.9-1.5,1.7-1.7c1.4-0.4,2.6,0.4,3.1,1.6
				c1.8-1.1,3.3-2.6,4.4-4.4c-1.2-0.4-1.9-1.7-1.5-3.1c0.2-0.8,0.9-1.5,1.7-1.7c0.6-0.2,1.2-0.1,1.7,0.1c0.2-0.9,0.3-1.8,0.3-2.7
				S68.9,49.9,68.8,49.1z M55.5,59.2c-4.2,0-7.6-3.4-7.6-7.6c0-4.2,3.4-7.6,7.6-7.6c4.2,0,7.6,3.4,7.6,7.6
				C63.1,55.8,59.7,59.2,55.5,59.2z"/>
			<path class="st0" d="M55.5,47.8c-2.1,0-3.8,1.7-3.8,3.8s1.7,3.8,3.8,3.8c2.1,0,3.8-1.7,3.8-3.8S57.6,47.8,55.5,47.8z"/>
		</g>
	</g>
</g>
<g id="图层_2">
</g>
<g id="图层_3">
</g>
<g id="图层_4">
</g>
<g id="图层_5">
</g>
<g id="图层_6">
</g>
<g id="图层_7">
</g>
<g id="图层_8">
</g>
<g id="图层_9">
</g>
<g id="图层_10">
</g>
<g id="图层_11">
</g>
</svg>
