<svg id="图层_1" data-name="图层 1" xmlns="http://www.w3.org/2000/svg" viewBox="0 0 62.4 62"><defs><style>.cls-1{fill:#435068;}</style></defs><title>标签管理</title><path class="cls-1" d="M67.14,51a2.54,2.54,0,0,1-1.9-4.72A14,14,0,0,0,60.87,42a2.54,2.54,0,0,1-4.75-1.8l0-.1a14,14,0,0,0-5.5,0A2.54,2.54,0,1,1,45.94,42a14,14,0,0,0-4.36,4.36A2.54,2.54,0,1,1,39.68,51a14,14,0,0,0,0,5.5,2.54,2.54,0,1,1,1.9,4.72,14,14,0,0,0,4.36,4.36,2.54,2.54,0,0,1,4.75,1.8l0,.1a14,14,0,0,0,5.5,0,2.54,2.54,0,0,1,4.67-2l0,.1a14,14,0,0,0,4.36-4.36,2.54,2.54,0,1,1,1.9-4.72,14,14,0,0,0,0-5.5ZM53.41,61.43A7.64,7.64,0,1,1,61,53.79h0A7.64,7.64,0,0,1,53.41,61.43Z" transform="translate(-4.99 -5.75)"/><circle class="cls-1" cx="48.42" cy="48.04" r="3.82"/><path class="cls-1" d="M53.41,34.79a18.89,18.89,0,0,1,10.13,3A19.05,19.05,0,0,0,67,28.24v-16a6.67,6.67,0,0,0-6.64-6.49H44.82a18.5,18.5,0,0,0-11.4,4.7L6.93,36.94a6.68,6.68,0,0,0,0,9.41L26.36,65.79a6.66,6.66,0,0,0,9.41,0l1.69-1.69a19,19,0,0,1,16-29.31Zm-.59-21.08a6,6,0,1,1-6,6h0A6,6,0,0,1,52.82,13.71Z" transform="translate(-4.99 -5.75)"/></svg>