<svg xmlns="http://www.w3.org/2000/svg" viewBox="0 0 18 18"><defs><style>.cls-1{fill:#435068;}</style></defs><title>资源 22</title><g id="图层_2" data-name="图层 2"><g id="图层_68" data-name="图层 68"><path id="radio_button_checked---material" data-name="radio button checked---material" class="cls-1" d="M9,14a5,5,0,0,0,4.31-2.49,4.91,4.91,0,0,0,0-5,4.86,4.86,0,0,0-1.8-1.8,4.91,4.91,0,0,0-5,0,4.86,4.86,0,0,0-1.8,1.8,4.91,4.91,0,0,0,0,5A5,5,0,0,0,9,14ZM9,2a6.88,6.88,0,0,1,3.55,1A6.61,6.61,0,0,1,15,5.45a7,7,0,0,1,0,7.1A6.61,6.61,0,0,1,12.55,15a7,7,0,0,1-7.1,0A6.74,6.74,0,0,1,3,12.53,7,7,0,0,1,3,5.47,6.87,6.87,0,0,1,5.47,3,6.81,6.81,0,0,1,9,2ZM9,7a1.92,1.92,0,0,1,1,.27,2,2,0,0,1,.73.73,2,2,0,0,1,0,2,2,2,0,0,1-.73.73,2,2,0,0,1-2,0A2,2,0,0,1,7.27,10a2,2,0,0,1,0-2A2,2,0,0,1,8,7.27,1.92,1.92,0,0,1,9,7Z"/><path id="Combined-Shape" class="cls-1" d="M8,0h2V4H8ZM8,14h2v4H8Z"/><path id="Combined-Shape-2" data-name="Combined-Shape" class="cls-1" d="M0,10V8H4v2Zm14,0V8h4v2Z"/></g></g></svg>