<svg xmlns="http://www.w3.org/2000/svg" viewBox="0 0 1065.09 237.2"><defs><style>.cls-1{fill:#38bde9;}.cls-2{fill:#28b8ec;}</style></defs><title>logo</title><g id="图层_2" data-name="图层 2"><g id="图层_1-2" data-name="图层 1"><g id="图层_2-2" data-name="图层 2"><g id="图层_1-2-2" data-name="图层 1-2"><path class="cls-1" d="M753.25,0H729.5V33.4H673.92V143.52c0,42.79-17.74,62.89-49.84,72l12,20.36c39.67-12.51,62.12-39.4,62.12-95V57.41h107v-24h-52Z"/><path class="cls-1" d="M652.79,153.43V18.52H579.2V191.79h37C638.7,191.79,652.79,179,652.79,153.43Zm-21.92-.78c0,9.65-5.74,15.92-14.09,15.92H601.11v-52.2h29.76Zm0-59.24H601.11V41.48h29.76Z"/><path class="cls-1" d="M947.93,32.61h58.72c14.09,0,18.79,5.74,18.79,18V151.35h23.48V50.62c0-29.23-11.74-41.49-42.27-41.49h-82.2V151.87h23.48Z"/><path class="cls-1" d="M913.75,151.87v-30.8L893.33,105.7c9.57-15.4,15.46-32,15.46-48.29v-24H882.7V0H859V33.4H832.6v24h51.66c0,36-31.58,64.44-65.24,84l12.79,20.08A152.27,152.27,0,0,0,860,143.12v92.52h23.75V127.53Z"/><path class="cls-1" d="M1043.45,191.27c0,9.4-2.62,13.57-15.13,13.57h-7.58c-12.27,0-14.61-3.91-14.61-13.83V137.25h-13c2.62-11.48,3.65-24,3.92-37.84.26-9.13.78-45.14.78-53.49H973.51V97.85c0,52.19-17.48,85.6-79.59,120.57l15.65,18.78c36.81-22.7,60-43.83,73.07-69.94V197c0,20.35,7.57,31.31,28.19,31.31H1033c24.26,0,32.09-8.88,32.09-31.31V162.57h-21.65Z"/><path class="cls-2" d="M340.75,105.51c-12.43-.1-19.6,9-20.75,20.74h39.19C359.78,117.94,353.18,105.61,340.75,105.51Z"/><path class="cls-2" d="M161,140.15c-5.17-.1-10.67.64-15.17,3.41-3.69,2.25-5.52,5.94-5.52,10.94s2.52,9.72,7.26,11.72c5.36,2.23,12.46,2.35,18.11,1.35,1.91-.32,3.59-.6,5-.88l0-25.54C170.66,140.43,161.9,140.15,161,140.15Z"/><path class="cls-2" d="M500.9.91H27.39A27.41,27.41,0,0,0,0,28.3V208.88a27.4,27.4,0,0,0,27.39,27.41H500.9a27.4,27.4,0,0,0,27.39-27.41V28.3A27.39,27.39,0,0,0,500.9.91ZM114.41,71.78H56.64V104.5H104v24.23H56.64V187H28.36V47.75h86.05Zm83,111.63c0,.58-8.77,2.38-9.61,2.58-15,3.52-31.64,4.89-46.86,1.67-15.45-3.31-26.45-16.11-26.45-32A29.34,29.34,0,0,1,128.75,130c8.69-5.22,19.54-7.08,29.54-7.08,3.75,0,12.39.58,12.39.58,0-7.52-1.57-11.86-5.8-14.43-4.5-2.71-10.42-2.81-15.5-2.81a68.52,68.52,0,0,0-22.27,4.07l-5.43-20.15a103.1,103.1,0,0,1,32.93-5.61q20.14,0,31.48,9.68t11.34,31Zm24.82-9.12c-8.88-10.14-12.25-24-12.25-37.23,0-19.7,8.33-39.82,27.23-48.28,15.05-6.69,34.59-4.72,49.59,1L282,110.23A62.76,62.76,0,0,0,261.9,107c-17,0-24.12,15-24.12,30.11q0,15.63,6.56,22.77c9.4,10.17,26.56,7.57,38.22,3.46l5.4,21C267.48,192.52,237.76,192,222.25,174.29Zm161.94-28.88H319.84q.77,11.63,8.14,16.87c9.21,6.57,22.27,5.93,32.86,4a77,77,0,0,0,13.08-3.59l5.44,20.94q-15.14,5.81-34.13,5.81c-11.46,0-23.19-2.35-32.89-8.69-14.06-9.19-19.65-27-19.65-43.07,0-13.28,3.57-27.34,12.31-37.6,9-10.52,22.53-15.52,36.15-15.52,12.27,0,24.21,4.53,32.48,13.75C384.7,110.7,387.06,129.61,384.19,145.41Zm50.6-61.21H413.93v20.86H398.34V84.2H377.49V68.61h20.85V47.75h15.59V68.61h20.86Zm66.42,0H480.35v20.86H464.76V84.2H443.9V68.61h20.86V47.75h15.59V68.61h20.86Z"/></g></g></g></g></svg>