<svg xmlns="http://www.w3.org/2000/svg" viewBox="0 0 35.38 36"><defs><style>.cls-1{fill:#435068;}</style></defs><title>地图模式</title><g id="Layer_2" data-name="Layer 2"><g id="图层_1" data-name="图层 1"><path class="cls-1" d="M18.27,0a6.92,6.92,0,0,0-6.92,6.92c0,2.9,4,8.93,5.9,11.67a1.25,1.25,0,0,0,2,0c1.92-2.74,5.9-8.77,5.9-11.67A6.92,6.92,0,0,0,18.27,0Zm0,10a3.08,3.08,0,1,1,3.08-3.08A3.08,3.08,0,0,1,18.27,10Z"/><path class="cls-1" d="M35.08,12.61a.92.92,0,0,0-.66-.3l-.28.09-8.76,4-3.07-.9v3.87l3.07.91V32.12L10,28.06V16.18l3.08.91V13.21L10,12.31.74,16a1.15,1.15,0,0,0-.51.35.85.85,0,0,0-.23.57V35a.92.92,0,0,0,.3.67A1,1,0,0,0,1,36l9-4.06L25.38,36l9.27-3.69a1.17,1.17,0,0,0,.5-.35.81.81,0,0,0,.23-.58V13.28A.92.92,0,0,0,35.08,12.61Z"/></g></g></svg>