<svg id="图层_1" data-name="图层 1" xmlns="http://www.w3.org/2000/svg" xmlns:xlink="http://www.w3.org/1999/xlink" viewBox="0 0 48 48"><defs><style>.cls-1{opacity:0.9;fill:url(#未命名的渐变_98);}.cls-12,.cls-2{opacity:0.2;}.cls-3,.cls-4{fill:none;}.cls-3{stroke:#0c9ae4;stroke-miterlimit:10;stroke-width:1.5px;}.cls-5{fill:url(#未命名的渐变_90);}.cls-6{fill:url(#未命名的渐变_94);}.cls-7{fill:url(#未命名的渐变_90-2);}.cls-8{fill:url(#未命名的渐变_94-2);}.cls-9{fill:url(#未命名的渐变_90-3);}.cls-10{fill:url(#未命名的渐变_94-3);}.cls-11,.cls-12{fill:#0c9ae4;}</style><radialGradient id="未命名的渐变_98" cx="28.31" cy="23.69" r="16.39" gradientUnits="userSpaceOnUse"><stop offset="0.16" stop-color="#0c9ae4"/><stop offset="1" stop-color="#0c9ae4" stop-opacity="0"/></radialGradient><linearGradient id="未命名的渐变_90" x1="0.23" y1="23.37" x2="10.65" y2="23.37" gradientUnits="userSpaceOnUse"><stop offset="0.2" stop-color="#0c9ae4" stop-opacity="0.6"/><stop offset="1" stop-color="#0c9ae4" stop-opacity="0"/></linearGradient><linearGradient id="未命名的渐变_94" x1="7.62" y1="23.37" x2="12.8" y2="23.37" gradientUnits="userSpaceOnUse"><stop offset="0.24" stop-color="#0c9ae4"/><stop offset="1" stop-color="#0c9ae4" stop-opacity="0"/></linearGradient><linearGradient id="未命名的渐变_90-2" x1="42.47" y1="47.07" x2="37.38" y2="38.25" xlink:href="#未命名的渐变_90"/><linearGradient id="未命名的渐变_94-2" x1="38.86" y1="40.9" x2="36.32" y2="36.5" xlink:href="#未命名的渐变_94"/><linearGradient id="未命名的渐变_90-3" x1="42.24" y1="0.17" x2="37.15" y2="8.99" xlink:href="#未命名的渐变_90"/><linearGradient id="未命名的渐变_94-3" x1="38.63" y1="6.34" x2="36.09" y2="10.73" xlink:href="#未命名的渐变_94"/></defs><title>map_last_bg</title><circle class="cls-1" cx="28.31" cy="23.69" r="16.39"/><g class="cls-2"><path class="cls-3" d="M11.56,32.32a19.1,19.1,0,0,0,16.51,9.24h.33"/><path class="cls-3" d="M28.4,5.27h-.33A19.1,19.1,0,0,0,11.56,14.5"/><path class="cls-3" d="M44.39,32.65a17.48,17.48,0,0,0,0-18.47"/></g><polygon class="cls-4" points="39.9 4.49 34.66 7.47 35.21 7.78 39.28 5.6 39.28 10.03 39.82 10.33 39.9 4.49"/><polygon class="cls-5" points="10.63 26.19 5.31 23.33 10.63 20.48 10.64 20.47 10.64 17.78 0.23 23.37 10.64 28.96 10.65 26.2 10.63 26.19"/><polygon class="cls-6" points="12.8 26.27 12.8 20.46 10.69 21.62 10.69 21.62 7.62 23.32 10.7 25.08 10.7 25.08 12.8 26.27"/><polygon class="cls-7" points="39.99 36.94 40.07 42.78 34.82 39.8 34.81 39.79 32.38 41.14 42.64 46.97 42.49 35.55 39.99 36.92 39.99 36.94"/><polygon class="cls-8" points="38.98 35.1 33.72 38.01 35.83 39.17 35.83 39.17 38.91 40.87 38.95 37.43 38.95 37.43 38.98 35.1"/><polygon class="cls-9" points="34.66 7.47 39.9 4.49 39.82 10.33 39.82 10.35 42.26 11.69 42.41 0.26 32.15 6.1 34.64 7.49 34.66 7.47"/><polygon class="cls-10" points="33.49 9.23 38.75 12.14 38.75 9.81 38.75 9.81 38.75 6.41 35.62 8.09 35.62 8.09 33.49 9.23"/><polygon class="cls-11" points="16.15 25.55 16.15 21.8 19.64 23.67 16.15 25.55"/><polygon class="cls-11" points="32.65 34.68 36.05 32.8 32.6 30.84 32.65 34.68"/><polygon class="cls-11" points="36.05 14.56 32.65 12.68 32.6 16.52 36.05 14.56"/><circle class="cls-12" cx="28.31" cy="23.69" r="10.75"/></svg>