<svg id="图层_1" data-name="图层 1" xmlns="http://www.w3.org/2000/svg" xmlns:xlink="http://www.w3.org/1999/xlink" viewBox="0 0 48 48"><defs><style>.cls-1{fill:none;}.cls-2{clip-path:url(#clip-path);}.cls-3{fill:#1b1a1a;opacity:0.4;}.cls-4{fill:#226edd;stroke:#fff;stroke-miterlimit:10;fill-rule:evenodd;}.cls-5{fill:#fff;opacity:0.2;}</style><clipPath id="clip-path"><ellipse class="cls-1" cx="24.92" cy="45.42" rx="6.27" ry="2"/></clipPath></defs><title>map_bg</title><g class="cls-2"><rect class="cls-3" x="12.37" y="37.42" width="25.09" height="14"/></g><path class="cls-4" d="M24.92,1.42h0a13.78,13.78,0,0,0-13.74,14A13.29,13.29,0,0,0,12,20c.69,1.93,12.28,24.85,12.28,24.85l.09.14c.21.35.35.45.5.46h0c.15,0,.29-.11.5-.46l.09-.14S37.1,21.88,37.79,20a13.29,13.29,0,0,0,.86-4.53A13.78,13.78,0,0,0,24.92,1.42Z"/><circle class="cls-5" cx="24.92" cy="14.91" r="9.51"/></svg>