<svg id="图层_1" data-name="图层 1" xmlns="http://www.w3.org/2000/svg" viewBox="0 0 12 12"><defs><style>.cls-1{fill:#e88585;}</style></defs><title>mission_failed_pink</title><path id="error_outline---material" data-name="error outline---material" class="cls-1" d="M6,10.54a4.3,4.3,0,0,0,2.22-.61A4.28,4.28,0,0,0,9.81,8.35a4.36,4.36,0,0,0,0-4.44A4.28,4.28,0,0,0,8.22,2.32a4.36,4.36,0,0,0-4.44,0A4.28,4.28,0,0,0,2.19,3.9a4.36,4.36,0,0,0,0,4.44A4.28,4.28,0,0,0,3.78,9.93,4.3,4.3,0,0,0,6,10.54ZM6,.63a5.41,5.41,0,0,1,2.79.75,5.21,5.21,0,0,1,2,2,5.41,5.41,0,0,1,.75,2.79,5.41,5.41,0,0,1-.75,2.79,5.21,5.21,0,0,1-2,2A5.41,5.41,0,0,1,6,11.63a5.41,5.41,0,0,1-2.79-.75,5.31,5.31,0,0,1-2-2,5.49,5.49,0,0,1,0-5.55A5.5,5.5,0,0,1,6,.63ZM5.46,3.36H6.54V6.67H5.46Zm0,4.42H6.54V8.89H5.46Z"/></svg>