<?xml version="1.0" encoding="UTF-8"?>
<svg width="14px" height="16px" viewBox="0 0 14 16" version="1.1" xmlns="http://www.w3.org/2000/svg" xmlns:xlink="http://www.w3.org/1999/xlink">
    <!-- Generator: Sketch 50.2 (55047) - http://www.bohemiancoding.com/sketch -->
    <title>Combined Shape</title>
    <desc>Created with Sketch.</desc>
    <defs></defs>
    <g id="Page-1" stroke="none" stroke-width="1" fill="none" fill-rule="evenodd">
        <g id="个人账户" transform="translate(-1267.000000, -20.000000)" fill="#D9EBFD">
            <path d="M1279,23 L1278,23 L1278,21 L1281,21 L1281,22 L1281,36 L1267,36 L1267,22 L1267,21 L1270,21 L1270,23 L1269,23 L1269,34 L1279,34 L1279,23 Z M1271,20 L1277,20 L1277,23 L1271,23 L1271,20 Z M1271,26 L1277,26 L1277,28 L1271,28 L1271,26 Z M1271,30 L1277,30 L1277,32 L1271,32 L1271,30 Z" id="Combined-Shape"></path>
        </g>
    </g>
</svg>