<?xml version="1.0" encoding="UTF-8"?>
<svg width="48px" height="48px" viewBox="0 0 48 48" version="1.1" xmlns="http://www.w3.org/2000/svg" xmlns:xlink="http://www.w3.org/1999/xlink">
    <!-- Generator: Sketch 50.2 (55047) - http://www.bohemiancoding.com/sketch -->
    <title>Combined Shape</title>
    <desc>Created with Sketch.</desc>
    <defs></defs>
    <g id="Symbols" stroke="none" stroke-width="1" fill="none" fill-rule="evenodd">
        <g id="Group" transform="translate(-1012.000000, -20.000000)" fill="#DAEBFD">
            <g id="Group-2">
                <g>
                    <path d="M1013,20 L1032,20 C1032.55228,20 1033,20.4477153 1033,21 L1033,40 C1033,40.5522847 1032.55228,41 1032,41 L1013,41 C1012.44772,41 1012,40.5522847 1012,40 L1012,21 C1012,20.4477153 1012.44772,20 1013,20 Z M1013,47 L1032,47 C1032.55228,47 1033,47.4477153 1033,48 L1033,67 C1033,67.5522847 1032.55228,68 1032,68 L1013,68 C1012.44772,68 1012,67.5522847 1012,67 L1012,48 C1012,47.4477153 1012.44772,47 1013,47 Z M1040,20 L1059,20 C1059.55228,20 1060,20.4477153 1060,21 L1060,40 C1060,40.5522847 1059.55228,41 1059,41 L1040,41 C1039.44772,41 1039,40.5522847 1039,40 L1039,21 C1039,20.4477153 1039.44772,20 1040,20 Z M1040,47 L1059,47 C1059.55228,47 1060,47.4477153 1060,48 L1060,67 C1060,67.5522847 1059.55228,68 1059,68 L1040,68 C1039.44772,68 1039,67.5522847 1039,67 L1039,48 C1039,47.4477153 1039.44772,47 1040,47 Z" id="Combined-Shape"></path>
                </g>
            </g>
        </g>
    </g>
</svg>