<svg xmlns="http://www.w3.org/2000/svg" viewBox="0 0 36 30.65"><defs><style>.cls-1{fill:#435068;}</style></defs><title>多人检索</title><g id="Layer_2" data-name="Layer 2"><g id="图层_1" data-name="图层 1"><path class="cls-1" d="M24.58,3C27,4,27.4,7.36,27.4,7.36L26.67,10l.52.32.11,1-.53,2-.41.32L26,13.55l-.83,2.89-.32.85,0,.54A8.62,8.62,0,0,1,26.16,17l.22-.58.83-2.89.32.11.42-.32.52-2-.11-1L27.84,10l.73-2.67S28.16,4,25.75,3a6.55,6.55,0,0,0-5.64-3l.09.11A6.52,6.52,0,0,1,24.58,3Z"/><path class="cls-1" d="M21.9,25.47l-.26-.08c-1.4-.5-2.51-3.52-2.51-3.52L19,19.42l.32-.86.83-2.88.32.11.42-.32.52-2-.11-1-.52-.32.73-2.67s-.41-3.42-2.82-4.38a6.55,6.55,0,0,0-5.64-3l.62.75-1.15-.32.21.43-.83-.21L11,3.3l-.53.85-1.36,1L7.63,7.25l.42-.11-.43.72a2.81,2.81,0,0,0-.2,1.2L7.74,9l-.21,1,.21-.14.1,1.28.31,1.28-.52.21-.31.75.62,2.35.53.43h.42l.73,2.45.52,1.07.1,2.35s-.67,2.76-2.61,3.31S4.4,26.51,2.2,27C.73,27.31,0,28.06,0,29.88H24.07A8.12,8.12,0,0,1,21.9,25.47Z"/><path class="cls-1" d="M22.65,20.62l-.11-2.38.32-.85.83-2.88.32.1.42-.32.52-2-.11-1L24.32,11l.73-2.66s-.41-3.42-2.82-4.38a6.55,6.55,0,0,0-5.64-3l.09.11a6.52,6.52,0,0,1,4.38,2.88c2.4,1,2.82,4.38,2.82,4.38L23.15,11l.52.32.11,1-.53,2-.41.32-.32-.1-.83,2.88-.32.85.11,2.46a11.86,11.86,0,0,0,.62,1.36A8.07,8.07,0,0,1,22.65,20.62Z"/><path class="cls-1" d="M25.92,20.87a4.65,4.65,0,1,0,6.58-.11A4.65,4.65,0,0,0,25.92,20.87Zm5.76,5.58a3.37,3.37,0,1,1-.08-4.76A3.37,3.37,0,0,1,31.68,26.45Z"/><rect class="cls-1" x="32.96" y="25.69" width="1.47" height="5.38" rx="0.34" ry="0.34" transform="translate(-10.14 32.85) rotate(-45.93)"/></g></g></svg>