<svg id="图层_1" data-name="图层 1" xmlns="http://www.w3.org/2000/svg" xmlns:xlink="http://www.w3.org/1999/xlink" viewBox="0 0 72 72"><defs><style>.cls-1,.cls-2{fill:none;}.cls-2{clip-rule:evenodd;}.cls-3{fill:#435068;}.cls-4{clip-path:url(#clip-path);}.cls-5{clip-path:url(#clip-path-2);}</style><clipPath id="clip-path"><rect class="cls-1" x="-151.99" y="307" width="72" height="72"/></clipPath><clipPath id="clip-path-2"><path class="cls-2" d="M-122.93,329.71V325l-12.61,0,0,37.13h39.07V329.71Zm-1.66,29V353q.17,0,10.57,0a4.63,4.63,0,0,0,4.63-4.63,4.63,4.63,0,0,0-4.63-4.63l-4.93.13,2.14,2.14-2.84,2.84-5.27-5.41-2.84-2.84,2.84-2.84,5.27-5.27,2.84,2.84-2.42,2.42H-114a10.61,10.61,0,0,1,10.61,10.6A10.42,10.42,0,0,1-114,358.77Z"/></clipPath></defs><title>洞鉴5.1图标</title><polygon class="cls-3" points="4.07 4.11 16.46 4.11 16.46 0 0.03 0 0.03 16.43 4.07 16.46 4.07 4.11"/><polygon class="cls-3" points="55.54 0 55.54 4.11 67.89 4.11 67.89 16.46 72 16.46 72 0 55.54 0"/><polygon class="cls-3" points="4.11 55.54 0 55.54 0 72 16.46 72 16.46 67.89 4.11 67.89 4.11 55.54"/><polygon class="cls-3" points="67.89 67.89 55.54 67.89 55.54 72 72 72 72 55.54 67.89 55.54 67.89 67.89"/><path class="cls-3" d="M50.22,51.44c-3.1-1.27-6.81-1.9-9.44-2.85-2.06-.74-3.72-5.22-3.72-5.22l-.15-3.64.46-1.27,1.24-4.27.46.16.62-.47.77-3-.15-1.42L39.54,29l1.08-4S40,20,36.44,18.55a9.71,9.71,0,0,0-8.36-4.43L29,15.22l-1.7-.47.31.63-1.24-.32L25,15.86l-.77,1.27-2,1.42L20,21.71l.62-.16L20,22.62s-.21.26-.3,1.78l.46-.16-.31,1.47.31-.2.15,1.9.46,1.9-.77.32-.46,1.11.93,3.48.77.63h.62L23,38.47l.77,1.58.15,3.48s-1,4.09-3.87,4.9S15.25,50.25,12,51c-2.17.47-3.42,1.75-3.42,4.44H52.69S52.34,52.31,50.22,51.44Z"/><path class="cls-3" d="M58.23,54.38s-.36-3.14-2.51-4c-3.14-1.28-6.91-1.93-9.58-2.89-2.09-.76-3.77-5.29-3.77-5.29l-.16-3.69.47-1.28,1.26-4.33.47.16.63-.48.79-3-.16-1.44-.79-.48,1.1-4s-.63-5.13-4.24-6.58a9.85,9.85,0,0,0-8.48-4.49l.14.16A9.76,9.76,0,0,1,40,17c3.61,1.44,4.24,6.58,4.24,6.58l-1.1,4,.79.48.16,1.44-.79,3-.63.48-.47-.16L40.95,37.2l-.47,1.28.16,3.69s1.67,4.54,3.77,5.29c2.67,1,6.44,1.6,9.58,2.89,2.15.88,2.51,4,2.51,4Z"/><polygon class="cls-3" points="31.03 14.15 30.99 14.17 31.05 14.18 31.03 14.15"/><path class="cls-3" d="M45.22,17c3.61,1.44,4.24,6.58,4.24,6.58l-1.1,4,.79.48.16,1.44-.79,3-.63.48-.47-.16L46.16,37.2l-.47,1.28.16,3.69s1.67,4.54,3.77,5.29c2.67,1,6.44,1.6,9.58,2.89,2.15.88,2.51,4,2.51,4h1.74s-.36-3.14-2.51-4c-3.14-1.28-6.91-1.93-9.58-2.89-2.09-.76-3.77-5.29-3.77-5.29l-.16-3.69.47-1.28,1.26-4.33.47.16.63-.48.79-3-.16-1.44-.79-.48,1.1-4S50.57,18.43,47,17a9.85,9.85,0,0,0-8.48-4.49l.14.16A9.76,9.76,0,0,1,45.22,17Z"/></svg>