<svg id="图层_1" data-name="图层 1" xmlns="http://www.w3.org/2000/svg" viewBox="0 0 72 72"><defs><style>.cls-1{fill:#435068;}</style></defs><title>画板 187</title><rect class="cls-1" x="1" y="22.4" width="54.4" height="42.78" rx="1.7" ry="1.7"/><path class="cls-1" d="M61.5,14.6H10.1a1.2,1.2,0,0,0-1.2,1.2v1.5a1.2,1.2,0,0,0,1.2,1.2H57.7a1.6,1.6,0,0,1,1.6,1.7V56a1.3,1.3,0,0,0,1.3,1.3H62A1.2,1.2,0,0,0,63.2,56V16.3A1.7,1.7,0,0,0,61.5,14.6Z"/><path class="cls-1" d="M69.1,6.8H17.8a1.3,1.3,0,0,0-1.3,1.3V9.5a1.2,1.2,0,0,0,1.3,1.2H65.2a2,2,0,0,1,1.9,2V48.4a1.2,1.2,0,0,0,1.2,1.2h1.5A1.2,1.2,0,0,0,71,48.4V8.8A2,2,0,0,0,69.1,6.8Z"/></svg>