<svg xmlns="http://www.w3.org/2000/svg" viewBox="0 0 48 48"><defs><style>.cls-1{fill:#dce1e5;}</style></defs><title>资源 16</title><g id="图层_2" data-name="图层 2"><g id="图层_24" data-name="图层 24"><path id="Fill-1" class="cls-1" d="M-2637.72-1811.07a1.71,1.71,0,0,0-1.61,1.79,1.7,1.7,0,0,0,1.61,1.78,1.7,1.7,0,0,0,1.62-1.78,1.71,1.71,0,0,0-1.62-1.79" transform="translate(2660 1827)"/><polygon class="cls-1" points="4.38 11.82 0 11.82 0 0 11.82 0 11.82 4.38 4.38 4.38 4.38 11.82"/><polygon class="cls-1" points="48 11.82 43.62 11.82 43.62 4.38 36.18 4.38 36.18 0 48 0 48 11.82"/><polygon class="cls-1" points="11.82 48 0 48 0 36.18 4.38 36.18 4.38 43.62 11.82 43.62 11.82 48"/><polygon class="cls-1" points="48 48 36.18 48 36.18 43.62 43.62 43.62 43.62 36.18 48 36.18 48 48"/><path class="cls-1" d="M-2619.75-1793.2c-2-.83-4.44-1.24-6.16-1.86-1.35-.48-2.42-3.4-2.42-3.4l-.1-2.37.3-.83.81-2.78.3.1.4-.31.51-1.95-.1-.93-.51-.31.71-2.58s-.4-3.3-2.73-4.22a6.32,6.32,0,0,0-5.45-2.89l.1.12a6.23,6.23,0,0,1,4.17,2.77c2.33.92,2.73,4.22,2.73,4.22l-.71,2.58.51.31.1.93-.51,1.95-.4.31-.3-.1-.81,2.78-.3.83.1,2.37s1.07,2.92,2.42,3.4c1.72.62,4.14,1,6.16,1.86a3.54,3.54,0,0,1,1.72,2.47h1.17A3.51,3.51,0,0,0-2619.75-1793.2Z" transform="translate(2660 1827)"/><path class="cls-1" d="M-2638.23-1815.94l.2.41-.81-.2-.91.51-.5.83-1.31.93-1.42,2.06.41-.11-.41.7s-.14.17-.2,1.16l.31-.1-.21,1,.21-.13.1,1.24.3,1.23-.51.21-.3.72.61,2.27.5.41h.41l.7,2.37.51,1,.1,2.27s-.65,2.67-2.53,3.2-3.11,1.18-5.25,1.65c-1.41.31-2.12,1-2.12,2.78h28.78a3.54,3.54,0,0,0-1.72-2.47c-2-.83-4.44-1.24-6.16-1.86-1.34-.49-2.42-3.4-2.42-3.4l-.1-2.37.3-.83.81-2.78.3.1.4-.31.51-2-.1-.93-.51-.31.71-2.58s-.4-3.3-2.73-4.22a6.32,6.32,0,0,0-5.45-2.89l.61.72Z" transform="translate(2660 1827)"/></g></g></svg>