<svg id="图层_1" data-name="图层 1" xmlns="http://www.w3.org/2000/svg" viewBox="0 0 48 48"><defs><style>.cls-1,.cls-2{fill:#d1d5dd;}.cls-2{stroke:#fff;stroke-miterlimit:10;stroke-width:0.5px;}</style></defs><title>ethnic</title><path class="cls-1" d="M12.48,15.62l.17,2.07.51,2.07-.84.34-.51,1.21,1,3.79.84.69h.67l1.18,4,.84,1.72.17,3.79s-1.09,4.45-4.22,5.34-5.21,2-8.77,2.76C1.18,43.87,0,45.07,0,48H48.07s-.56-3.19-2.87-4.13c-3.37-1.38-7.42-2.07-10.29-3.1-2.25-.81-4-5.68-4-5.68l-.17-4,.51-1.38,1.35-4.65.51.17.67-.52.84-3.27-.17-1.55-.84-.52,1.18-4.31S34.07,9.59,30.19,8a10.58,10.58,0,0,0-9.11-4.82l1,1.21-1.86-.52.34.69-1.35-.34-1.52.86-.84,1.38L14.68,8l-2.36,3.44.67-.17-.69,1.16"/><rect class="cls-2" x="11.49" y="3.42" width="23.54" height="10.41" rx="0.23" ry="0.23"/></svg>