<svg id="图层_1" data-name="图层 1" xmlns="http://www.w3.org/2000/svg" viewBox="0 0 48 48"><defs><style>.cls-1{fill:#435068;}</style></defs><title>zip_rar</title><polygon class="cls-1" points="16 37.8 16 37.8 0 37.8 0 42.5 48 42.5 48 37.8 16 37.8"/><polygon class="cls-1" points="41.14 10.53 41.14 12.81 36.57 12.81 36.57 15.1 41.14 15.1 41.14 17.39 36.57 17.39 36.57 19.67 41.14 19.67 41.14 21.96 36.57 21.96 36.57 24.24 41.14 24.24 41.14 26.53 36.57 26.53 36.57 28.82 41.14 28.82 41.14 31.1 36.57 31.1 36.57 33.39 41.14 33.39 41.14 35.67 41.14 37.96 48 37.96 48 10.53 41.14 10.53"/><polygon class="cls-1" points="32 31.1 36.57 31.1 36.57 28.82 32 28.82 32 26.53 36.57 26.53 36.57 24.24 32 24.24 32 21.96 36.57 21.96 36.57 19.67 32 19.67 32 17.39 36.57 17.39 36.57 15.1 32 15.1 32 12.81 32 10.53 16 10.53 16 5.96 0 5.96 0 37.96 32 37.96 32 35.67 36.57 35.67 36.57 33.39 32 33.39 32 31.1"/></svg>