<svg xmlns="http://www.w3.org/2000/svg" viewBox="0 0 35.48 35.48"><defs><style>.cls-1{fill:none;stroke:#435068;stroke-miterlimit:10;stroke-width:1.48px;}.cls-2{fill:#435068;}</style></defs><title>路人检索</title><g id="Layer_2" data-name="Layer 2"><g id="图层_1" data-name="图层 1"><polyline class="cls-1" points="0.74 8.25 0.74 0.74 8.25 0.74"/><polyline class="cls-1" points="34.74 8.25 34.74 0.74 27.23 0.74"/><polyline class="cls-1" points="0.74 27.23 0.74 34.74 8.25 34.74"/><polyline class="cls-1" points="34.74 27.23 34.74 34.74 27.23 34.74"/><path class="cls-2" d="M15.65,4.32l.18.37-.74-.18L14.25,5l-.46.75-1.21.83-1.3,1.86.37-.09L11.27,9s-.13.15-.18,1l.28-.09-.19.87.19-.13.09,1.12.28,1.12-.46.18-.28.65.55,2,.47.37h.37L13,18.27l.47.93.09,2.05s-.6,2.4-2.32,2.88S8.4,25.2,6.44,25.62a2.18,2.18,0,0,0-1.95,2.51H31a3.16,3.16,0,0,0-1.58-2.23c-1.86-.75-4.09-1.12-5.67-1.68-1.24-.43-2.23-3.07-2.23-3.07L21.41,19l.28-.75.75-2.51.27.09.38-.28.46-1.76L23.46,13,23,12.69l.66-2.32s-.38-3-2.52-3.82a5.83,5.83,0,0,0-5-2.6l.56.65Z"/></g></g></svg>