<svg id="图层_1" data-name="图层 1" xmlns="http://www.w3.org/2000/svg" viewBox="0 0 20.35 26"><defs><style>.cls-1{fill:#a9ddfd;}</style></defs><title>密码01</title><rect class="cls-1" y="13.48" width="20.35" height="12.52"/><path class="cls-1" d="M15.25,23.23H10.87a4.7,4.7,0,0,1-4.7-4.7V4.7A4.7,4.7,0,0,1,10.87,0h4.38a4.7,4.7,0,0,1,4.7,4.7V18.53A4.7,4.7,0,0,1,15.25,23.23ZM10.87,3.13A1.57,1.57,0,0,0,9.3,4.7V18.53a1.57,1.57,0,0,0,1.57,1.57h4.38a1.57,1.57,0,0,0,1.57-1.57V4.7a1.57,1.57,0,0,0-1.57-1.57Z" transform="translate(-2.83)"/></svg>