<svg id="图层_1" data-name="图层 1" xmlns="http://www.w3.org/2000/svg" viewBox="0 0 72 72"><defs><style>.cls-1{fill:#435068;}</style></defs><title>画板 32</title><path class="cls-1" d="M37.9,35.4c-.7-2.5-1.6-5.5-2.4-8.1a33.8,33.8,0,0,0-2.1-6.1c-1.6-2.2-3.7-2.1-5-2.4a3.9,3.9,0,0,1-2.1-2.1h-.1V15.2l.2-.5.5-1.8H27l.3-.2.3-1.2V11l-.3-.2.5-1.6s-.3-2-1.7-2.6a3.9,3.9,0,0,0-3.4-1.8l.4.5-.7-.2v.3l-.5-.2-.5.3-.3.6-.9.5-.8,1.3h.2l-.2.5s-.1.1-.2.7h.2v.6h.1v.8l.2.8h-.3l-.2.4.4,1.4.3.3h.2l.5,1.5.3.6v1.4a3.9,3.9,0,0,1-2.1,2.1c-1.3.4-3.4.2-5.1,2.5S8.2,39.2,8.1,39.9a2.2,2.2,0,0,0,1.4,2.8,2.5,2.5,0,0,0,2.9-.8c.3-.7,3.2-10,3.2-10s.7,34.8.7,36.3.4,2.5,2.9,2.5,3-1.8,3-2.3.7-26.7.7-26.8h1.3c.1.5.7,25.3.8,26.8s-.2,2.2,3,2.2,2.9-.8,2.9-2.4.7-36.3.7-36.3,2.9,9.3,3.2,10a2.5,2.5,0,0,0,2.9.8c1.5-.5,1.5-2.2,1.4-2.8S38.6,37.8,37.9,35.4Z"/><path class="cls-1" d="M63.9,33.2c-.1-.6-4.4-16.1-5.2-17.3s-3.5-2-4.8-2.3S52,11.7,52,11.7h0V10.3l.2-.5.4-1.6h.4l.3-1.2V6.4l-.3-.2.4-1.4a3.3,3.3,0,0,0-1.6-2.5A3.6,3.6,0,0,0,48.6.7l.3.4L48.3.9v.2H48l-.6.3-.3.5-.7.5-.8,1.2h.2l-.2.4s-.1.1-.1.7h.1V5h.1v.7l.2.8h-.3l-.2.4.4,1.3.2.2h.3l.4,1.4.3.6v1.3s-.6,1.6-1.9,1.9-3.2.3-4.7,2.3-2,5.7-3.3,10.2c.8,2.6,1.6,5.6,2.3,8.1l2.7-8.4s.6,32.3.6,33.8.4,2.2,2.7,2.2,2.8-1.6,2.8-2.1.7-24.8.7-24.9h1.2c0,.5.6,23.5.7,24.9s-.1,2.1,2.8,2.1,2.7-.8,2.7-2.3.6-33.7.6-33.7,2.7,8.6,3.1,9.3a2.1,2.1,0,0,0,2.6.7C64,35.4,64,33.8,63.9,33.2Z"/></svg>