<svg id="图层_1" data-name="图层 1" xmlns="http://www.w3.org/2000/svg" viewBox="0 0 72 72"><defs><style>.cls-1{fill:#435068;}</style></defs><title>视频结构化图标20180830</title><g id="图层_2" data-name="图层 2"><g id="图层_1-2" data-name="图层 1-2"><path class="cls-1" d="M32.12,25.47l-.57-4.64A39.43,39.43,0,0,0,31,16.2a5.36,5.36,0,0,0-1.74-3h-.06a1.19,1.19,0,0,0-.42-.28c-1.17-.46-2.57-.68-3.56-1-.78-.26-1.4-1.86-1.4-1.86l-.06-1.3.18-.45.46-1.52.18.06.23-.17.29-1L25,5.15,24.72,5l.41-1.41a3,3,0,0,0-1.57-2.33,3.7,3.7,0,0,0-3.1-1.58l.35.39-.69-.16.11.22L19.77,0l-.53.28L19,.73l-.76.51-.81,1.13.23-.06-.24.35a1.55,1.55,0,0,0-.11.63l.2,0-.12.52.12-.07V4.4l.18.67-.29.12-.18.39.35,1.24.29.23h.24l.41,1.29.29.57.06,1.24s-.35,1.45-1.43,1.74-1.8.65-3,.91a1.31,1.31,0,0,0-1.18.86,5.83,5.83,0,0,0-1.63,3.61,30.09,30.09,0,0,1-.48,5l.22,5.24-.85,3.39,1.14,7.31-.34,1.84-.05,2,.8,1,1.32.37.64-.94-.15-1.31.44-.28-.15,3,.26,3.62L15.05,51l.41,2.15-.94,3.73.12,2.44.41,3.3.27,4.14-.54,1,.14,1-2.18,1.65-.8.18.12.85h5.57l.13-1.06-.3-1.05.27-1.09-.1-1.22.54-3.68.69-3.26.54-3.66L19,52.92l.55-1.49c.08-.25.37-1.92.4-2.18l.41-2.59L21,42.72l.61-4.62.21-.07.23.07.07,1.12.16,3.44L23,46.2,24,49.66a17.84,17.84,0,0,0,.61,1.83l.13,1.1-.46,4.07.12,3,.89,3.23.45,4.2-.17.88.22.83-.2,1-.46,1,.16.73h5.35l.11-.86-2.42-1.58-.17-.62.32-.81-.28-.83.24-4.71.48-3.46L29,56.22l-.49-3.3-.12-2L29.05,48l.19-4.16,0-1,.7.16L31,42.66,31.46,41l-.31-2.23V37l1-5.12V28.39ZM14,38.74,13.35,38l.44-6.42-.21-3.13.31-1.41L14.68,24l.11-1,.4,1.59.6,3.64v2.33l-.53,2.07L14.86,35v.75l-.5,3L14.3,40Zm15.21-1.8L28.88,38l-.07-.44V34.9l-.5-2.33-.6-2-.15-2.33L28,24.59l.13-1.71.32,1.74.73,2.79.23,2L29,32Z"/><path class="cls-1" d="M63.06,39.79l-.39-1.73L61.4,31.72l-.46-2-.19-1.94s.32-5.87.37-8a8.13,8.13,0,0,0-.55-3,1.22,1.22,0,0,0-1.11-1.12A17.12,17.12,0,0,1,57.31,15L57.24,14l-.33-1.66L57,10.21,57.41,8,57.3,5.41A6.32,6.32,0,0,0,55.84,3.6,6,6,0,0,0,53,3.05a2.19,2.19,0,0,0-1.21.5,4,4,0,0,0-1.35.22s-.44.44-.83.88a3.18,3.18,0,0,0-.49,2.23,15.89,15.89,0,0,1-.28,3,17.92,17.92,0,0,0-.06,2.26L49,14.93c-.94.32-2.23.53-3.32,1a1.86,1.86,0,0,0-1,1.29h.08A25.33,25.33,0,0,0,43.63,21c-.36,1.86-.61,4.52-.61,4.52l-.56,4-.28,2.87,1,5.57-.32,1.71-.08,1.89.7,1.59,1.25.5.49-.36L44.46,42l.37-1.73.63,1.07.12-.57-.36-1.41-.76-1.46.2-5.11-.2-2.26v-.78l1-2.81,1-5.07L48.06,29l-.66,3-.66,1.76-.39,1.43-.38,2L46,38.66l-.26,1.68v5L46.15,49,46.27,52l-.12,1.86-.39,3.09v2.37l.5,3.31.18,3.83v2.15l-1,1.51-1,.57.12.82h4.7l.18-.92-.88-1.64-.12-1.26.62-4.84.62-3V54.25L50,52.53c.07-.24.45-1.49.48-1.73L51.05,48l.83-3.86.4-3.37.06-1,.45-.15.46.15.06,1,.47,3.37.63,3.58.25,2.77c0,.24.36,2,.44,2.27v1l-.75,3.86v2.81l.17,3-.28,4.24L53.91,70l-.25.69.15.91h6.72l-.06-.91-1.61-.42-2.3-1.57.32-2.08.66-3.84.67-3.16.38-2.26-.13-3,.29-1.94.36-2.14.48-4.89V38.66l.06-1.28-.27-3-.78-2.54-.66-2.92.41-2.26.37,3.25V31l.65,2.41,1.94,4.62-.56,1.42-.36,1.42.12.57.61-1.08.34,1.7-.8,1.33.49.36,1.31-.51.68-1.6Z"/></g></g></svg>