<?xml version="1.0" encoding="UTF-8"?>
<svg width="14px" height="15px" viewBox="0 0 14 15" version="1.1" xmlns="http://www.w3.org/2000/svg" xmlns:xlink="http://www.w3.org/1999/xlink">
    <!-- Generator: Sketch 50.2 (55047) - http://www.bohemiancoding.com/sketch -->
    <title>ion-android-hand - Ionicons</title>
    <desc>Created with Sketch.</desc>
    <defs></defs>
    <g id="Page-1" stroke="none" stroke-width="1" fill="none" fill-rule="evenodd">
        <g id="1.1-地图模式" transform="translate(-128.000000, -252.000000)" fill="#435068">
            <g id="Group-6" transform="translate(115.000000, 105.000000)">
                <path d="M26.4188992,155.102679 C27.0215808,155.70536 27.0550626,156.274551 26.5193456,156.810268 C24.3764777,159.109386 22.9702418,160.459819 22.3005956,160.861607 C21.2961263,161.62054 20.180066,162 18.9523813,162 C18.0371982,162 17.2224742,161.732146 16.5081849,161.196429 C15.7938956,160.660712 15.3028291,159.979915 15.0349706,159.154018 L15.0349706,159.120536 L15.0014885,159.087054 L15.0014885,159.020089 L13.0595242,152.691964 C12.970238,152.446427 12.9813986,152.200894 13.0930063,151.955357 C13.204614,151.70982 13.3831837,151.542411 13.6287206,151.453125 C13.8742575,151.363839 14.1086302,151.38058 14.3318456,151.503348 C14.555061,151.626117 14.7113094,151.810267 14.8005956,152.055804 L15.9389885,155.002232 L15.9724706,155.069196 C15.9947921,155.046875 16.0059527,155.013393 16.0059527,154.96875 L15.2693456,149.578125 C15.2247025,149.332588 15.2749252,149.098215 15.4200152,148.875 C15.5651053,148.651785 15.7604158,148.517857 16.0059527,148.473214 C16.2514897,148.428571 16.4858623,148.484374 16.7090777,148.640625 C16.9322932,148.796876 17.0662204,148.997767 17.1108635,149.243304 L17.947917,153.863839 L18.0148813,153.863839 L18.0148813,147.9375 C18.0148813,147.691963 18.1097464,147.474331 18.2994795,147.284598 C18.4892126,147.094865 18.7068444,147 18.9523813,147 C19.1979183,147 19.41555,147.094865 19.6052831,147.284598 C19.7950162,147.474331 19.8898813,147.691963 19.8898813,147.9375 L20.1577385,153.796875 C20.18006,153.886161 20.2247024,153.897322 20.291667,153.830357 L21.0617563,149.310268 C21.1063994,149.064731 21.229166,148.85826 21.4300599,148.690848 C21.6309538,148.523437 21.8541658,148.450893 22.0997027,148.473214 C22.3452397,148.517857 22.5517108,148.646204 22.7191224,148.858259 C22.8865339,149.070314 22.9590779,149.299106 22.9367563,149.544643 L22.2336313,155.303571 C22.1666667,155.995539 22.1889879,156.397321 22.3005956,156.508929 C22.6130972,156.843752 22.9590759,156.82143 23.338542,156.441964 L24.744792,155.035714 C25.280509,154.499997 25.8385391,154.522319 26.4188992,155.102679 Z" id="ion-android-hand---Ionicons"></path>
            </g>
        </g>
    </g>
</svg>