<svg id="图层_1" data-name="图层 1" xmlns="http://www.w3.org/2000/svg" viewBox="0 0 72 72"><defs><style>.cls-1{fill:#94a9c9;}.cls-2{fill:#21539a;}.cls-3{fill:#fff;}</style></defs><title>未标题-1</title><polygon class="cls-1" points="52.75 62.19 9.75 62.19 9.75 19.19 62.35 9.59 52.75 62.19"/><path class="cls-2" d="M25.35,16.39a1.51,1.51,0,0,0-1.8-1.2l-3,.6a1.49,1.49,0,0,0-1.1,1.8,1.6,1.6,0,0,0,1.4,1.2h.3l3-.5A1.72,1.72,0,0,0,25.35,16.39Z"/><path class="cls-2" d="M9.75,45.89a1.54,1.54,0,0,0,1.5-1.5v-3a1.55,1.55,0,0,0-1.7-1.3,1.72,1.72,0,0,0-1.3,1.3v3A1.54,1.54,0,0,0,9.75,45.89Z"/><path class="cls-2" d="M28.45,60.69h-3a1.55,1.55,0,0,0-1.3,1.7,1.72,1.72,0,0,0,1.3,1.3h3a1.55,1.55,0,0,0,1.3-1.7A1.72,1.72,0,0,0,28.45,60.69Z"/><path class="cls-2" d="M40.65,60.69h-3a1.55,1.55,0,0,0-1.3,1.7,1.72,1.72,0,0,0,1.3,1.3h3A1.55,1.55,0,0,0,42,62,1.72,1.72,0,0,0,40.65,60.69Z"/><path class="cls-2" d="M37.35,14.19a1.51,1.51,0,0,0-1.8-1.2l-3,.5a1.49,1.49,0,0,0-1.1,1.8,1.6,1.6,0,0,0,1.4,1.2h.2l3-.5A1.63,1.63,0,0,0,37.35,14.19Z"/><path class="cls-2" d="M45.05,14.29l3-.5a1.46,1.46,0,0,0,1.2-1.8,1.51,1.51,0,0,0-1.8-1.2l-3,.5a1.49,1.49,0,0,0-1.1,1.8,1.6,1.6,0,0,0,1.4,1.2Z"/><path class="cls-2" d="M9.75,10.49a8.71,8.71,0,0,0-.7,17.4,1.56,1.56,0,0,0-.8,1.3v3a1.51,1.51,0,0,0,3,.4v-3.5a1.34,1.34,0,0,0-.8-1.3,8.66,8.66,0,0,0-.7-17.3Zm0,14.3a5.55,5.55,0,0,1-5.6-5.7,5.61,5.61,0,0,1,5.7-5.6,5.55,5.55,0,0,1,5.6,5.7A5.74,5.74,0,0,1,9.75,24.79Z"/><path class="cls-2" d="M11.25,53.69v-.1a1.51,1.51,0,0,0-3-.4v.6a8.73,8.73,0,1,0,10.1,7.1A8.6,8.6,0,0,0,11.25,53.69Zm.6,8.7a1.72,1.72,0,0,0,1.3,1.3h2a5.56,5.56,0,0,1-5.4,4.2,5.66,5.66,0,0,1-1.5-11.1,1.51,1.51,0,0,0,3,0,5.49,5.49,0,0,1,3.9,3.9h-2A1.55,1.55,0,0,0,11.85,62.39Z"/><path class="cls-2" d="M62.35.89a8.7,8.7,0,1,0,8.7,8.7A8.71,8.71,0,0,0,62.35.89Zm5.6,9.3a5.64,5.64,0,0,1-10.7,1.9l2.8-.5a1.46,1.46,0,0,0,1.2-1.8,1.51,1.51,0,0,0-1.8-1.2l-2.8.5A5.65,5.65,0,0,1,62.85,4,5.58,5.58,0,0,1,68,10.19Z"/><path class="cls-2" d="M52.75,53.54a8.7,8.7,0,1,0,8.7,8.7A8.71,8.71,0,0,0,52.75,53.54Zm0,14.3a5.61,5.61,0,0,1-5.6-5.7,5.65,5.65,0,0,1,11.3,0A5.63,5.63,0,0,1,52.75,67.84Z"/><circle class="cls-3" cx="9.75" cy="19.19" r="5.7"/><circle class="cls-3" cx="9.82" cy="62.26" r="5.67"/><circle class="cls-3" cx="62.35" cy="9.59" r="5.7"/><circle class="cls-3" cx="52.79" cy="62.2" r="5.71"/></svg>