<svg id="图层_1" data-name="图层 1" xmlns="http://www.w3.org/2000/svg" xmlns:xlink="http://www.w3.org/1999/xlink" viewBox="0 0 48 48"><defs><style>.cls-1,.cls-7{fill:none;}.cls-2{clip-path:url(#clip-path);}.cls-3{opacity:0.4;}.cls-4{clip-path:url(#clip-path-2);}.cls-5{fill:#1b1a1a;}.cls-6{fill:#0c9ae4;fill-rule:evenodd;}.cls-7{stroke:#fff;stroke-miterlimit:10;}.cls-8{fill:#fff;}</style><clipPath id="clip-path"><path class="cls-1" d="M18.34,45c0,1.1,2.81,2,6.27,2s6.27-.9,6.27-2-2.81-2-6.27-2-6.27.9-6.27,2"/></clipPath><clipPath id="clip-path-2"><rect class="cls-1" x="12.07" y="37" width="25.09" height="14"/></clipPath></defs><title>radius_camera_default</title><g class="cls-2"><g class="cls-3"><g class="cls-4"><rect class="cls-5" x="12.07" y="37" width="25.09" height="14"/></g></g></g><path class="cls-6" d="M24.61,1h0A13.78,13.78,0,0,0,10.87,15a13.28,13.28,0,0,0,.86,4.53C12.43,21.46,24,44.39,24,44.39l.09.14c.21.35.35.45.5.46h0c.15,0,.29-.11.5-.46l.09-.14S36.79,21.46,37.49,19.53A13.28,13.28,0,0,0,38.35,15,13.78,13.78,0,0,0,24.61,1"/><path class="cls-7" d="M24.61,1h0A13.78,13.78,0,0,0,10.87,15a13.28,13.28,0,0,0,.86,4.53C12.43,21.46,24,44.39,24,44.39l.09.14c.21.35.35.45.5.46h0c.15,0,.29-.11.5-.46l.09-.14S36.79,21.46,37.49,19.53A13.28,13.28,0,0,0,38.35,15,13.78,13.78,0,0,0,24.61,1Z"/><path class="cls-8" d="M33.61,16.74V13c-1.48-1.56-5.17-2.71-9-2.7s-7.6,1.13-9,2.63v3.81s8.78-3.79,18,0"/><path class="cls-8" d="M24.54,16.43a27.18,27.18,0,0,0-7.26,1.07c0,4.34,3.28,8.49,7.33,8.49s7.33-4.15,7.33-8.49a30,30,0,0,0-7.4-1.07m.07,8.44a3.51,3.51,0,1,1,3.51-3.5,3.5,3.5,0,0,1-3.51,3.5"/><path class="cls-8" d="M26.36,21.37a1.75,1.75,0,1,1-1.75-1.75,1.75,1.75,0,0,1,1.75,1.75"/></svg>