<svg id="图层_1" data-name="图层 1" xmlns="http://www.w3.org/2000/svg" xmlns:xlink="http://www.w3.org/1999/xlink" viewBox="0 0 48 48"><defs><style>.cls-1,.cls-7{fill:none;}.cls-2{clip-path:url(#clip-path);}.cls-3{opacity:0.4;}.cls-4{clip-path:url(#clip-path-2);}.cls-5{fill:#1b1a1a;}.cls-6,.cls-9{fill:#226edd;}.cls-6{fill-rule:evenodd;}.cls-7{stroke:#fff;stroke-miterlimit:10;}.cls-8{fill:#fff;}</style><clipPath id="clip-path"><path class="cls-1" d="M17.73,45c0,1.1,2.81,2,6.27,2s6.27-.9,6.27-2S27.47,43,24,43s-6.27.9-6.27,2"/></clipPath><clipPath id="clip-path-2"><rect class="cls-1" x="11.46" y="37" width="25.09" height="14"/></clipPath></defs><title>radius_camera_video</title><g class="cls-2"><g class="cls-3"><g class="cls-4"><rect class="cls-5" x="11.45" y="37" width="25.09" height="14"/></g></g></g><path class="cls-6" d="M24,1h0A13.78,13.78,0,0,0,10.26,15a13.29,13.29,0,0,0,.86,4.53c.69,1.93,12.28,24.85,12.28,24.85l.09.14c.21.35.35.45.5.46h0c.15,0,.29-.11.5-.46l.09-.14S36.18,21.46,36.88,19.53A13.28,13.28,0,0,0,37.74,15,13.78,13.78,0,0,0,24,1"/><path class="cls-7" d="M24,1h0A13.78,13.78,0,0,0,10.26,15a13.29,13.29,0,0,0,.86,4.53c.69,1.93,12.28,24.85,12.28,24.85l.09.14c.21.35.35.45.5.46h0c.15,0,.29-.11.5-.46l.09-.14S36.18,21.46,36.88,19.53A13.28,13.28,0,0,0,37.74,15,13.78,13.78,0,0,0,24,1Z"/><path class="cls-8" d="M29.15,7.12a4,4,0,1,0,4,4,4,4,0,0,0-4-4m2.27,4.23-3.14,2a.27.27,0,0,1-.41-.23V9.16a.27.27,0,0,1,.41-.23l3.15,2a.26.26,0,0,1,0,.46"/><path class="cls-8" d="M30.59,21.6V18.27c-1.32-1.39-4.6-2.41-8-2.4s-6.76,1-8,2.34V21.6a22.41,22.41,0,0,1,16,0"/><path class="cls-8" d="M29.1,22.27c0,3.86-2.92,7.55-6.51,7.55s-6.51-3.69-6.51-7.55a24.14,24.14,0,0,1,6.45-.95,26.64,26.64,0,0,1,6.58.95"/><path class="cls-9" d="M25.7,25.71a3.12,3.12,0,1,1-3.12-3.11,3.12,3.12,0,0,1,3.12,3.11"/><path class="cls-8" d="M24.15,25.71a1.56,1.56,0,1,1-1.56-1.56,1.56,1.56,0,0,1,1.56,1.56"/></svg>