<?xml version="1.0" encoding="UTF-8"?>
<svg width="40px" height="40px" viewBox="0 0 40 40" version="1.1" xmlns="http://www.w3.org/2000/svg" xmlns:xlink="http://www.w3.org/1999/xlink">
    <!-- Generator: Sketch 50.2 (55047) - http://www.bohemiancoding.com/sketch -->
    <title>3</title>
    <desc>Created with Sketch.</desc>
    <defs></defs>
    <g id="Page-1" stroke="none" stroke-width="1" fill="none" fill-rule="evenodd">
        <g id="战果" transform="translate(-1356.000000, -625.000000)">
            <g id="Group" transform="translate(1100.000000, 56.000000)">
                <g id="3" transform="translate(252.000000, 565.000000)">
                    <path d="M24,40.9411765 C14.6436466,40.9411765 7.05882353,33.3563534 7.05882353,24 C7.05882353,14.6436466 14.6436466,7.05882353 24,7.05882353 C33.3563534,7.05882353 40.9411765,14.6436466 40.9411765,24 C40.9411765,33.3563534 33.3563534,40.9411765 24,40.9411765 Z M29.3082353,29.0258824 L29.8729412,26.3152941 C29.8917648,26.2399996 29.9058823,26.1741179 29.9152941,26.1176471 C29.9247059,26.0611762 29.9294118,26.0047062 29.9294118,25.9482353 C29.9294118,25.2329376 29.6000033,24.6870607 28.9411765,24.3105882 C29.3364726,24.1599992 29.7129394,23.8917666 30.0705882,23.5058824 C30.4282371,23.1199981 30.6447055,22.7200021 30.72,22.3058824 L31.3129412,19.5952941 C31.4447065,19.0117618 31.5105882,18.5035316 31.5105882,18.0705882 C31.5105882,17.2988197 31.2517673,16.7858836 30.7341176,16.5317647 C30.216468,16.2776458 29.3082418,16.1505882 28.0094118,16.1505882 L22.6447059,16.1505882 C21.8541137,16.1505882 21.1952968,16.1929408 20.6682353,16.2776471 C20.1411738,16.3623534 19.6941195,16.5270576 19.3270588,16.7717647 C18.9599982,17.0164718 18.6682364,17.3647036 18.4517647,17.8164706 C18.235293,18.2682376 18.0423538,18.8611728 17.8729412,19.5952941 L17.6470588,20.7811765 L21.12,20.7811765 C21.1952945,20.4235276 21.2847054,20.1364717 21.3882353,19.92 C21.4917652,19.7035283 21.6235286,19.5341183 21.7835294,19.4117647 C21.9435302,19.2894112 22.150587,19.2047061 22.4047059,19.1576471 C22.6588248,19.110588 22.9741158,19.0870588 23.3505882,19.0870588 L26.0894118,19.0870588 C26.7482386,19.0870588 27.1905871,19.1341172 27.4164706,19.2282353 C27.6423541,19.3223534 27.7552941,19.5294102 27.7552941,19.8494118 C27.7552941,20.0000008 27.7082358,20.3105859 27.6141176,20.7811765 L27.5294118,21.1482353 C27.4352936,21.5435314 27.3458828,21.8541165 27.2611765,22.08 C27.1764702,22.3058835 27.0541184,22.4752936 26.8941176,22.5882353 C26.7341168,22.701177 26.5317659,22.7717646 26.2870588,22.8 C26.0423517,22.8282354 25.7129432,22.8423529 25.2988235,22.8423529 L22.5317647,22.8423529 L21.9105882,25.7788235 L25.3552941,25.7788235 C25.9952973,25.7788235 26.3152941,26.023527 26.3152941,26.5129412 C26.3152941,26.6823538 26.2682358,27.0023506 26.1741176,27.4729412 L26.1176471,27.84 C26.0423526,28.2164725 25.9623534,28.5129401 25.8776471,28.7294118 C25.7929408,28.9458834 25.6752949,29.1152935 25.5247059,29.2376471 C25.3741169,29.3600006 25.171766,29.4399998 24.9176471,29.4776471 C24.6635281,29.5152943 24.3200022,29.5341176 23.8870588,29.5341176 L21.12,29.5341176 C20.4799968,29.5341176 20.04706,29.4823535 19.8211765,29.3788235 C19.595293,29.2752936 19.4823529,29.0541193 19.4823529,28.7152941 C19.4823529,28.4894106 19.5199996,28.1976488 19.5952941,27.84 L16.1223529,27.84 L15.8964706,29.0258824 C15.7647052,29.6094147 15.6988235,30.1176449 15.6988235,30.5505882 C15.6988235,31.3223568 15.9529386,31.8352928 16.4611765,32.0894118 C16.9694143,32.3435307 17.8729347,32.4705882 19.1717647,32.4705882 L24.5364706,32.4705882 C25.36471,32.4705882 26.0470561,32.4235299 26.5835294,32.3294118 C27.1200027,32.2352936 27.567057,32.0611777 27.9247059,31.8070588 C28.2823547,31.5529399 28.5647048,31.2047081 28.7717647,30.7623529 C28.9788246,30.3199978 29.1576463,29.74118 29.3082353,29.0258824 Z" id="Combined-Shape" fill="#AE9A84"></path>
                    <path d="M24,43.7647059 C13.0842544,43.7647059 4.23529412,34.9157456 4.23529412,24 C4.23529412,13.0842544 13.0842544,4.23529412 24,4.23529412 C34.9157456,4.23529412 43.7647059,13.0842544 43.7647059,24 C43.7647059,34.9157456 34.9157456,43.7647059 24,43.7647059 Z M24,39.5294118 C32.5766573,39.5294118 39.5294118,32.5766573 39.5294118,24 C39.5294118,15.4233427 32.5766573,8.47058824 24,8.47058824 C15.4233427,8.47058824 8.47058824,15.4233427 8.47058824,24 C8.47058824,32.5766573 15.4233427,39.5294118 24,39.5294118 Z" id="Combined-Shape" fill="#B89E80"></path>
                </g>
            </g>
        </g>
    </g>
</svg>