<?xml version="1.0" encoding="UTF-8"?>
<svg width="28px" height="28px" viewBox="0 0 28 28" version="1.1" xmlns="http://www.w3.org/2000/svg" xmlns:xlink="http://www.w3.org/1999/xlink">
    <!-- Generator: Sketch 50.2 (55047) - http://www.bohemiancoding.com/sketch -->
    <title>1</title>
    <desc>Created with Sketch.</desc>
    <defs></defs>
    <g id="Page-1" stroke="none" stroke-width="1" fill="none" fill-rule="evenodd">
        <g id="战果" transform="translate(-1150.000000, -624.000000)">
            <g id="Group" transform="translate(1100.000000, 56.000000)">
                <g id="1" transform="translate(47.000000, 565.000000)">
                    <path d="M17,29 C10.372583,29 5,23.627417 5,17 C5,10.372583 10.372583,5 17,5 C23.627417,5 29,10.372583 29,17 C29,23.627417 23.627417,29 17,29 Z M16.88,23 L19.32,11.48 L14.9,11.48 L14.46,13.56 L16.42,13.56 L14.42,23 L16.88,23 Z" id="Combined-Shape" fill="#FBC647"></path>
                    <path d="M17,31 C9.2680135,31 3,24.7319865 3,17 C3,9.2680135 9.2680135,3 17,3 C24.7319865,3 31,9.2680135 31,17 C31,24.7319865 24.7319865,31 17,31 Z M17,28 C23.0751322,28 28,23.0751322 28,17 C28,10.9248678 23.0751322,6 17,6 C10.9248678,6 6,10.9248678 6,17 C6,23.0751322 10.9248678,28 17,28 Z" id="Combined-Shape" fill="#F3BC39"></path>
                </g>
            </g>
        </g>
    </g>
</svg>