<?xml version="1.0" encoding="UTF-8"?>
<svg width="40px" height="40px" viewBox="0 0 40 40" version="1.1" xmlns="http://www.w3.org/2000/svg" xmlns:xlink="http://www.w3.org/1999/xlink">
    <!-- Generator: Sketch 50.2 (55047) - http://www.bohemiancoding.com/sketch -->
    <title>2</title>
    <desc>Created with Sketch.</desc>
    <defs></defs>
    <g id="Page-1" stroke="none" stroke-width="1" fill="none" fill-rule="evenodd">
        <g id="战果" transform="translate(-1254.000000, -625.000000)">
            <g id="Group" transform="translate(1100.000000, 56.000000)">
                <g id="2" transform="translate(150.000000, 565.000000)">
                    <g id="Group" transform="translate(4.235294, 4.235294)">
                        <path d="M19.7647059,36.7058824 C10.4083525,36.7058824 2.82352941,29.1210593 2.82352941,19.7647059 C2.82352941,10.4083525 10.4083525,2.82352941 19.7647059,2.82352941 C29.1210593,2.82352941 36.7058824,10.4083525 36.7058824,19.7647059 C36.7058824,29.1210593 29.1210593,36.7058824 19.7647059,36.7058824 Z M25.7223529,28.2352941 L26.3435294,25.2988235 L16.3482353,25.2988235 L16.8,23.2376471 C16.9317654,22.5788202 17.0964696,22.1317659 17.2941176,21.8964706 C17.4917657,21.6611753 17.8447033,21.5435294 18.3529412,21.5435294 L23.2941176,21.5435294 C23.8588264,21.5435294 24.3905857,21.4729419 24.8894118,21.3317647 C25.3882378,21.1905875 25.8352921,20.9929424 26.2305882,20.7388235 C26.6258843,20.4847046 26.9552928,20.1741195 27.2188235,19.8070588 C27.4823543,19.4399982 27.661176,19.0400022 27.7552941,18.6070588 L28.4329412,15.36 C28.5835302,14.7011732 28.6588235,14.192943 28.6588235,13.8352941 C28.6588235,13.0635256 28.4000026,12.5505895 27.8823529,12.2964706 C27.3647033,12.0423517 26.4564771,11.9152941 25.1576471,11.9152941 L19.7929412,11.9152941 C19.002349,11.9152941 18.3388262,11.9529408 17.8023529,12.0282353 C17.2658797,12.1035298 16.8188253,12.2635282 16.4611765,12.5082353 C16.1035276,12.7529424 15.8164717,13.1011742 15.6,13.5529412 C15.3835283,14.0047081 15.1905891,14.6070551 15.0211765,15.36 L14.7670588,16.5458824 L18.2117647,16.5458824 C18.4564718,15.4164649 19.1999938,14.8517647 20.4423529,14.8517647 L23.2094118,14.8517647 C23.8682386,14.8517647 24.3058813,14.8988231 24.5223529,14.9929412 C24.7388246,15.0870593 24.8470588,15.294116 24.8470588,15.6141176 C24.8470588,15.8588248 24.8094121,16.1694099 24.7341176,16.5458824 L24.6494118,16.9129412 C24.5741173,17.27059 24.4988239,17.557646 24.4235294,17.7741176 C24.3482349,17.9905893 24.2352949,18.1599994 24.0847059,18.2823529 C23.9341169,18.4047065 23.731766,18.4894115 23.4776471,18.5364706 C23.2235281,18.5835296 22.8705905,18.6070588 22.4188235,18.6070588 L17.6752941,18.6070588 C16.6023476,18.6070588 15.7129447,18.9223498 15.0070588,19.5529412 C14.3011729,20.1835326 13.8352952,21.0258771 13.6094118,22.08 L12.2823529,28.2352941 L25.7223529,28.2352941 Z" id="Combined-Shape" fill="#E0DDD6"></path>
                        <path d="M19.7647059,39.5294118 C8.84896024,39.5294118 0,30.6804515 0,19.7647059 C0,8.84896024 8.84896024,0 19.7647059,0 C30.6804515,0 39.5294118,8.84896024 39.5294118,19.7647059 C39.5294118,30.6804515 30.6804515,39.5294118 19.7647059,39.5294118 Z M19.7647059,35.2941176 C28.3413632,35.2941176 35.2941176,28.3413632 35.2941176,19.7647059 C35.2941176,11.1880486 28.3413632,4.23529412 19.7647059,4.23529412 C11.1880486,4.23529412 4.23529412,11.1880486 4.23529412,19.7647059 C4.23529412,28.3413632 11.1880486,35.2941176 19.7647059,35.2941176 Z" id="Combined-Shape" fill="#DCD9D3"></path>
                    </g>
                </g>
            </g>
        </g>
    </g>
</svg>