<svg id="图层_1" data-name="图层 1" xmlns="http://www.w3.org/2000/svg" viewBox="0 0 72 72"><defs><style>.cls-1{fill:#435068;}</style></defs><title>视屏结构化图标分类</title><path class="cls-1" d="M70.91,54.84C70.05,57,72.67,61.22,68.85,62s-2.35-3.77-3.19-5.72c-4.9-11.46-20.29-16.16-29.52-15.81-3.33.13-2.44,2.36-2.76,4.22-.53,3.1,2,7.45-1.41,9.08C28,55.73,25.74,51,23,49,16.4,44,10.09,38.51,3.65,33.25.84,31-.37,28.8,3.24,26c7.83-6.13,15.55-12.41,23.23-18.73,1.77-1.46,3.5-3.08,5.81-1.92,2,1,1.07,3.29,1.11,5,.17,7.19,0,7.57,10.71,9.89C61.81,24.08,70,37.54,70.91,54.84Zm-4.7-7C61.87,29.72,49.29,24.38,37.4,23c-7.53-.87-7.65-.45-8.26-8.21-.24-3-.77-3.67-3.37-1.45C20.27,18.05,14.6,22.55,8.89,27c-2.5,1.95-2,3.28.19,5.08,4.92,4,9.58,8.26,14.55,12.18,1.32,1,2.63,3.33,4.5,2.5s1.09-3.33.93-5c-.48-4.86,1.71-6.13,6.14-5.53,10.09,1.35,20.3,2.24,27.92,10.31C63.66,47.14,64.67,47.25,66.21,47.88Z"/></svg>