<?xml version="1.0" encoding="utf-8"?>
<!-- Generator: Adobe Illustrator 21.1.0, SVG Export Plug-In . SVG Version: 6.00 Build 0)  -->
<svg version="1.1" id="图层_1" xmlns="http://www.w3.org/2000/svg" xmlns:xlink="http://www.w3.org/1999/xlink" x="0px" y="0px"
	 viewBox="0 0 72 72" style="enable-background:new 0 0 72 72;" xml:space="preserve">
<style type="text/css">
	.st0{fill:#435068;}
</style>
<title>洞鉴5.1图标</title>
<g>
	<path class="st0" d="M45,0H0.1v0.1v5.1V45H27V27h18V0L45,0z M6.7,41H4v-6.7l19-7.1v7.7L6.7,41z M4,26.6v-7.7L41,5v7.7L4,26.6z
		 M4,11.4V4h19.6L4,11.4z M34.1,23l6.9-2.6V23H34.1z"/>
	<path class="st0" d="M72,62.4V27H45v18H27.1v27h19.3H72h0L72,62.4L72,62.4z M31,54.8l37-13.9v7.7L31,62.5V54.8z M68,31v2.2
		l-18.9,7.1V31H68z M36.5,68L68,56.2v7.7L57,68H36.5z"/>
</g>
</svg>
