<svg xmlns="http://www.w3.org/2000/svg" xmlns:xlink="http://www.w3.org/1999/xlink" viewBox="0 0 36.53 34.63"><defs><style>.cls-1{fill:none;}.cls-2{fill:#fff;}.cls-3,.cls-4{fill:#435068;}.cls-3{stroke:#435068;stroke-miterlimit:10;stroke-width:0.75px;}.cls-5{clip-path:url(#clip-path);}</style><clipPath id="clip-path" transform="translate(0 -0.02)"><rect class="cls-1" width="31.78" height="32.62"/></clipPath></defs><title>战果填报</title><g id="Layer_2" data-name="Layer 2"><g id="图层_1" data-name="图层 1"><polygon class="cls-2" points="30.66 15.5 17.02 29.15 16.72 31.22 18.8 30.93 32.44 17.28 30.66 15.5"/><path class="cls-3" d="M30.66,12l-16,16-.89,6.23L20,33.32l16-16ZM18.79,31l-2.07.29.3-2.07L30.66,15.52l1.78,1.78Z" transform="translate(0 -0.02)"/><rect class="cls-4" x="28.51" y="14.41" width="2.52" height="7.55" transform="translate(-4.14 26.36) rotate(-45)"/><g class="cls-5"><path class="cls-4" d="M5.54,24.71v-.6a.66.66,0,0,1,.61-.61h8.56l.31-.3,4.63-4.53H6.15a.66.66,0,0,1-.61-.61v-.6a.66.66,0,0,1,.61-.61H21.57L27.51,11V1.13A1.11,1.11,0,0,0,26.41,0H9.17L1.31.12A1.19,1.19,0,0,0,0,1.33V31.06c0,.61.6,1.31,1.21,1.21H11.29l1.11-5.74v-.1c0-.2.2-1,.2-1.21H6.05c-.2.1-.51-.2-.51-.51ZM5.54,10a.66.66,0,0,1,.61-.61H22.07a.66.66,0,0,1,.61.61v.6a.66.66,0,0,1-.61.61H6.15a.66.66,0,0,1-.61-.61Z" transform="translate(0 -0.02)"/></g></g></g></svg>