<svg xmlns="http://www.w3.org/2000/svg" viewBox="0 0 35.19 38"><defs><style>.cls-1{fill:#435068;}</style></defs><title>还原重做</title><g id="Layer_2" data-name="Layer 2"><g id="图层_1" data-name="图层 1"><path class="cls-1" d="M30.08,23A13,13,0,0,1,9,29.88l2.38-1.25a1,1,0,0,0,.07-1.73L2.7,21.34a1,1,0,0,0-1.53.81L.74,32.53a1,1,0,0,0,1.47.93l2.15-1.13A18,18,0,0,0,35.19,23Z"/><path class="cls-1" d="M17.74,5a12.9,12.9,0,0,1,8.42,3.12L23.78,9.37a1,1,0,0,0-.07,1.73l8.78,5.56A1,1,0,0,0,34,15.85l.43-10.38A1,1,0,0,0,33,4.54L30.83,5.67A18,18,0,0,0,0,15H5.11A13,13,0,0,1,17.74,5Z"/></g></g></svg>