<svg id="图层_1" data-name="图层 1" xmlns="http://www.w3.org/2000/svg" viewBox="0 0 48 48"><defs><style>.cls-1{fill:#21539a;}.cls-2{fill:#fff;}</style></defs><title>rx_more</title><rect class="cls-1" width="48" height="48" rx="3.2" ry="3.2"/><path class="cls-2" d="M26.16,32a7.78,7.78,0,0,1,1.06-4V26.38l.32-.88.86-3,.32.1.42-.32.54-2-.1-1L29,19l.76-2.74s-.42-3.5-2.9-4.48a6.72,6.72,0,0,0-5.78-3.06l.64.76-1.18-.32.22.44-.86-.22-1,.6-.54.88-1.4,1L15.46,14h.44l-.44.74a2.94,2.94,0,0,0-.2,1.24l.32-.1-.22,1,.22-.14.1,1.24L16,19.3l-.54.22-.32.76.64,2.4.54.44h.42l.76,2.52.54,1.1.1,2.4s-.68,2.86-2.68,3.4S12.14,33.8,9.88,34.3A2.56,2.56,0,0,0,7.6,37.11s0,.1,0,.15H28.14A7.78,7.78,0,0,1,26.16,32Z"/><path class="cls-2" d="M30.12,28.82a4.46,4.46,0,1,0,6.32-.1,4.46,4.46,0,0,0-6.32.1Zm5.54,5.36a3.24,3.24,0,1,1,0-4.58l0,0a3.24,3.24,0,0,1,0,4.56Z"/><rect class="cls-2" x="36.87" y="33.46" width="1.42" height="5.16" rx="0.7" ry="0.7" transform="translate(-14.45 37.97) rotate(-45.93)"/></svg>