<svg id="图层_1" data-name="图层 1" xmlns="http://www.w3.org/2000/svg" viewBox="0 0 16.91 16.92"><defs><style>.cls-1{fill:#f7f8f9;}.cls-2{fill:#435068;}</style></defs><title>search</title><circle class="cls-1" cx="6.37" cy="6.37" r="5.31"/><path class="cls-2" d="M6.37,2.06A4.31,4.31,0,1,1,2.06,6.37,4.31,4.31,0,0,1,6.37,2.06m0-2a6.31,6.31,0,1,0,6.31,6.31A6.31,6.31,0,0,0,6.37.06Z"/><path class="cls-1" d="M15.68,15.87a.18.18,0,0,1-.13-.05l-4.76-4.76a.19.19,0,0,1,0-.27.19.19,0,0,1,.27,0l4.76,4.76a.19.19,0,0,1-.13.32Z"/><path class="cls-2" d="M10.92,9.73a1.19,1.19,0,0,0-.84,2l4.76,4.76a1.19,1.19,0,1,0,1.68-1.68l-4.76-4.76a1.19,1.19,0,0,0-.84-.35Z"/></svg>