<svg id="图层_1" data-name="图层 1" xmlns="http://www.w3.org/2000/svg" viewBox="0 0 72 72"><defs><style>.cls-1{fill:#435068;}</style></defs><title>画板 24</title><path class="cls-1" d="M49.1,50.5a10,10,0,1,0,14.2-.2A10.2,10.2,0,0,0,49.1,50.5Zm12.4,12a7.2,7.2,0,1,1-.2-10.2A7.2,7.2,0,0,1,61.5,62.5Z"/><rect class="cls-1" x="64.3" y="60.9" width="3.2" height="11.58" rx="0.4" ry="0.4" transform="translate(-27.9 67.6) rotate(-45.9)"/><path class="cls-1" d="M39.4,57.8A17.7,17.7,0,0,1,57.1,40.1h1.1V6.7A5.8,5.8,0,0,0,52.5,1H10.7A5.8,5.8,0,0,0,5,6.7V64.8a5.7,5.7,0,0,0,5.7,5.7H44.8A17.7,17.7,0,0,1,39.4,57.8Zm-22.3-.5a1.6,1.6,0,1,1-3.2,0V14.2a1.6,1.6,0,1,1,3.2,0Z"/></svg>