<svg id="图层_1" data-name="图层 1" xmlns="http://www.w3.org/2000/svg" viewBox="0 0 10 9.53"><defs><style>.cls-1{fill:#d1d5dd;}</style></defs><title>section</title><path class="cls-1" d="M9.26,0H.74A.74.74,0,0,0,0,.74V6.9a.74.74,0,0,0,.74.74H4.26V9H3.11a.27.27,0,0,0,0,.54H6.9A.27.27,0,0,0,6.9,9H5.75V7.64H9.26A.74.74,0,0,0,10,6.9V.74A.74.74,0,0,0,9.26,0ZM.74.54H9.26a.2.2,0,0,1,.2.2V5.68H.54V.74a.2.2,0,0,1,.2-.2ZM5.21,9H4.8V7.64h.41ZM9.26,7.1H.74a.2.2,0,0,1-.2-.2V6.22H9.46V6.9a.2.2,0,0,1-.2.2Zm0,0"/></svg>