<svg xmlns="http://www.w3.org/2000/svg" viewBox="0 0 36 34.66"><defs><style>.cls-1{fill:#435068;}</style></defs><title>布控管理_1</title><g id="Layer_2" data-name="Layer 2"><g id="图层_1" data-name="图层 1"><path class="cls-1" d="M22.33,28.06a9.38,9.38,0,0,1,1.28-4.73l-.08-1.95.38-1.06,1-3.56.38.13.52-.39L26.5,14l-.13-1.19-.65-.39.91-3.3s-.52-4.23-3.49-5.41a8.11,8.11,0,0,0-7-3.7l.77.92L15.51.53l.26.53-1-.27-1.17.66-.64,1.06L11.25,3.7,9.44,6.34,10,6.2l-.52.89s-.18.22-.25,1.49l.39-.13L9.31,9.67l.26-.17.12,1.59.39,1.58-.64.26-.39.93.77,2.9.65.53H11l.9,3,.65,1.32.13,2.91S11.83,28,9.44,28.64s-4,1.51-6.73,2.11C.9,31.15,0,32.07,0,34.31H24.72A9.37,9.37,0,0,1,22.33,28.06Z"/><path class="cls-1" d="M30.75,22.19a5.25,5.25,0,0,0-5.25,5.25c0,2.9,5.25,7.22,5.25,7.22S36,30.34,36,27.44A5.25,5.25,0,0,0,30.75,22.19Zm0,7.36A2.25,2.25,0,1,1,33,27.3,2.25,2.25,0,0,1,30.75,29.55Z"/></g></g></svg>