<svg xmlns="http://www.w3.org/2000/svg" viewBox="0 0 26 32"><defs><style>.cls-1{fill:#435068;}</style></defs><title>日志管理</title><g id="Layer_2" data-name="Layer 2"><g id="图层_1" data-name="图层 1"><path class="cls-1" d="M25,0H5A1,1,0,0,0,4,1V3H5.5a3.5,3.5,0,0,1,0,7H4v2H5.5a3.5,3.5,0,0,1,0,7H4v2H5.5a3.5,3.5,0,0,1,0,7H4v3a1,1,0,0,0,1,1H25a1,1,0,0,0,1-1V1A1,1,0,0,0,25,0Z"/><path class="cls-1" d="M2.5,9h3a2.5,2.5,0,0,0,0-5h-3a2.5,2.5,0,0,0,0,5Z"/><path class="cls-1" d="M2.5,18h3a2.5,2.5,0,0,0,0-5h-3a2.5,2.5,0,0,0,0,5Z"/><path class="cls-1" d="M8,24.5A2.5,2.5,0,0,0,5.5,22h-3a2.5,2.5,0,0,0,0,5h3A2.5,2.5,0,0,0,8,24.5Z"/></g></g></svg>