<svg id="图层_1" data-name="图层 1" xmlns="http://www.w3.org/2000/svg" viewBox="0 0 18 18"><defs><style>.cls-1{fill:#fff;}.cls-2{fill:#e6eaef;}</style></defs><title>system_logs</title><path class="cls-1" d="M9.48,14.61A4.56,4.56,0,0,1,14,10h.27V1.47A1.47,1.47,0,0,0,12.85,0H2.11A1.47,1.47,0,0,0,.64,1.47V16.42a1.47,1.47,0,0,0,1.47,1.47h8.77A4.54,4.54,0,0,1,9.48,14.61Zm-5.72-.12a.42.42,0,1,1-.84,0V3.39a.42.42,0,1,1,.84,0Z"/><path class="cls-1" d="M17.3,14.36a.55.55,0,1,1-.41-1,3,3,0,0,0-.95-.95.55.55,0,1,1-1-.41,3,3,0,0,0-1.19,0,.55.55,0,1,1-1,.41,3,3,0,0,0-.95.95.55.55,0,1,1-.41,1,3,3,0,0,0,0,1.19.55.55,0,1,1,.41,1,3,3,0,0,0,.95.95.55.55,0,1,1,1,.41,3,3,0,0,0,1.19,0,.55.55,0,1,1,1-.41,3,3,0,0,0,.95-.95.55.55,0,1,1,.41-1,3,3,0,0,0,0-1.19Zm-3,2.26A1.66,1.66,0,1,1,16,15,1.66,1.66,0,0,1,14.32,16.62Z"/><circle class="cls-2" cx="14.32" cy="14.96" r="0.83"/></svg>