<svg xmlns="http://www.w3.org/2000/svg" viewBox="0 0 36 32"><defs><style>.cls-1{fill:#435068;}</style></defs><title>系统设置</title><g id="Layer_2" data-name="Layer 2"><g id="图层_1" data-name="图层 1"><rect class="cls-1" x="2" y="15" width="5" height="17"/><polygon class="cls-1" points="7 0 2 0 2 7 0 7 0 12 2 12 7 12 9 12 9 7 7 7 7 0"/><rect class="cls-1" x="15.25" width="5" height="17"/><rect class="cls-1" x="29" y="14" width="5" height="18"/><polygon class="cls-1" points="15.25 20 13.25 20 13.25 25 15.25 25 15.25 32 20.25 32 20.25 25 22.25 25 22.25 20 20.25 20 15.25 20"/><polygon class="cls-1" points="34 7 34 0 29 0 29 7 27 7 27 12 29 12 34 12 36 12 36 7 34 7"/></g></g></svg>