<svg id="图层_1" data-name="图层 1" xmlns="http://www.w3.org/2000/svg" viewBox="0 0 18 18"><defs><style>.cls-1{fill:#fff;}</style></defs><title>system_setting</title><path class="cls-1" d="M17.82,7.23a1.63,1.63,0,1,1-1.22-3A9,9,0,0,0,13.8,1.4a1.63,1.63,0,1,1-3-1.22,9,9,0,0,0-3.54,0,1.63,1.63,0,1,1-3,1.22A9,9,0,0,0,1.4,4.2a1.63,1.63,0,1,1-1.22,3,9,9,0,0,0,0,3.54,1.63,1.63,0,1,1,1.22,3A9,9,0,0,0,4.2,16.6a1.63,1.63,0,1,1,3,1.22,9,9,0,0,0,3.54,0,1.63,1.63,0,1,1,3-1.22A9,9,0,0,0,16.6,13.8a1.63,1.63,0,1,1,1.22-3,9,9,0,0,0,0-3.54ZM9,13.91A4.91,4.91,0,1,1,13.91,9,4.91,4.91,0,0,1,9,13.91Z"/></svg>