<svg id="图层_1" data-name="图层 1" xmlns="http://www.w3.org/2000/svg" viewBox="0 0 72 72"><defs><style>.cls-1{fill:#435068;}</style></defs><title>视屏结构化图标分类</title><path class="cls-1" d="M38.33,38.08c0,9.44,0,18.88,0,28.33,0,2,.63,5-2.38,5.22-3.68.21-3-3.1-3-5.36q-.09-28.32,0-56.65c0-2.12-.45-5,2.48-5.22,3.79-.23,2.87,3.18,2.9,5.35C38.4,19.19,38.34,28.64,38.33,38.08Z"/><path class="cls-1" d="M35.56,7.1c-9.44,0-18.88,0-28.33,0C5.18,7.05,2.18,7.7,2,4.68c-.21-3.68,3.1-3,5.36-3q28.33-.08,56.65,0c2.12,0,5-.44,5.22,2.48C69.47,8,66.06,7,63.89,7.05,54.45,7.16,45,7.1,35.56,7.1Z"/></svg>