<?xml version="1.0" encoding="UTF-8"?>
<svg width="12px" height="12px" viewBox="0 0 12 12" version="1.1" xmlns="http://www.w3.org/2000/svg" xmlns:xlink="http://www.w3.org/1999/xlink">
    <!-- Generator: Sketch 50.2 (55047) - http://www.bohemiancoding.com/sketch -->
    <title>Fill 1</title>
    <desc>Created with Sketch.</desc>
    <defs></defs>
    <g id="Symbols" stroke="none" stroke-width="1" fill="none" fill-rule="evenodd">
        <g id="card-1" transform="translate(-141.000000, -78.000000)" fill="#D1D5DD">
            <g id="Group-4">
                <path d="M150.2844,84.8316 L150.2844,84.8412 L150.192,84.8412 L146.994,84.8412 C146.8596,84.8412 146.7312,84.7812 146.6436,84.6756 C146.5716,84.5904 146.5332,84.4884 146.5332,84.3816 L146.5332,84.3744 L146.5332,80.6184 C146.5332,80.364 146.742,80.1576 147,80.1576 C147.2568,80.1576 147.4656,80.364 147.4656,80.6184 L147.4656,83.9076 L150.192,83.9076 C150.3144,83.9076 150.4296,83.9568 150.516,84.0432 C150.606,84.132 150.654,84.2496 150.654,84.3744 C150.654,84.6 150.4944,84.7884 150.2844,84.8316 M147,78 C143.6856,78 141,80.6856 141,84 C141,87.3132 143.6856,90 147,90 C150.3132,90 153,87.3132 153,84 C153,80.6856 150.3132,78 147,78" id="Fill-1"></path>
            </g>
        </g>
    </g>
</svg>