<svg xmlns="http://www.w3.org/2000/svg" viewBox="0 0 36 36.71"><defs><style>.cls-1{fill:#435068;}</style></defs><title>轨迹分析</title><g id="Layer_2" data-name="Layer 2"><g id="图层_1" data-name="图层 1"><path class="cls-1" d="M19,0A11,11,0,0,0,8,11c0,6.08,11,15.13,11,15.13s11-9,11-15.13A11,11,0,0,0,19,0Zm0,15.42a4.72,4.72,0,1,1,4.72-4.71A4.71,4.71,0,0,1,19,15.42Z"/><path class="cls-1" d="M31.54,31.57H3.7a3.51,3.51,0,1,1,0-7H8.59a.94.94,0,1,1,0,1.87H3.7a1.65,1.65,0,1,0,0,3.27H31.54a.94.94,0,1,1,0,1.87Zm.76,5.14H7.23a.94.94,0,0,1,0-1.87H32.3a1.64,1.64,0,1,0,0-3.26H26.81a1,1,0,0,1-.93-.94.93.93,0,0,1,.93-.93H32.3a3.51,3.51,0,1,1,0,7Z"/></g></g></svg>