<svg id="图层_1" data-name="图层 1" xmlns="http://www.w3.org/2000/svg" viewBox="0 0 72 72"><defs><style>.cls-1{fill:#435068;}.cls-2{fill:#fff;}</style></defs><title>未标题-4</title><rect class="cls-1" width="72" height="72" rx="9" ry="9"/><rect class="cls-2" x="33.63" y="49.86" width="5.37" height="5.37"/><path class="cls-2" d="M44.9,19.78a12.56,12.56,0,0,0-8.86-3,12.14,12.14,0,0,0-8.43,2.85,12.69,12.69,0,0,0-3.85,8.18l4.78.58a9.85,9.85,0,0,1,2.61-5.86,7,7,0,0,1,4.94-1.85,7.15,7.15,0,0,1,5.2,2.07,6.55,6.55,0,0,1,2.12,4.81,5.43,5.43,0,0,1-.72,2.78,15.76,15.76,0,0,1-3.13,3.43A35.24,35.24,0,0,0,36.23,37a10.78,10.78,0,0,0-1.83,3.11,13.11,13.11,0,0,0-.77,4.77v1.4h4.49a19,19,0,0,1,.39-4.06,6.76,6.76,0,0,1,1-2.22,23.25,23.25,0,0,1,3-3,21.84,21.84,0,0,0,4.55-5.18,9.35,9.35,0,0,0,1.15-4.66A9.67,9.67,0,0,0,44.9,19.78Z"/></svg>