<svg id="图层_1" data-name="图层 1" xmlns="http://www.w3.org/2000/svg" viewBox="0 0 72 72"><defs><style>.cls-1{fill:#21539a;}.cls-2{fill:#fff;}</style></defs><title>未标题-1</title><polygon class="cls-1" points="70.02 34.38 58.11 28.82 34.42 41.79 11.9 30.56 0 36.7 34.42 53.84 70.02 34.38"/><polygon class="cls-1" points="70.02 18.39 35.59 2.41 0 20.83 34.42 37.97 70.02 18.39"/><path class="cls-1" d="M46.56,50.83,34.31,57.54,11.79,46.31,0,52.33,34.42,69.59,47,62.64a14.64,14.64,0,0,1-1.52-6.37A13.73,13.73,0,0,1,46.56,50.83Z"/><ellipse class="cls-1" cx="59.75" cy="56.27" rx="12.25" ry="12.16"/><polygon id="Shape" class="cls-2" points="66.28 55.46 61.03 55.46 61.03 50.25 58.7 50.25 58.7 55.46 53.45 55.46 53.45 57.78 58.7 57.78 58.7 62.99 61.03 62.99 61.03 57.78 66.28 57.78 66.28 55.46"/></svg>