<svg id="图层_1" data-name="图层 1" xmlns="http://www.w3.org/2000/svg" viewBox="0 0 72 72"><defs><style>.cls-1{fill:#435068;}</style></defs><title>画板 191 副本 2</title><polygon class="cls-1" points="61 16.6 61 19.9 54.3 19.9 54.3 23.2 61 23.2 61 26.6 54.3 26.6 54.3 29.9 61 29.9 61 33.2 54.3 33.2 54.3 36.5 61 36.5 61 39.9 54.3 39.9 54.3 43.2 61 43.2 61 46.5 54.3 46.5 54.3 49.9 61 49.9 61 53.2 61 56.5 47.7 56.5 47.7 53.2 54.3 53.2 54.3 49.9 47.7 49.9 47.7 46.5 54.3 46.5 54.3 43.2 47.7 43.2 47.7 39.9 54.3 39.9 54.3 36.5 47.7 36.5 47.7 33.2 54.3 33.2 54.3 29.9 47.7 29.9 47.7 26.6 54.3 26.6 54.3 23.2 47.7 23.2 47.7 19.9 54.3 19.9 54.3 16.6 24.3 16.6 24.3 9.9 1 9.9 1 56.5 1 63.2 71 63.2 71 56.5 71 16.6 61 16.6"/></svg>