<?xml version="1.0" encoding="UTF-8"?>
<svg width="14px" height="14px" viewBox="0 0 14 14" version="1.1" xmlns="http://www.w3.org/2000/svg" xmlns:xlink="http://www.w3.org/1999/xlink">
    <!-- Generator: Sketch 50.2 (55047) - http://www.bohemiancoding.com/sketch -->
    <title>error - material</title>
    <desc>Created with Sketch.</desc>
    <defs></defs>
    <g id="Page-1" stroke="none" stroke-width="1" fill="none" fill-rule="evenodd">
        <g id="个人账户" transform="translate(-1362.000000, -204.000000)" fill="#8A97A0">
            <path d="M1369.875,211.875 L1369.875,207.5 L1368.125,207.5 L1368.125,211.875 L1369.875,211.875 Z M1369.875,214.5 L1369.875,212.75 L1368.125,212.75 L1368.125,214.5 L1369.875,214.5 Z M1369,204 C1370.27885,204 1371.46233,204.319708 1372.5,204.875 C1373.60497,205.564907 1374.43509,206.395027 1375.125,207.5 C1375.68029,208.537666 1376,209.721147 1376,211 C1376,212.278853 1375.68029,213.462334 1375.125,214.5 C1374.43509,215.604973 1373.60497,216.435093 1372.5,217.125 C1371.46233,217.680292 1370.27885,218 1369,218 C1367.72115,218 1366.53767,217.680292 1365.5,217.125 C1364.39503,216.423875 1363.56491,215.588146 1362.875,214.5 C1362.31971,213.445507 1362,212.267635 1362,211 C1362,209.732365 1362.31971,208.554493 1362.875,207.5 C1363.57612,206.411854 1364.41185,205.576125 1365.5,204.875 C1366.55449,204.319708 1367.73237,204 1369,204 Z M1369,205.75 C1369.95914,205.75 1370.84675,205.989781 1371.625,206.40625 C1372.45373,206.92368 1373.07632,207.54627 1373.59375,208.375 C1374.01022,209.153249 1374.25,210.040861 1374.25,211 C1374.25,211.959139 1374.01022,212.846751 1373.59375,213.625 C1373.07632,214.45373 1372.45373,215.07632 1371.625,215.59375 C1370.84675,216.010219 1369.95914,216.25 1369,216.25 C1368.04086,216.25 1367.15325,216.010219 1366.375,215.59375 C1365.54627,215.067906 1364.92368,214.44111 1364.40625,213.625 C1363.98978,212.834131 1363.75,211.950726 1363.75,211 C1363.75,210.049274 1363.98978,209.165869 1364.40625,208.375 C1364.93209,207.55889 1365.55889,206.932094 1366.375,206.40625 C1367.16587,205.989781 1368.04927,205.75 1369,205.75 Z" id="error---material"></path>
        </g>
    </g>
</svg>