<svg xmlns="http://www.w3.org/2000/svg" viewBox="0 0 40 38"><defs><style>.cls-1{fill:#435068;}</style></defs><title>用户</title><g id="Layer_2" data-name="Layer 2"><g id="图层_1" data-name="图层 1"><polyline class="cls-1" points="26 26 24.5 24.5 24 24 23.83 24.5 20 36 16.17 24.5 16 24 15.5 24.5 14 26 13.5 26.17 2 30 1.5 30 0 30 0 36 0 38 1.5 38 13.5 38 26.5 38 38.5 38 40 38 40 36 40 30 38.5 30 38 30 38 30 26.5 26.16 26 26"/><path class="cls-1" d="M20,0h0C14.48,0,10,3.79,10,6a2.18,2.18,0,0,0,.77,1.54L12,10c0,1.11,3.58,2,8,2s8-.89,8-2l1.23-2.46A2.18,2.18,0,0,0,30,6h0C30,3.79,25.52,0,20,0ZM18,4a2,2,0,1,1,2,2A2,2,0,0,1,18,4Z"/></g></g></svg>