<svg xmlns="http://www.w3.org/2000/svg" viewBox="0 0 34.71 36"><defs><style>.cls-1{fill:#435068;}</style></defs><title>视频回放</title><g id="Layer_2" data-name="Layer 2"><g id="图层_1" data-name="图层 1"><path class="cls-1" d="M33.24,4.54,31.09,5.67A18,18,0,1,0,18,36a17.8,17.8,0,0,0,9.86-3A1,1,0,0,0,28,31.49l-2.17-2.17a1,1,0,0,0-1.24-.13A13,13,0,1,1,26.42,8.12L24,9.37A1,1,0,0,0,24,11.1l8.78,5.56a1,1,0,0,0,1.54-.81l.42-10.38A1,1,0,0,0,33.24,4.54Z"/><path class="cls-1" d="M14,12v12.1a.51.51,0,0,0,.76.44l10.48-6a.51.51,0,0,0,0-.88l-10.48-6A.51.51,0,0,0,14,12Z"/></g></g></svg>