<svg xmlns="http://www.w3.org/2000/svg" viewBox="0 0 36 24.15"><defs><style>.cls-1{fill:#435068;}</style></defs><title>视频分析</title><g id="Layer_2" data-name="Layer 2"><g id="图层_1" data-name="图层 1"><rect class="cls-1" x="26.49" y="16.73" width="9.51" height="1.18" rx="0.25" ry="0.25"/><rect class="cls-1" x="26.49" y="19.67" width="9.51" height="1.18" rx="0.25" ry="0.25"/><rect class="cls-1" x="26.49" y="22.62" width="9.51" height="1.18" rx="0.25" ry="0.25"/><path class="cls-1" d="M22.42,20a8.83,8.83,0,0,1,8.83-8.83,8.58,8.58,0,0,1,1.35.12V2.72A2.72,2.72,0,0,0,29.89,0H2.72A2.72,2.72,0,0,0,0,2.72V21.43a2.72,2.72,0,0,0,2.72,2.72H23.47A8.78,8.78,0,0,1,22.42,20ZM12.91,18.6v-13l8.15,6.53Z"/></g></g></svg>