<svg xmlns="http://www.w3.org/2000/svg" viewBox="0 0 36.99 38"><defs><style>.cls-1{fill:#435068;}</style></defs><title>视频下载</title><g id="Layer_2" data-name="Layer 2"><g id="图层_1" data-name="图层 1"><path class="cls-1" d="M14,12v12.1a.51.51,0,0,0,.76.44l10.48-6a.51.51,0,0,0,0-.88l-10.48-6A.51.51,0,0,0,14,12Z"/><path class="cls-1" d="M31,23v5.84l2.16-2.15a1,1,0,0,1,1.41,0l2.12,2.12a1,1,0,0,1,0,1.41L32,34.88l-2.83,2.83a1,1,0,0,1-1.42,0L25,34.88l-4.65-4.66a1,1,0,0,1,0-1.41l2.12-2.12a1,1,0,0,1,1.41,0L26,28.84V23a1,1,0,0,1,1-1h3A1,1,0,0,1,31,23Z"/><path class="cls-1" d="M17.81,31A13,13,0,1,1,31,17.81a.2.2,0,0,0,.19.19h4.6a.21.21,0,0,0,.21-.21A18,18,0,1,0,17.79,36a.21.21,0,0,0,.21-.21v-4.6A.2.2,0,0,0,17.81,31Z"/></g></g></svg>