<?xml version="1.0" encoding="UTF-8"?>
<svg width="48px" height="30px" viewBox="0 0 48 30" version="1.1" xmlns="http://www.w3.org/2000/svg" xmlns:xlink="http://www.w3.org/1999/xlink">
    <!-- Generator: Sketch 50.2 (55047) - http://www.bohemiancoding.com/sketch -->
    <title>video-camera - FontAwesome</title>
    <desc>Created with Sketch.</desc>
    <defs></defs>
    <g id="-" stroke="none" stroke-width="1" fill="none" fill-rule="evenodd">
        <g id="video-camera---FontAwesome" fill="#0074FF">
            <path d="M48,2.28571459 L48,28.1904799 C48,28.8095276 47.6190476,29.3571467 47.0714284,29.595242 C46.8809522,29.6666706 46.6666665,29.7142897 46.4761903,29.7142897 C46.0714283,29.7142897 45.6904759,29.5714325 45.4047616,29.2619086 L34.6666299,18.6666469 L34.6666299,28.2619086 C34.6666299,28.8141934 34.2189147,29.2619086 33.6666299,29.2619086 L1,29.2619086 C0.44771525,29.2619086 6.76353751e-17,28.8141934 0,28.2619086 L0,1 C-6.76353751e-17,0.44771525 0.44771525,1.01453063e-16 1,0 L33.6666299,0 C34.2189147,-1.01453063e-16 34.6666299,0.44771525 34.6666299,1 L34.6666299,10.6666554 L45.4047616,1.21428588 C45.6904759,0.904762025 46.0714283,0.761904863 46.4761903,0.761904863 C46.6666665,0.761904863 46.8809522,0.809523917 47.0714284,0.880952498 C47.6190476,1.11904777 48,1.66666689 48,2.28571459 Z"></path>
        </g>
    </g>
</svg>