<?xml version="1.0" encoding="utf-8"?>
<!-- Generator: Adobe Illustrator 21.1.0, SVG Export Plug-In . SVG Version: 6.00 Build 0)  -->
<svg version="1.1" id="图层_1" xmlns="http://www.w3.org/2000/svg" xmlns:xlink="http://www.w3.org/1999/xlink" x="0px" y="0px"
	 viewBox="0 0 48 48" style="enable-background:new 0 0 48 48;" xml:space="preserve">
<style type="text/css">
	.st0{fill:#3D3D3D;}
</style>
<path class="st0" d="M17.1,10.1c-2,0.8-3.6,2.5-4.3,4.6l-0.1-2.8c-0.1-1.5,0.6-2.9,1.8-3.7c1.1-0.8,2.5-0.9,3.7-0.3l0.1-0.1
	c0.9-0.9,2.1-1.4,3.4-1.2c3.2,0.5,5.4,3.4,5,6.6l-0.2,1.5c0,0-0.5-2-3.8-2c-0.3,0-0.5,0-0.9,0c0,0-0.2,0-0.6,0
	C19.8,12.7,16.9,12.4,17.1,10.1z M12.3,19.5c-0.2-0.3-0.4-0.6-0.6-1c-0.2-0.7-0.3-1.4-0.1-2c0.1-0.4,0.4-0.8,0.8-0.9
	c0.1,0,0.1,0,0.2,0.1h0.1c0.4,0,0.7-0.3,0.8-0.6c0.5-1.5,1.5-2.7,2.8-3.5c0.1,0.3,0.3,0.6,0.5,0.8c1,1.1,2.8,1.4,4.2,1.4
	c0.4,0,0.7,0,0.7,0c0.3,0,0.5,0,0.8,0c2.5,0,3,1.3,3,1.4c0.1,0.2,0.2,0.4,0.5,0.5c0.1,0.1,0.2,0.1,0.4,0.1h0.1c0.1,0,0.1,0,0.2,0
	c0.4,0.2,0.7,0.5,0.8,0.9c0.2,0.7,0.2,1.4,0,2c-0.1,0.4-0.3,0.7-0.6,1c-0.3,0.5-0.9,0.8-1.5,0.9c-1.2,2.8-3.3,5.1-5.7,5.1
	s-4.5-2.4-5.7-5.1C13.2,20.4,12.7,20,12.3,19.5L12.3,19.5z M29.3,25.4c0.9,0.3,1.6,1.1,1.6,2.1c-4.2,6.2-12.6,7.9-18.8,3.8
	c-1.5-1-2.8-2.3-3.8-3.8c0-1,0.7-1.8,1.6-2.1l4.9-1.5c1.1,1.5,2.9,2.5,4.8,2.6c1.9-0.1,3.7-1.1,4.8-2.6L29.3,25.4z M8.3,31.3
	c6.1,6.4,16.2,6.7,22.6,0.6s6.7-16.2,0.6-22.6c-0.2-0.2-0.4-0.4-0.6-0.6c-6.2-6.2-16.4-6.2-22.6,0S2,25,8.3,31.3L8.3,31.3z
	 M34.8,31.7l12.8,12.9L44.2,48L31.4,35.1c-8.4,6.5-20.5,4.9-27-3.5C-1.5,24-0.8,13.2,6,6.3c7.5-7.5,19.7-7.4,27.2,0.1
	C39.9,13.3,40.6,24.1,34.8,31.7L34.8,31.7z"/>
</svg>
