<svg xmlns="http://www.w3.org/2000/svg" viewBox="0 0 37.95 31.65"><defs><style>.cls-1{fill:#435068;}</style></defs><title>视频分析_1</title><g id="Layer_2" data-name="Layer 2"><g id="图层_1" data-name="图层 1"><path class="cls-1" d="M21.49,21.83a7.88,7.88,0,0,1,12.69-4.59.5.5,0,0,0,.82-.37V1a1,1,0,0,0-1-1H1A1,1,0,0,0,0,1V27a1,1,0,0,0,1,1H21.94a.49.49,0,0,0,.43-.74A7.92,7.92,0,0,1,21.49,21.83ZM13.62,21A1,1,0,0,1,12,20.19V7.41a1,1,0,0,1,1.62-.77L22,13a1,1,0,0,1,0,1.55Z"/><path class="cls-1" d="M37.68,29,34.93,26.1a5.84,5.84,0,0,0,.45-2.26,5.52,5.52,0,1,0-5.52,5.74,5.34,5.34,0,0,0,2.89-.87l2.53,2.63a1,1,0,0,0,1.44,0l1-1A1,1,0,0,0,37.68,29ZM27.1,23.84a2.76,2.76,0,1,1,2.76,2.87A2.83,2.83,0,0,1,27.1,23.84Z"/></g></g></svg>