<?xml version="1.0" encoding="utf-8"?>
<!-- Generator: Adobe Illustrator 22.0.0, SVG Export Plug-In . SVG Version: 6.00 Build 0)  -->
<svg version="1.1" id="图层_1" xmlns="http://www.w3.org/2000/svg" xmlns:xlink="http://www.w3.org/1999/xlink" x="0px" y="0px"
	 viewBox="0 0 72 72" style="enable-background:new 0 0 72 72;" xml:space="preserve">
<style type="text/css">
	.st0{fill:#435068;}
</style>
<g>
	<g>
		<path class="st0" d="M25.9,24v22.8l18-11.4L25.9,24z M25.9,24"/>
	</g>
	<path class="st0" d="M66.5,34l-2.3,2.4c0-0.1,0-0.2,0-0.2C64.2,18.3,50,3.8,32.5,3.8C15,3.8,0.8,18.3,0.8,36.1
		C0.8,54,15,68.5,32.5,68.5v-8.7c-12.7,0-23-10.6-23-23.6c0-13,10.3-23.6,23.1-23.6c12.7,0,23.1,10.5,23.1,23.6c0,0.1,0,0.2,0,0.3
		l-2.4-2.4l-4.2,4.3l11,11.1l10.8-11.2L66.5,34z"/>
</g>
</svg>
