<?xml version="1.0" encoding="utf-8"?>
<!-- Generator: Adobe Illustrator 21.1.0, SVG Export Plug-In . SVG Version: 6.00 Build 0)  -->
<svg version="1.1" id="图层_1" xmlns="http://www.w3.org/2000/svg" xmlns:xlink="http://www.w3.org/1999/xlink" x="0px" y="0px"
	 viewBox="0 0 72 72" style="enable-background:new 0 0 72 72;" xml:space="preserve">
<style type="text/css">
	.st0{fill:#869ABB;}
</style>
<title>未标题-6</title>
<desc>Created with Sketch.</desc>
<g id="Page-1">
	<g id="_x32_.5-消息通知" transform="translate(-1408.000000, -187.000000)">
		<g id="未标题-6" transform="translate(1408.000000, 187.000000)">
			<path id="Shape" class="st0" d="M33.1,24h-0.2c-5.7,0-10.3,4.7-10.3,10.4S27.3,44.7,33,44.7c5.7,0,10.3-4.6,10.4-10.3
				S38.8,24.1,33.1,24L33.1,24z"/>
			<path id="Shape_1_" class="st0" d="M64.8,16.5L47.8,0H7.2v72h57.6V16.5z M55.2,53.1l-2.7,2.8c-0.2,0.2-0.4,0.3-0.7,0.3
				c-0.2,0-0.5-0.1-0.7-0.3L42,46.9c-6.5,4.6-15.4,3.4-20.6-2.6c-5.2-6.1-4.9-15.1,0.7-20.8s14.5-6.3,20.7-1.3s7.6,13.9,3.2,20.5
				l9.3,8.9C55.6,52.1,55.6,52.7,55.2,53.1L55.2,53.1z"/>
		</g>
	</g>
</g>
</svg>
