<svg xmlns="http://www.w3.org/2000/svg" viewBox="0 0 36 27.45"><defs><style>.cls-1{fill:#435068;}</style></defs><title>流量分析</title><g id="Layer_2" data-name="Layer 2"><g id="图层_1" data-name="图层 1"><path class="cls-1" d="M28.53,13.76A6.23,6.23,0,1,1,22.31,20a6.24,6.24,0,0,1,6.22-6.23m0-1.24A7.47,7.47,0,1,0,36,20a7.47,7.47,0,0,0-7.47-7.47Z"/><circle class="cls-1" cx="24.68" cy="21.81" r="0.87"/><rect class="cls-1" x="24.47" y="19.76" width="3.35" height="0.68" rx="0.03" ry="0.03" transform="translate(-6.03 27.36) rotate(-50.27)"/><circle class="cls-1" cx="29.95" cy="20.78" r="0.87"/><rect class="cls-1" x="29.58" y="19.08" width="3.35" height="0.68" rx="0.03" ry="0.03" transform="translate(-3.66 31.04) rotate(-50.27)"/><circle class="cls-1" cx="27.4" cy="18.59" r="0.87"/><circle class="cls-1" cx="32.34" cy="18.11" r="0.87"/><rect class="cls-1" x="27.09" y="19.44" width="3.35" height="0.68" rx="0.03" ry="0.03" transform="translate(38.25 53.38) rotate(-140.27)"/><path class="cls-1" d="M5,22.49H8.68a.4.4,0,0,0,.39-.44V11.51a.47.47,0,0,0-.48-.44H5a.44.44,0,0,0-.44.44V22.05A.41.41,0,0,0,5,22.49Z"/><path class="cls-1" d="M21.56,4H18.2a.58.58,0,0,0-.58.53V21.9a.55.55,0,0,0,.58.54h2a8.63,8.63,0,0,1,1.94-8.33V4.56A.62.62,0,0,0,21.56,4Z"/><path class="cls-1" d="M11.65,22.49h3.49a.46.46,0,0,0,.49-.49V9.08a.57.57,0,0,0-.49-.49H11.65a.48.48,0,0,0-.49.44V22A.49.49,0,0,0,11.65,22.49Z"/><path class="cls-1" d="M2.19,23.59V1.09A1.1,1.1,0,0,0,0,1.09V24.68a1.09,1.09,0,0,0,1.09,1.09h21a8.39,8.39,0,0,1-1.43-2.18Z"/></g></g></svg>