<svg xmlns="http://www.w3.org/2000/svg" viewBox="0 0 32.37 34.87"><defs><style>.cls-1{fill:#435068;}</style></defs><title>填写</title><g id="Layer_2" data-name="Layer 2"><g id="图层_1" data-name="图层 1"><path class="cls-1" d="M29.15,10.73l-3.86,3.85a1,1,0,0,0-.29.71V29.87H5v-17h6v-6h6.59a1,1,0,0,0,.7-.29l3.86-3.85a.51.51,0,0,0-.36-.86H11.41a1,1,0,0,0-.7.3L.29,12.58a1,1,0,0,0-.29.71V33.87a1,1,0,0,0,1,1H29a1,1,0,0,0,1-1V11.08A.5.5,0,0,0,29.15,10.73Z"/><polygon class="cls-1" points="9.75 22.63 15.11 21.51 32.37 4.24 28.13 0 10.86 17.27 9.75 22.63"/></g></g></svg>