<svg xmlns="http://www.w3.org/2000/svg" viewBox="0 0 36 27.43"><defs><style>.cls-1{fill:#435068;}.cls-2{fill:#fff;}</style></defs><title>压缩文件</title><g id="Layer_2" data-name="Layer 2"><g id="图层_1" data-name="图层 1"><path class="cls-1" d="M15.7,3.09,13.3.34A1,1,0,0,0,12.55,0H1A1,1,0,0,0,0,1V26.44a1,1,0,0,0,1,1H35a1,1,0,0,0,1-1v-22a1,1,0,0,0-1-1H16.45A1,1,0,0,1,15.7,3.09Z"/><path class="cls-1" d="M15.7,3.09,13.3.34A1,1,0,0,0,12.55,0H1A1,1,0,0,0,0,1V24H36V4.42a1,1,0,0,0-1-1H16.45A1,1,0,0,1,15.7,3.09Z"/><rect class="cls-2" x="24" y="8.57" width="3.43" height="1.71"/><rect class="cls-2" x="27.43" y="10.29" width="3.43" height="1.71"/><rect class="cls-2" x="24" y="3.43" width="6.86" height="1.71"/><rect class="cls-2" x="27.43" y="6.86" width="3.43" height="1.71"/><rect class="cls-2" x="24" y="12" width="3.43" height="1.71"/><rect class="cls-2" x="24" y="18.86" width="3.43" height="1.71"/><rect class="cls-2" x="27.43" y="20.57" width="3.43" height="1.71"/><rect class="cls-2" x="24" y="22.29" width="6.86" height="1.71"/><rect class="cls-2" x="27.43" y="13.71" width="3.43" height="1.71"/><rect class="cls-2" x="24" y="15.43" width="3.43" height="1.71"/><rect class="cls-2" x="27.43" y="17.14" width="3.43" height="1.71"/><rect class="cls-2" x="24" y="5.14" width="3.43" height="1.71"/></g></g></svg>