<svg xmlns="http://www.w3.org/2000/svg" viewBox="0 0 36 34"><defs><style>.cls-1{fill:#414f66;}</style></defs><title>单图缩放</title><g id="Layer_2" data-name="Layer 2"><g id="图层_1" data-name="图层 1"><rect class="cls-1" x="9" y="11" width="18" height="12" rx="1" ry="1"/><path class="cls-1" d="M3,3H15a1,1,0,0,0,1-1V1a1,1,0,0,0-1-1H1A1,1,0,0,0,0,1V11a1,1,0,0,0,1,1H2a1,1,0,0,0,1-1Z"/><path class="cls-1" d="M3,31H15a1,1,0,0,1,1,1v1a1,1,0,0,1-1,1H1a1,1,0,0,1-1-1V23a1,1,0,0,1,1-1H2a1,1,0,0,1,1,1Z"/><path class="cls-1" d="M33,3H21a1,1,0,0,1-1-1V1a1,1,0,0,1,1-1H35a1,1,0,0,1,1,1V11a1,1,0,0,1-1,1H34a1,1,0,0,1-1-1Z"/><path class="cls-1" d="M33,31H21a1,1,0,0,0-1,1v1a1,1,0,0,0,1,1H35a1,1,0,0,0,1-1V23a1,1,0,0,0-1-1H34a1,1,0,0,0-1,1Z"/></g></g></svg>